<svg width="512" height="289" viewBox="0 0 512 289" fill="none" xmlns="http://www.w3.org/2000/svg">
<rect width="512" height="288.257" fill="white"/>
<g clip-path="url(#clip0_1_127)">
<path d="M107.63 129.799C108.579 132.675 109.527 136.35 110.633 140.505C106.524 140.505 102.257 140.345 98.3063 140.345H96.2518C98.6223 131.237 101.309 124.206 103.521 122.608C103.679 122.448 103.838 122.448 104.154 122.448C104.47 122.448 104.628 122.608 104.944 122.928C105.26 123.727 106.208 125.644 107.63 129.799ZM148.088 144.5C148.088 166.072 130.704 183.65 109.369 183.65C88.034 183.65 70.65 166.072 70.65 144.5C70.65 122.928 88.034 105.35 109.369 105.35C130.704 105.35 148.088 122.928 148.088 144.5ZM138.131 143.541C138.131 142.582 137.499 141.624 136.551 141.464C136.393 141.464 136.393 141.464 136.235 141.464H135.919C129.439 140.984 122.644 140.825 116.322 140.665C113.32 129 109.369 117.175 104.312 117.175C99.5706 117.175 95.1456 125.005 91.3527 140.345C88.6661 140.345 86.2956 140.345 84.0831 140.186C83.925 140.186 83.767 140.186 83.767 140.186C83.2929 140.186 82.9768 140.186 82.9768 140.186C81.7125 140.345 80.7643 141.624 80.7643 142.902C80.7643 144.18 81.7125 145.459 83.1348 145.619H90.4045C89.7723 148.655 89.1402 151.691 88.6661 154.567L88.5081 155.846C88.5081 156.804 89.2982 157.603 90.2465 157.603C90.8786 157.603 91.5107 157.284 91.8268 156.804L95.3036 145.459H112.213C113.478 150.412 114.9 155.526 116.638 160.32C117.587 162.877 119.799 168.949 123.592 168.949C129.281 168.949 131.494 159.681 132.916 153.608C133.232 152.33 133.548 151.211 133.706 150.253L133.864 149.933C133.864 149.773 133.864 149.613 133.864 149.454C133.706 149.134 133.548 148.974 133.232 148.814C132.758 148.655 132.442 148.974 132.284 149.454L132.126 149.773C131.652 151.052 131.178 152.33 130.862 153.449V153.608C128.333 160.639 127.227 163.835 125.014 163.835C122.17 163.835 119.483 152.17 118.535 147.696C118.377 146.897 118.219 146.258 118.061 145.619H136.551C136.867 145.619 137.183 145.459 137.499 145.459C137.499 145.459 137.499 145.459 137.657 145.459C137.657 145.459 137.657 145.459 137.815 145.459C137.815 145.459 137.973 145.459 137.973 145.299C137.815 144.66 138.131 144.18 138.131 143.541ZM187.438 154.248L190.599 161.918H199.449L182.381 121.809H174.479L157.57 161.918H166.42L169.58 154.248H187.438ZM184.278 146.737H172.583L178.43 132.196L184.278 146.737ZM237.378 132.995C232.953 132.995 230.266 134.273 227.263 136.99C225.051 134.433 221.89 132.995 218.413 132.995C215.095 132.995 213.356 133.953 211.618 135.551V133.953H203.716V161.918H211.776V143.541C213.356 141.304 215.095 140.345 216.675 140.345C220.468 140.345 222.68 142.742 222.68 147.217V161.918H230.582V146.577C230.582 145.459 230.424 144.5 230.424 143.541C232.163 141.144 233.901 140.505 235.639 140.505C239.432 140.505 241.487 142.902 241.487 147.376V162.078H249.546V146.737C249.546 138.268 244.173 132.995 237.378 132.995ZM271.355 133.314C268.195 133.314 265.666 134.113 263.454 135.551V133.953H255.394V175.5H263.454V160.32C265.666 161.758 268.195 162.557 271.355 162.557C279.099 162.557 285.263 156.165 285.263 148.016C285.105 139.706 278.941 133.314 271.355 133.314ZM269.933 155.686C267.563 155.686 265.192 154.887 263.454 152.49V143.541C265.192 141.144 267.563 140.186 269.933 140.186C274.042 140.186 277.045 143.861 277.045 148.016C277.045 152.01 274.042 155.686 269.933 155.686ZM297.589 120.371H289.529V161.918H297.589V120.371ZM309.6 128.68C312.287 128.68 314.341 126.763 314.341 124.046C314.341 121.33 312.129 119.252 309.6 119.252C306.913 119.252 304.701 121.33 304.701 124.046C304.859 126.763 306.913 128.68 309.6 128.68ZM305.649 133.953V161.918H313.709V133.953H305.649ZM342.155 154.727C340.575 155.206 338.995 155.526 337.414 155.526C334.412 155.526 332.515 154.088 332.515 150.892V140.984H342.471V134.113H332.357V124.046H324.455V134.113H318.608V140.984H324.455V151.052C324.455 158.242 328.88 163.036 335.676 163.036C338.363 163.036 339.785 162.877 343.262 161.758L342.155 154.727ZM375.185 133.953H367.125V152.01C365.229 154.248 363.174 155.526 361.12 155.526C357.327 155.526 355.114 153.129 355.114 148.655V133.953H347.054V149.454C347.054 157.603 351.954 162.877 359.223 162.877C362.384 162.877 364.913 161.758 367.125 160V161.918H375.185V133.953ZM409.479 120.371H401.419V135.551C399.206 134.113 396.678 133.314 393.517 133.314C385.773 133.314 379.61 139.706 379.61 147.856C379.61 156.165 385.773 162.397 393.517 162.397C396.678 162.397 399.206 161.598 401.419 160.16V161.758H409.479V120.371ZM394.781 155.686C390.514 155.686 387.67 152.01 387.67 147.856C387.67 143.701 390.672 140.186 394.781 140.186C397.152 140.186 399.522 140.984 401.261 143.381V152.33C399.522 154.887 397.152 155.686 394.781 155.686ZM442.35 147.376C442.35 138.588 436.345 132.995 428.443 132.995C419.593 132.995 413.588 139.227 413.588 148.016C413.588 156.485 419.593 163.036 428.601 163.036C435.238 163.036 440.454 159.361 442.034 153.928H433.5C432.552 155.366 431.13 156.005 428.759 156.005C424.334 156.005 422.121 153.449 421.489 150.093H442.034C442.35 149.134 442.35 148.495 442.35 147.376ZM428.443 139.866C431.762 139.866 433.816 141.783 434.29 145.299H421.647C422.438 142.103 424.65 139.866 428.443 139.866Z" fill="#1E61F0"/>
</g>
<defs>
<clipPath id="clip0_1_127">
<rect width="371.7" height="78.3" fill="white" transform="translate(70.65 105.35)"/>
</clipPath>
</defs>
</svg>
