<svg width="512" height="289" viewBox="0 0 512 289" fill="none" xmlns="http://www.w3.org/2000/svg">
<rect width="512" height="288.257" fill="white"/>
<g clip-path="url(#clip0_1_127)">
<path d="M91.0893 128.165C92.1429 131.361 93.1964 135.445 94.4256 140.061C89.8601 140.061 85.119 139.884 80.7292 139.884H78.4464C81.0804 129.763 84.0655 121.951 86.5238 120.176C86.6994 119.998 86.875 119.998 87.2262 119.998C87.5774 119.998 87.753 120.176 88.1042 120.531C88.4554 121.418 89.5089 123.549 91.0893 128.165ZM136.042 144.5C136.042 168.469 116.726 188 93.0208 188C69.3155 188 50 168.469 50 144.5C50 120.531 69.3155 101 93.0208 101C116.726 101 136.042 120.531 136.042 144.5ZM124.979 143.435C124.979 142.369 124.277 141.304 123.223 141.127C123.048 141.127 123.048 141.127 122.872 141.127H122.521C115.321 140.594 107.771 140.416 100.747 140.239C97.4107 127.278 93.0208 114.139 87.4018 114.139C82.1339 114.139 77.2173 122.839 73.003 139.884C70.0179 139.884 67.3839 139.884 64.9256 139.706C64.75 139.706 64.5744 139.706 64.5744 139.706C64.0476 139.706 63.6964 139.706 63.6964 139.706C62.2917 139.884 61.2381 141.304 61.2381 142.724C61.2381 144.145 62.2917 145.565 63.872 145.743H71.9494C71.247 149.116 70.5446 152.49 70.0179 155.686L69.8423 157.106C69.8423 158.171 70.7202 159.059 71.7738 159.059C72.4762 159.059 73.1786 158.704 73.5298 158.171L77.3929 145.565H96.1815C97.5863 151.069 99.1667 156.751 101.098 162.078C102.152 164.918 104.61 171.665 108.824 171.665C115.146 171.665 117.604 161.367 119.185 154.62C119.536 153.2 119.887 151.957 120.063 150.892L120.238 150.537C120.238 150.359 120.238 150.182 120.238 150.004C120.062 149.649 119.887 149.471 119.536 149.294C119.009 149.116 118.658 149.471 118.482 150.004L118.307 150.359C117.78 151.78 117.253 153.2 116.902 154.443V154.62C114.092 162.433 112.863 165.984 110.405 165.984C107.244 165.984 104.259 153.022 103.205 148.051C103.03 147.163 102.854 146.453 102.679 145.743H123.223C123.574 145.743 123.926 145.565 124.277 145.565C124.277 145.565 124.277 145.565 124.452 145.565C124.452 145.565 124.452 145.565 124.628 145.565C124.628 145.565 124.804 145.565 124.804 145.388C124.628 144.678 124.979 144.145 124.979 143.435ZM179.765 155.331L183.277 163.853H193.11L174.146 119.288H165.366L146.577 163.853H156.411L159.923 155.331H179.765ZM176.253 146.986H163.259L169.756 130.829L176.253 146.986ZM235.253 131.716C230.336 131.716 227.351 133.137 224.015 136.155C221.557 133.314 218.045 131.716 214.182 131.716C210.494 131.716 208.562 132.782 206.631 134.557V132.782H197.851V163.853H206.807V143.435C208.563 140.949 210.494 139.884 212.25 139.884C216.464 139.884 218.923 142.547 218.923 147.518V163.853H227.702V146.808C227.702 145.565 227.527 144.5 227.527 143.435C229.458 140.771 231.39 140.061 233.321 140.061C237.536 140.061 239.818 142.724 239.818 147.696V164.031H248.774V146.986C248.774 137.576 242.804 131.716 235.253 131.716ZM273.006 132.071C269.494 132.071 266.685 132.959 264.226 134.557V132.782H255.271V178.945H264.226V162.078C266.685 163.676 269.494 164.563 273.006 164.563C281.61 164.563 288.458 157.461 288.458 148.406C288.283 139.173 281.435 132.071 273.006 132.071ZM271.426 156.929C268.792 156.929 266.158 156.041 264.226 153.378V143.435C266.158 140.771 268.792 139.706 271.426 139.706C275.991 139.706 279.327 143.79 279.327 148.406C279.327 152.845 275.991 156.929 271.426 156.929ZM302.155 117.69H293.199V163.853H302.155V117.69ZM315.5 126.922C318.485 126.922 320.768 124.792 320.768 121.773C320.768 118.755 318.31 116.447 315.5 116.447C312.515 116.447 310.057 118.755 310.057 121.773C310.232 124.792 312.515 126.922 315.5 126.922ZM311.11 132.782V163.853H320.065V132.782H311.11ZM351.673 155.863C349.917 156.396 348.161 156.751 346.405 156.751C343.068 156.751 340.961 155.153 340.961 151.602V140.594H352.024V132.959H340.786V121.773H332.006V132.959H325.509V140.594H332.006V151.78C332.006 159.769 336.923 165.096 344.473 165.096C347.458 165.096 349.039 164.918 352.902 163.676L351.673 155.863ZM388.372 132.782H379.417V152.845C377.31 155.331 375.027 156.751 372.744 156.751C368.53 156.751 366.071 154.088 366.071 149.116V132.782H357.116V150.004C357.116 159.059 362.56 164.918 370.637 164.918C374.149 164.918 376.958 163.676 379.417 161.722V163.853H388.372V132.782ZM426.476 117.69H417.521V134.557C415.063 132.959 412.253 132.071 408.741 132.071C400.137 132.071 393.289 139.173 393.289 148.229C393.289 157.461 400.137 164.386 408.741 164.386C412.253 164.386 415.063 163.498 417.521 161.9V163.676H426.476V117.69ZM410.146 156.929C405.405 156.929 402.244 152.845 402.244 148.229C402.244 143.612 405.58 139.706 410.146 139.706C412.78 139.706 415.414 140.594 417.345 143.257V153.2C415.414 156.041 412.78 156.929 410.146 156.929ZM463 147.696C463 137.931 456.327 131.716 447.548 131.716C437.714 131.716 431.042 138.641 431.042 148.406C431.042 157.816 437.714 165.096 447.723 165.096C455.098 165.096 460.893 161.012 462.649 154.976H453.167C452.113 156.573 450.533 157.284 447.899 157.284C442.982 157.284 440.524 154.443 439.821 150.714H462.649C463 149.649 463 148.939 463 147.696ZM447.548 139.351C451.235 139.351 453.518 141.482 454.045 145.388H439.997C440.875 141.837 443.333 139.351 447.548 139.351Z" fill="#1E61F0"/>
</g>
<defs>
<clipPath id="clip0_1_127">
<rect width="413" height="87" fill="white" transform="translate(50 101)"/>
</clipPath>
</defs>
</svg>
