<svg width="512" height="289" viewBox="0 0 512 289" fill="none" xmlns="http://www.w3.org/2000/svg">
<rect width="512" height="288.257" fill="white"/>
<rect x="178.5" y="95.5" width="154" height="97.1767" rx="22.2059" stroke="#3E404C" stroke-width="7"/>
<path d="M204.997 165.206L216.476 124.861H225.226L236.705 165.206H229.488L220.851 132.816L212.214 165.206H204.997ZM212.043 155.66L213.975 149.352H227.727L229.659 155.66H212.043ZM242.535 165.206V124.861H255.321C258.086 124.861 260.53 125.391 262.651 126.452C264.772 127.513 266.42 128.99 267.595 130.884C268.769 132.779 269.356 135.033 269.356 137.646C269.356 140.222 268.769 142.458 267.595 144.352C266.42 146.246 264.772 147.723 262.651 148.784C260.53 149.807 258.086 150.318 255.321 150.318H249.582V165.206H242.535ZM249.582 143.897H254.582C257.12 143.897 258.995 143.367 260.208 142.306C261.458 141.207 262.083 139.654 262.083 137.646C262.083 135.563 261.458 133.991 260.208 132.93C258.995 131.869 257.12 131.339 254.582 131.339H249.582V143.897ZM276.266 165.206V158.728H285.472V131.339H276.266V124.861H301.723V131.339H292.518V158.728H301.723V165.206H276.266Z" fill="#151519"/>
</svg>
