<svg width="512" height="289" viewBox="0 0 512 289" fill="none" xmlns="http://www.w3.org/2000/svg">
<rect width="512" height="288.257" fill="white"/>
<g clip-path="url(#clip0_1_146)">
<mask id="mask0_1_146" style="mask-type:luminance" maskUnits="userSpaceOnUse" x="69" y="87" width="374" height="115">
<path d="M443 87H69V202H443V87Z" fill="white"/>
</mask>
<g mask="url(#mask0_1_146)">
<path d="M123.233 128.775C123.169 130.693 123.425 132.61 123.938 134.464C124.514 136.062 125.218 137.596 125.987 139.067C126.243 139.514 126.435 140.025 126.435 140.537C126.371 141.304 125.923 142.071 125.218 142.454L121.185 145.139C120.672 145.459 120.096 145.714 119.52 145.714C118.815 145.651 118.111 145.331 117.599 144.82C116.766 143.925 115.934 142.902 115.294 141.815C114.653 140.729 114.013 139.514 113.309 138.044C108.314 143.925 102.039 146.865 94.484 146.865C89.1054 146.865 84.8154 145.331 81.6779 142.263C78.5404 139.194 76.9397 135.103 76.9397 129.99C76.9397 124.556 78.8606 120.145 82.7664 116.821C86.6723 113.497 91.8587 111.835 98.4539 111.835C100.695 111.835 103 112.027 105.241 112.347C107.61 112.666 110.043 113.178 112.604 113.753V109.086C112.604 104.228 111.58 100.84 109.595 98.8587C107.61 96.8771 104.089 95.9182 99.1583 95.9182C96.853 95.9182 94.484 96.1739 92.2429 96.7492C89.8738 97.3245 87.5687 98.0277 85.3276 98.9226C84.6233 99.2422 83.8549 99.4979 83.0866 99.7536C82.7664 99.8815 82.3822 99.9454 82.0621 99.9454C81.1657 99.9454 80.7175 99.3062 80.7175 97.9638V94.8315C80.6534 94.0645 80.8455 93.2974 81.1657 92.5942C81.6779 92.0189 82.2542 91.5714 82.9585 91.2518C85.5197 89.9733 88.209 89.0145 91.0263 88.3753C94.2919 87.5443 97.6855 87.1607 101.015 87.1607C108.635 87.1607 114.205 88.8867 117.791 92.3385C121.377 95.7904 123.105 101.032 123.105 108.064V128.775H123.233ZM97.2372 138.491C99.4782 138.491 101.719 138.108 103.832 137.341C106.201 136.51 108.25 135.103 109.915 133.25C110.94 132.099 111.708 130.693 112.092 129.158C112.54 127.369 112.732 125.451 112.732 123.597V120.912C110.811 120.465 108.827 120.081 106.842 119.825C104.857 119.57 102.808 119.442 100.823 119.442C96.5329 119.442 93.3954 120.273 91.2824 121.999C89.1694 123.725 88.145 126.154 88.145 129.35C88.145 132.355 88.9133 134.592 90.5141 136.126C92.1148 137.66 94.2919 138.491 97.2372 138.491ZM148.653 145.395C147.821 145.459 146.925 145.267 146.22 144.756C145.58 144.053 145.068 143.222 144.876 142.263L129.829 92.8499C129.508 92.0189 129.316 91.1879 129.252 90.293C129.188 89.5259 129.7 88.8227 130.469 88.6949H137.128C138.345 88.6949 139.177 88.8867 139.625 89.3341C140.073 89.7816 140.522 90.6126 140.906 91.8271L151.599 134.144L161.588 91.8271C161.908 90.5487 162.292 89.7177 162.804 89.3341C163.572 88.8867 164.469 88.631 165.365 88.6949H170.488C171.704 88.6949 172.537 88.8867 173.049 89.3341C173.689 90.0373 174.137 90.8683 174.265 91.8271L184.382 134.656L195.46 91.8271C195.651 90.8683 196.1 90.0373 196.74 89.3341C197.508 88.8867 198.341 88.631 199.237 88.6949H205.192C205.96 88.567 206.665 89.1423 206.793 89.9094V90.293C206.793 90.6126 206.729 90.9961 206.665 91.3157C206.537 91.891 206.409 92.4024 206.217 92.9138L190.785 142.327C190.401 143.605 189.953 144.436 189.441 144.82C188.736 145.267 187.84 145.523 187.007 145.459H181.501C180.284 145.459 179.452 145.267 178.94 144.82C178.3 144.117 177.851 143.222 177.723 142.263L167.798 101.032L157.938 142.199C157.81 143.158 157.361 144.053 156.721 144.756C155.953 145.267 155.057 145.459 154.16 145.395H148.653ZM230.932 147.121C227.603 147.121 224.273 146.737 221.072 145.97C217.87 145.203 215.373 144.372 213.708 143.413C212.876 143.03 212.171 142.39 211.723 141.624C211.467 141.048 211.339 140.473 211.339 139.834V136.573C211.339 135.231 211.851 134.592 212.811 134.592C213.196 134.592 213.58 134.656 213.964 134.784C214.348 134.912 214.925 135.167 215.565 135.423C217.806 136.446 220.175 137.149 222.608 137.66C225.105 138.172 227.667 138.427 230.228 138.427C234.262 138.427 237.399 137.724 239.576 136.318C241.689 135.039 242.97 132.738 242.906 130.245C242.97 128.583 242.329 126.985 241.177 125.77C240.025 124.556 237.847 123.469 234.71 122.446L225.425 119.57C220.751 118.1 217.294 115.926 215.181 113.05C213.132 110.365 211.979 107.169 211.979 103.781C211.915 101.288 212.492 98.8587 213.708 96.6853C214.861 94.6398 216.397 92.8499 218.318 91.4436C220.303 89.9094 222.544 88.8227 224.977 88.1196C227.603 87.3525 230.292 86.9689 233.045 87.0329C234.454 87.0329 235.926 87.0968 237.335 87.2886C238.808 87.4803 240.153 87.736 241.497 87.9917C242.842 88.2474 243.994 88.631 245.147 89.0145C246.107 89.3341 247.004 89.7177 247.836 90.1651C248.604 90.5487 249.245 91.06 249.757 91.7632C250.205 92.4024 250.397 93.1056 250.333 93.8727V96.8771C250.333 98.2195 249.821 98.9226 248.861 98.9226C248.028 98.7948 247.196 98.5391 246.428 98.1555C242.586 96.4296 238.36 95.5986 234.134 95.6625C230.484 95.6625 227.603 96.2378 225.618 97.4524C223.633 98.6669 222.608 100.521 222.608 103.142C222.544 104.868 223.249 106.53 224.529 107.68C225.81 108.895 228.179 110.109 231.572 111.196L240.665 114.072C245.275 115.543 248.604 117.588 250.589 120.209C252.574 122.766 253.599 125.962 253.535 129.158C253.599 131.715 253.022 134.272 251.87 136.573C250.718 138.747 249.117 140.665 247.196 142.199C245.083 143.861 242.65 145.075 240.089 145.778C237.143 146.673 234.07 147.121 230.932 147.121Z" fill="black"/>
<path d="M243.034 178.187C221.968 193.72 191.361 201.967 165.045 201.967C128.164 201.967 94.9319 188.351 69.8321 165.722C67.8472 163.932 69.64 161.503 72.0092 162.909C99.158 178.635 132.646 188.159 167.286 188.159C192.258 188.031 216.973 182.981 239.96 173.329C243.482 171.731 246.491 175.63 243.034 178.187Z" fill="#FF9900"/>
<path d="M251.806 168.215C249.117 164.764 234.006 166.554 227.154 167.384C225.106 167.64 224.785 165.85 226.642 164.508C238.68 156.07 258.465 158.499 260.77 161.312C263.075 164.124 260.13 183.941 248.861 193.401C247.132 194.872 245.467 194.105 246.235 192.187C248.797 185.858 254.495 171.604 251.806 168.215Z" fill="#FF9900"/>
<path d="M363.922 158.883C364.562 160.162 365.523 161.248 366.676 162.079C367.894 162.91 369.237 163.549 370.71 163.869C372.246 164.253 373.847 164.444 375.448 164.444C376.666 164.444 377.816 164.316 379.035 164.189C380.25 163.997 381.469 163.677 382.619 163.102C383.707 162.591 384.667 161.823 385.373 160.928C386.141 159.906 386.526 158.691 386.461 157.413C386.526 156.006 385.948 154.664 384.988 153.705C383.9 152.682 382.557 151.915 381.148 151.34C379.417 150.637 377.627 150.125 375.768 149.678C373.785 149.231 371.733 148.655 369.685 148.08C367.574 147.569 365.523 146.929 363.474 146.162C361.553 145.459 359.697 144.436 358.096 143.158C356.496 141.943 355.215 140.409 354.254 138.619C353.229 136.574 352.719 134.337 352.781 132.035C352.719 129.414 353.359 126.793 354.702 124.492C355.92 122.383 357.584 120.529 359.57 119.123C361.618 117.653 363.922 116.63 366.356 115.926C368.855 115.223 371.413 114.904 373.974 114.904C376.856 114.904 379.675 115.223 382.491 115.862C385.118 116.438 387.549 117.525 389.728 119.059C391.841 120.529 393.57 122.447 394.785 124.684C396.066 127.241 396.706 130.117 396.641 132.994H384.605C384.54 131.524 384.157 130.117 383.517 128.839C382.939 127.752 382.106 126.857 381.083 126.218C379.995 125.579 378.842 125.131 377.627 124.876C376.216 124.62 374.807 124.492 373.399 124.492C372.374 124.492 371.351 124.62 370.39 124.812C369.43 125.004 368.469 125.387 367.636 125.899C366.803 126.41 366.163 127.113 365.653 127.88C365.075 128.775 364.82 129.798 364.882 130.885C364.82 131.844 365.075 132.738 365.523 133.569C366.163 134.464 366.996 135.104 368.022 135.487C369.685 136.19 371.413 136.766 373.144 137.213C375.32 137.788 378.202 138.555 381.724 139.45C382.746 139.642 384.22 140.026 386.141 140.601C388.127 141.176 389.983 142.071 391.711 143.222C393.632 144.5 395.298 146.098 396.514 148.016C397.859 150.062 398.562 152.618 398.562 155.815C398.562 158.308 398.052 160.737 397.026 163.038C396.001 165.275 394.465 167.257 392.544 168.791C390.368 170.517 387.869 171.796 385.18 172.563C381.851 173.522 378.457 173.969 375 173.905C371.926 173.905 368.917 173.522 365.908 172.754C363.092 172.051 360.465 170.837 358.162 169.111C355.92 167.449 354.062 165.339 352.781 162.846C351.373 160.034 350.733 156.965 350.861 153.833H362.899C362.834 155.687 363.219 157.349 363.922 158.883ZM422.32 139.77C423.663 139.706 424.943 139.386 426.162 138.875C427.312 138.427 428.338 137.661 429.105 136.702C429.938 135.615 430.321 134.273 430.259 132.93C430.259 130.565 429.491 128.711 427.89 127.497C426.351 126.218 424.43 125.579 422.447 125.579C419.566 125.579 417.452 126.538 415.979 128.392C414.443 130.437 413.737 132.93 413.868 135.487H403.175C403.237 132.802 403.75 130.181 404.71 127.688C405.606 125.451 406.886 123.342 408.615 121.616C410.346 119.89 412.329 118.547 414.57 117.717C417.067 116.758 419.693 116.31 422.32 116.31C424.561 116.31 426.802 116.63 428.978 117.269C431.154 117.908 433.14 118.931 434.934 120.209C436.662 121.488 438.135 123.15 439.223 125.004C440.374 126.985 440.952 129.287 440.886 131.588C440.952 134.081 440.246 136.574 438.965 138.683C437.622 140.793 435.574 142.263 433.14 142.902V143.094C435.956 143.669 438.518 145.203 440.311 147.505C442.105 149.87 443 152.746 442.935 155.623C443 158.308 442.425 160.992 441.272 163.358C440.184 165.595 438.645 167.513 436.724 169.047C434.741 170.581 432.562 171.796 430.131 172.499C427.632 173.266 425.008 173.713 422.382 173.713C419.5 173.777 416.619 173.266 413.868 172.371C411.434 171.54 409.193 170.197 407.334 168.472C405.478 166.682 404.07 164.572 403.175 162.143C402.149 159.394 401.701 156.518 401.764 153.577H412.457C412.522 154.984 412.715 156.454 413.162 157.796C413.548 159.075 414.188 160.226 415.018 161.312C415.851 162.271 416.812 163.102 417.965 163.613C419.308 164.253 420.719 164.508 422.189 164.508C424.561 164.572 426.864 163.741 428.593 162.207C430.321 160.673 431.219 158.499 431.219 155.815C431.219 153.705 430.834 152.107 430.001 151.021C429.233 149.934 428.145 149.103 426.864 148.591C425.521 148.08 424.11 147.824 422.702 147.76C421.166 147.696 419.758 147.632 418.412 147.632V139.77C419.693 139.898 421.039 139.898 422.32 139.77ZM309.369 88.2477H313.851V200.753H309.369V88.2477Z" fill="black"/>
</g>
</g>
<defs>
<clipPath id="clip0_1_146">
<rect width="374" height="115" fill="white" transform="translate(69 87)"/>
</clipPath>
</defs>
</svg>
