<svg width="512" height="289" viewBox="0 0 512 289" fill="none" xmlns="http://www.w3.org/2000/svg">
<style>
@media (prefers-color-scheme: dark) {
    path { fill: white; }
}
</style>
<path d="M136.51 130.347C136.452 132.073 136.683 133.799 137.144 135.468C137.663 136.906 138.297 138.287 138.988 139.61C139.219 140.013 139.392 140.473 139.392 140.933C139.334 141.623 138.93 142.314 138.297 142.659L134.666 145.075C134.205 145.363 133.686 145.593 133.168 145.593C132.534 145.535 131.9 145.248 131.439 144.788C130.69 143.982 129.941 143.062 129.364 142.084C128.788 141.106 128.212 140.013 127.578 138.689C123.083 143.982 117.436 146.629 110.636 146.629C105.795 146.629 101.934 145.248 99.1101 142.487C96.2864 139.725 94.8457 136.043 94.8457 131.441C94.8457 126.55 96.5745 122.581 100.09 119.589C103.605 116.597 108.273 115.102 114.208 115.102C116.225 115.102 118.3 115.274 120.317 115.562C122.449 115.85 124.639 116.31 126.944 116.828V112.628C126.944 108.255 126.022 105.206 124.236 103.423C122.449 101.639 119.28 100.776 114.842 100.776C112.768 100.776 110.636 101.007 108.619 101.524C106.486 102.042 104.412 102.675 102.395 103.48C101.761 103.768 101.069 103.998 100.378 104.228C100.09 104.343 99.744 104.401 99.4559 104.401C98.6491 104.401 98.2457 103.826 98.2457 102.617V99.7984C98.1881 99.108 98.361 98.4176 98.6491 97.7848C99.1101 97.267 99.6287 96.8643 100.263 96.5766C102.568 95.426 104.988 94.563 107.524 93.9877C110.463 93.2398 113.517 92.8946 116.513 92.8946C123.371 92.8946 128.385 94.448 131.612 97.5546C134.839 100.661 136.395 105.379 136.395 111.707V130.347H136.51ZM113.113 139.092C115.13 139.092 117.147 138.747 119.049 138.056C121.181 137.309 123.025 136.043 124.524 134.375C125.446 133.339 126.137 132.073 126.483 130.693C126.886 129.082 127.059 127.356 127.059 125.687V123.271C125.33 122.868 123.544 122.523 121.758 122.293C119.971 122.063 118.127 121.948 116.341 121.948C112.48 121.948 109.656 122.696 107.754 124.249C105.852 125.802 104.93 127.989 104.93 130.865C104.93 133.569 105.622 135.583 107.063 136.963C108.503 138.344 110.463 139.092 113.113 139.092ZM159.388 145.305C158.639 145.363 157.832 145.19 157.198 144.73C156.622 144.097 156.161 143.349 155.988 142.487L142.446 98.0149C142.158 97.267 141.985 96.5191 141.927 95.7136C141.869 95.0233 142.33 94.3904 143.022 94.2754H149.015C150.11 94.2754 150.859 94.448 151.263 94.8507C151.666 95.2534 152.069 96.0013 152.415 97.0944L162.039 135.18L171.029 97.0944C171.317 95.9438 171.663 95.1959 172.124 94.8507C172.815 94.448 173.622 94.2178 174.429 94.2754H179.039C180.134 94.2754 180.883 94.448 181.344 94.8507C181.92 95.4835 182.324 96.2314 182.439 97.0944L191.544 135.64L201.514 97.0944C201.686 96.2314 202.09 95.4835 202.666 94.8507C203.358 94.448 204.107 94.2178 204.914 94.2754H210.273C210.964 94.1603 211.598 94.6781 211.714 95.3685V95.7136C211.714 96.0013 211.656 96.3465 211.598 96.6341C211.483 97.1519 211.368 97.6122 211.195 98.0724L197.307 142.544C196.961 143.695 196.558 144.442 196.097 144.788C195.463 145.19 194.656 145.421 193.907 145.363H188.951C187.856 145.363 187.107 145.19 186.646 144.788C186.07 144.155 185.666 143.349 185.551 142.487L176.618 105.379L167.744 142.429C167.629 143.292 167.225 144.097 166.649 144.73C165.957 145.19 165.151 145.363 164.344 145.305H159.388ZM233.439 146.859C230.442 146.859 227.446 146.514 224.564 145.823C221.683 145.133 219.436 144.385 217.937 143.522C217.188 143.177 216.554 142.601 216.151 141.911C215.92 141.393 215.805 140.875 215.805 140.3V137.366C215.805 136.158 216.266 135.583 217.13 135.583C217.476 135.583 217.822 135.64 218.168 135.755C218.513 135.87 219.032 136.101 219.608 136.331C221.625 137.251 223.758 137.884 225.947 138.344C228.195 138.804 230.5 139.035 232.805 139.035C236.436 139.035 239.259 138.402 241.219 137.136C243.12 135.985 244.273 133.914 244.215 131.671C244.273 130.175 243.696 128.736 242.659 127.643C241.622 126.55 239.663 125.572 236.839 124.652L228.483 122.063C224.276 120.74 221.164 118.783 219.263 116.195C217.418 113.778 216.381 110.902 216.381 107.853C216.324 105.609 216.842 103.423 217.937 101.467C218.974 99.6258 220.358 98.0149 222.086 96.7492C223.873 95.3685 225.89 94.3904 228.08 93.7576C230.442 93.0672 232.863 92.722 235.341 92.7796C236.608 92.7796 237.934 92.8371 239.202 93.0097C240.527 93.1823 241.737 93.4124 242.947 93.6425C244.158 93.8727 245.195 94.2178 246.232 94.563C247.097 94.8507 247.903 95.1959 248.652 95.5986C249.344 95.9438 249.92 96.404 250.381 97.0369C250.785 97.6122 250.958 98.245 250.9 98.9354V101.639C250.9 102.847 250.439 103.48 249.574 103.48C248.825 103.365 248.076 103.135 247.385 102.79C243.927 101.237 240.124 100.489 236.32 100.546C233.035 100.546 230.442 101.064 228.656 102.157C226.87 103.25 225.947 104.919 225.947 107.277C225.89 108.831 226.524 110.327 227.676 111.362C228.829 112.455 230.961 113.548 234.015 114.526L242.198 117.115C246.347 118.438 249.344 120.279 251.13 122.638C252.917 124.939 253.839 127.816 253.781 130.693C253.839 132.994 253.32 135.295 252.283 137.366C251.246 139.322 249.805 141.048 248.076 142.429C246.175 143.925 243.985 145.018 241.68 145.651C239.029 146.456 236.263 146.859 233.439 146.859Z" fill="black"/>
<path d="M244.33 174.818C225.371 188.798 197.825 196.22 174.14 196.22C140.947 196.22 111.039 183.966 88.4489 163.6C86.6625 161.989 88.2761 159.803 90.4083 161.068C114.842 175.221 144.981 183.793 176.157 183.793C198.632 183.678 220.876 179.133 241.564 170.446C244.734 169.008 247.442 172.517 244.33 174.818Z" fill="#FF9900"/>
<path d="M252.225 165.844C249.805 162.737 236.205 164.348 230.039 165.096C228.195 165.326 227.907 163.715 229.578 162.507C240.412 154.913 258.219 157.099 260.293 159.631C262.368 162.162 259.717 179.997 249.575 188.511C248.019 189.835 246.52 189.144 247.212 187.418C249.517 181.723 254.646 168.893 252.225 165.844Z" fill="#FF9900"/>
<path d="M353.13 157.445C353.706 158.595 354.57 159.573 355.608 160.321C356.705 161.069 357.913 161.644 359.239 161.932C360.621 162.277 362.062 162.45 363.503 162.45C364.599 162.45 365.635 162.335 366.731 162.22C367.825 162.047 368.922 161.76 369.957 161.242C370.936 160.782 371.801 160.091 372.436 159.286C373.127 158.365 373.473 157.272 373.415 156.122C373.473 154.856 372.953 153.648 372.089 152.785C371.11 151.864 369.901 151.174 368.634 150.656C367.075 150.023 365.464 149.563 363.791 149.16C362.006 148.758 360.16 148.24 358.316 147.722C356.416 147.262 354.57 146.686 352.727 145.996C350.998 145.363 349.327 144.443 347.887 143.292C346.446 142.199 345.293 140.818 344.429 139.207C343.506 137.366 343.047 135.353 343.103 133.282C343.047 130.923 343.623 128.564 344.832 126.493C345.928 124.594 347.425 122.926 349.213 121.66C351.056 120.337 353.13 119.417 355.32 118.784C357.569 118.151 359.872 117.863 362.177 117.863C364.77 117.863 367.308 118.151 369.842 118.726C372.206 119.244 374.394 120.222 376.355 121.603C378.257 122.926 379.813 124.652 380.907 126.666C382.059 128.967 382.636 131.556 382.577 134.145H371.745C371.686 132.821 371.342 131.556 370.765 130.405C370.245 129.427 369.495 128.622 368.575 128.046C367.596 127.471 366.558 127.068 365.464 126.838C364.194 126.608 362.927 126.493 361.659 126.493C360.736 126.493 359.816 126.608 358.951 126.781C358.087 126.953 357.222 127.299 356.473 127.759C355.723 128.219 355.147 128.852 354.688 129.542C354.167 130.348 353.938 131.268 353.994 132.246C353.938 133.109 354.167 133.914 354.57 134.662C355.147 135.468 355.896 136.043 356.819 136.388C358.316 137.021 359.872 137.539 361.43 137.942C363.388 138.459 365.982 139.15 369.151 139.955C370.072 140.128 371.398 140.473 373.127 140.991C374.914 141.509 376.584 142.314 378.14 143.35C379.869 144.5 381.368 145.938 382.462 147.665C383.673 149.505 384.306 151.807 384.306 154.683C384.306 156.927 383.847 159.113 382.924 161.184C382.001 163.198 380.619 164.981 378.89 166.362C376.931 167.916 374.682 169.066 372.262 169.756C369.266 170.619 366.211 171.022 363.1 170.964C360.333 170.964 357.625 170.619 354.917 169.929C352.382 169.296 350.019 168.203 347.945 166.65C345.928 165.154 344.256 163.255 343.103 161.012C341.836 158.48 341.26 155.719 341.375 152.9H352.209C352.15 154.568 352.497 156.064 353.13 157.445ZM405.688 140.243C406.896 140.185 408.049 139.898 409.145 139.438C410.181 139.035 411.104 138.345 411.795 137.481C412.545 136.504 412.889 135.295 412.833 134.087C412.833 131.959 412.142 130.29 410.701 129.197C409.316 128.046 407.587 127.471 405.802 127.471C403.209 127.471 401.307 128.334 399.981 130.002C398.599 131.843 397.964 134.087 398.081 136.388H388.457C388.513 133.972 388.975 131.613 389.839 129.37C390.645 127.356 391.798 125.458 393.353 123.904C394.911 122.351 396.696 121.143 398.713 120.395C400.96 119.532 403.324 119.129 405.688 119.129C407.705 119.129 409.722 119.417 411.68 119.992C413.639 120.567 415.426 121.488 417.04 122.639C418.596 123.789 419.922 125.285 420.901 126.953C421.936 128.737 422.456 130.808 422.398 132.879C422.456 135.123 421.821 137.366 420.669 139.265C419.46 141.164 417.617 142.487 415.426 143.062V143.235C417.961 143.752 420.266 145.133 421.88 147.204C423.494 149.333 424.3 151.922 424.241 154.511C424.3 156.927 423.782 159.343 422.745 161.472C421.765 163.485 420.381 165.211 418.652 166.592C416.867 167.973 414.906 169.066 412.718 169.699C410.469 170.389 408.108 170.792 405.744 170.792C403.15 170.85 400.557 170.389 398.081 169.584C395.891 168.836 393.873 167.628 392.201 166.074C390.53 164.464 389.263 162.565 388.457 160.379C387.534 157.905 387.131 155.316 387.187 152.67H396.811C396.87 153.935 397.043 155.258 397.446 156.467C397.793 157.617 398.369 158.653 399.116 159.631C399.866 160.494 400.73 161.242 401.768 161.702C402.977 162.277 404.247 162.508 405.57 162.508C407.705 162.565 409.778 161.817 411.333 160.436C412.889 159.056 413.697 157.1 413.697 154.683C413.697 152.785 413.35 151.346 412.601 150.368C411.91 149.391 410.93 148.643 409.778 148.182C408.569 147.722 407.299 147.492 406.032 147.434C404.65 147.377 403.382 147.319 402.171 147.319V140.243C403.324 140.358 404.535 140.358 405.688 140.243ZM304.032 93.8729H308.066V195.128H304.032V93.8729Z" fill="black"/>
</svg>
