<svg width="512" height="289" viewBox="0 0 512 289" fill="none" xmlns="http://www.w3.org/2000/svg">
<rect width="512" height="288.257" fill="white"/>
<g clip-path="url(#clip0_1_61)">
<path fill-rule="evenodd" clip-rule="evenodd" d="M191.438 163.833H174.114V124.171H191.438C203.917 124.171 210.165 130.422 210.165 142.92C210.161 156.859 203.917 163.833 191.438 163.833ZM181.516 157.449H190.317C198.608 157.449 202.749 152.607 202.749 142.915C202.749 134.665 198.604 130.537 190.317 130.537H181.516V157.449Z" fill="#632CA6"/>
<path fill-rule="evenodd" clip-rule="evenodd" d="M217.919 163.833H210.314L227.281 124.171H235.244L252.572 163.833H244.61L239.579 153.017H226.781L229.324 146.637H237.624L231.084 131.74L217.919 163.833Z" fill="#632CA6"/>
<path fill-rule="evenodd" clip-rule="evenodd" d="M248.389 124.171H278.711V130.547H267.256V163.833H259.854V130.547H248.389V124.171Z" fill="#632CA6"/>
<path fill-rule="evenodd" clip-rule="evenodd" d="M282.519 163.833H274.913L291.88 124.171H299.843L317.172 163.833H309.2L304.169 153.017H291.371L293.914 146.637H302.214L295.679 131.74L282.519 163.833Z" fill="#632CA6"/>
<path fill-rule="evenodd" clip-rule="evenodd" d="M339.41 163.833H322.086V124.171H339.41C351.898 124.171 358.138 130.422 358.138 142.92C358.138 156.859 351.898 163.833 339.41 163.833ZM329.493 157.449H338.294C346.581 157.449 350.736 152.607 350.736 142.915C350.736 134.665 346.585 130.537 338.294 130.537H329.493V157.449Z" fill="#632CA6"/>
<path fill-rule="evenodd" clip-rule="evenodd" d="M363.154 144.058C363.154 130.607 369.848 123.886 383.225 123.886C396.399 123.886 402.977 130.607 402.977 144.058C402.977 157.43 396.394 164.119 383.225 164.119C370.441 164.119 363.752 157.43 363.154 144.058ZM383.225 157.725C391.267 157.725 395.292 153.114 395.292 143.883C395.292 134.798 391.267 130.252 383.225 130.252C374.971 130.252 370.844 134.798 370.844 143.883C370.844 153.114 374.971 157.725 383.225 157.725Z" fill="#632CA6"/>
<path fill-rule="evenodd" clip-rule="evenodd" d="M433.877 147.784V157.071C432.168 157.513 430.64 157.734 429.292 157.734C420.236 157.734 415.715 152.971 415.715 143.45C415.715 134.656 420.514 130.266 430.107 130.266C434.114 130.266 437.838 131.007 441.284 132.486V125.825C437.838 124.535 433.924 123.886 429.546 123.886C415.201 123.886 408.026 130.404 408.026 143.45C408.026 157.223 415.076 164.119 429.181 164.119C434.03 164.119 438.06 163.419 441.284 162.009V141.257H429.324L426.823 147.78L433.877 147.784Z" fill="#632CA6"/>
<path fill-rule="evenodd" clip-rule="evenodd" d="M144.19 163.608L136.376 158.485L129.859 169.311L122.28 167.109L115.606 177.238L115.948 180.426L152.232 173.779L150.124 151.235L144.19 163.608ZM110.353 153.893L116.175 153.096C117.116 153.515 117.773 153.676 118.904 153.962C120.664 154.418 122.697 154.855 125.713 153.344C126.412 152.999 127.876 151.668 128.464 150.912L152.315 146.61L154.747 175.893L113.887 183.218L110.353 153.893ZM154.654 143.339L152.301 143.786L147.78 97.3152L70.7158 106.201L80.2116 182.821L89.2303 181.518C88.5124 180.495 87.3867 179.256 85.4737 177.671C82.8149 175.479 83.7552 171.747 85.3255 169.393C87.396 165.418 98.0823 160.36 97.4755 154.003C97.2578 151.691 96.8872 148.683 94.7286 146.619C94.6499 147.476 94.7935 148.3 94.7935 148.3C94.7935 148.3 93.9088 147.176 93.4641 145.642C93.024 145.053 92.6812 144.868 92.2134 144.081C91.8799 144.988 91.9262 146.043 91.9262 146.043C91.9262 146.043 91.2036 144.339 91.0832 142.901C90.6524 143.546 90.5458 144.767 90.5458 144.767C90.5458 144.767 89.6055 142.081 89.8186 140.635C89.3878 139.377 88.114 136.881 88.4753 131.205C90.8284 132.845 96.0071 132.454 98.0221 129.496C98.6937 128.515 99.1523 125.843 97.6886 120.578C96.7482 117.202 94.4229 112.171 93.515 110.259L93.4085 110.338C93.8856 111.876 94.8722 115.096 95.2521 116.663C96.3962 121.403 96.7019 123.052 96.1646 125.235C95.706 127.133 94.6128 128.377 91.8336 129.768C89.0543 131.164 85.3672 127.769 85.1309 127.585C82.4304 125.447 80.3413 121.955 80.1097 120.26C79.8688 118.404 81.1844 117.289 81.8514 115.774C80.9018 116.045 79.8411 116.524 79.8411 116.524C79.8411 116.524 81.1056 115.221 82.6666 114.097C83.3151 113.673 83.6903 113.401 84.3712 112.839C83.3846 112.825 82.5833 112.848 82.5833 112.848C82.5833 112.848 84.2277 111.964 85.9323 111.324C84.6862 111.268 83.4911 111.314 83.4911 111.314C83.4911 111.314 87.1598 109.684 90.0548 108.486C92.0466 107.675 93.9921 107.915 95.0853 109.486C96.5213 111.545 98.0267 112.664 101.223 113.36C103.187 112.494 103.78 112.051 106.244 111.383C108.412 109.011 110.116 108.702 110.116 108.702C110.116 108.702 109.273 109.472 109.046 110.683C110.279 109.721 111.627 108.914 111.627 108.914C111.627 108.914 111.103 109.555 110.617 110.573L110.728 110.739C112.164 109.882 113.85 109.209 113.85 109.209C113.85 109.209 113.368 109.817 112.803 110.6C113.887 110.591 116.083 110.646 116.93 110.743C121.961 110.854 123.003 105.4 124.935 104.718C127.353 103.861 128.432 103.34 132.55 107.362C136.084 110.817 138.845 116.994 137.474 118.381C136.325 119.528 134.055 117.934 131.545 114.815C130.215 113.166 129.215 111.218 128.742 108.739C128.344 106.648 126.801 105.436 126.801 105.436C126.801 105.436 127.695 107.422 127.695 109.172C127.695 110.131 127.816 113.705 129.358 115.709C129.205 116.004 129.136 117.16 128.965 117.381C127.172 115.225 123.318 113.682 122.693 113.226C124.819 114.958 129.706 118.938 131.582 122.752C133.356 126.359 132.309 129.667 133.208 130.524C133.462 130.768 137.024 135.181 137.71 137.401C138.905 141.266 137.779 145.329 136.218 147.849L131.85 148.526C131.211 148.351 130.78 148.259 130.206 147.932C130.521 147.374 131.151 145.988 131.156 145.702L130.91 145.274C129.548 147.19 127.274 149.051 125.379 150.12C122.901 151.516 120.048 151.299 118.19 150.728C112.914 149.111 107.926 145.564 106.726 144.633C106.726 144.633 106.689 145.375 106.916 145.545C108.245 147.038 111.293 149.737 114.239 151.617L107.963 152.303L110.932 175.285C109.616 175.474 109.412 175.566 107.972 175.769C106.703 171.31 104.275 168.394 101.621 166.699C99.282 165.202 96.0534 164.865 92.9592 165.473L92.76 165.704C94.9093 165.483 97.4477 165.791 100.051 167.431C102.608 169.039 104.669 173.194 105.429 175.695C106.402 178.892 107.073 182.31 104.456 185.935C102.594 188.511 97.1651 189.934 92.7739 186.857C93.9458 188.732 95.53 190.266 97.6608 190.551C100.829 190.98 103.835 190.431 105.901 188.322C107.666 186.516 108.606 182.739 108.356 178.763L111.149 178.362L112.159 185.498L158.425 179.956L154.654 143.339ZM126.505 123.955C126.375 124.25 126.171 124.438 126.477 125.392L126.496 125.447L126.542 125.572L126.667 125.857C127.218 126.972 127.82 128.027 128.826 128.566C129.085 128.524 129.358 128.492 129.636 128.478C130.581 128.437 131.179 128.584 131.559 128.792C131.591 128.603 131.6 128.331 131.577 127.926C131.503 126.511 131.86 124.107 129.127 122.84C128.094 122.365 126.648 122.508 126.167 123.107C126.255 123.116 126.333 123.135 126.394 123.158C127.13 123.407 126.639 123.655 126.505 123.955ZM134.166 137.152C133.81 136.954 132.133 137.033 130.956 137.171C128.714 137.433 126.292 138.207 125.759 138.617C124.796 139.359 125.231 140.653 125.944 141.183C127.945 142.666 129.696 143.666 131.545 143.422C132.679 143.274 133.68 141.487 134.389 139.861C134.88 138.746 134.88 137.544 134.166 137.152ZM114.309 125.705C114.943 125.106 111.159 124.323 108.222 126.313C106.059 127.783 105.989 130.934 108.06 132.716C108.268 132.891 108.44 133.02 108.597 133.122C109.204 132.836 109.894 132.55 110.686 132.297C112.03 131.864 113.141 131.638 114.058 131.523C114.498 131.035 115.008 130.178 114.878 128.626C114.707 126.511 113.1 126.848 114.309 125.705Z" fill="#632CA6"/>
</g>
<defs>
<clipPath id="clip0_1_61">
<rect width="370.8" height="93.6" fill="white" transform="translate(70.6 97.2)"/>
</clipPath>
</defs>
</svg>
