<svg width="512" height="289" viewBox="0 0 512 289" fill="none" xmlns="http://www.w3.org/2000/svg">
<rect width="512" height="288.257" fill="white"/>
<g clip-path="url(#clip0_1_61)">
<path fill-rule="evenodd" clip-rule="evenodd" d="M184.264 166.037H165.015V121.968H184.264C198.13 121.968 205.073 128.914 205.073 142.8C205.067 158.288 198.13 166.037 184.264 166.037ZM173.24 158.943H183.019C192.231 158.943 196.833 153.564 196.833 142.795C196.833 133.628 192.226 129.042 183.019 129.042H173.24V158.943Z" fill="#632CA6"/>
<path fill-rule="evenodd" clip-rule="evenodd" d="M213.688 166.037H205.237L224.09 121.968H232.937L252.191 166.037H243.344L237.755 154.019H223.534L226.36 146.93H235.583L228.315 130.377L213.688 166.037Z" fill="#632CA6"/>
<path fill-rule="evenodd" clip-rule="evenodd" d="M247.544 121.968H281.235V129.052H268.507V166.037H260.282V129.052H247.544V121.968Z" fill="#632CA6"/>
<path fill-rule="evenodd" clip-rule="evenodd" d="M285.465 166.037H277.014L295.867 121.968H304.714L323.968 166.037H315.111L309.521 154.019H295.301L298.126 146.93H307.349L300.087 130.377L285.465 166.037Z" fill="#632CA6"/>
<path fill-rule="evenodd" clip-rule="evenodd" d="M348.678 166.037H329.429V121.968H348.678C362.554 121.968 369.487 128.914 369.487 142.8C369.487 158.288 362.554 166.037 348.678 166.037ZM337.659 158.943H347.438C356.645 158.943 361.262 153.564 361.262 142.795C361.262 133.628 356.65 129.042 347.438 129.042H337.659V158.943Z" fill="#632CA6"/>
<path fill-rule="evenodd" clip-rule="evenodd" d="M375.061 144.064C375.061 129.118 382.498 121.651 397.362 121.651C411.999 121.651 419.307 129.118 419.307 144.064C419.307 158.923 411.994 166.354 397.362 166.354C383.156 166.354 375.724 158.923 375.061 144.064ZM397.362 159.25C406.296 159.25 410.769 154.127 410.769 143.869C410.769 133.776 406.296 128.724 397.362 128.724C388.19 128.724 383.604 133.776 383.604 143.869C383.604 154.127 388.19 159.25 397.362 159.25Z" fill="#632CA6"/>
<path fill-rule="evenodd" clip-rule="evenodd" d="M453.642 148.205V158.523C451.742 159.015 450.044 159.26 448.546 159.26C438.484 159.26 433.461 153.968 433.461 143.388C433.461 133.617 438.793 128.74 449.452 128.74C453.904 128.74 458.042 129.564 461.871 131.207V123.805C458.042 122.372 453.693 121.651 448.829 121.651C432.89 121.651 424.917 128.893 424.917 143.388C424.917 158.692 432.751 166.354 448.423 166.354C453.811 166.354 458.289 165.576 461.871 164.01V140.952H448.582L445.803 148.2L453.642 148.205Z" fill="#632CA6"/>
<path fill-rule="evenodd" clip-rule="evenodd" d="M131.767 165.786L123.084 160.095L115.843 172.123L107.423 169.676L100.006 180.932L100.387 184.473L140.702 177.088L138.36 152.038L131.767 165.786ZM94.1697 154.992L100.639 154.106C101.684 154.572 102.415 154.751 103.671 155.068C105.626 155.575 107.886 156.061 111.236 154.383C112.014 153.999 113.64 152.52 114.294 151.68L140.794 146.9L143.496 179.437L98.0967 187.575L94.1697 154.992ZM143.394 143.266L140.779 143.762L135.756 92.128L50.1287 102.001L60.6796 187.135L70.7004 185.686C69.9026 184.55 68.6519 183.173 66.5263 181.413C63.5721 178.976 64.6169 174.83 66.3616 172.215C68.6622 167.798 80.5359 162.178 79.8616 155.115C79.6197 152.545 79.208 149.203 76.8096 146.91C76.7221 147.862 76.8817 148.778 76.8817 148.778C76.8817 148.778 75.8986 147.529 75.4045 145.825C74.9156 145.17 74.5347 144.965 74.0149 144.09C73.6443 145.098 73.6958 146.27 73.6958 146.27C73.6958 146.27 72.8929 144.376 72.7591 142.779C72.2804 143.496 72.1621 144.852 72.1621 144.852C72.1621 144.852 71.1173 141.868 71.354 140.261C70.8754 138.864 69.46 136.09 69.8614 129.784C72.476 131.606 78.2301 131.171 80.469 127.885C81.2152 126.795 81.7248 123.826 80.0984 117.976C79.0536 114.224 76.4699 108.635 75.4611 106.511L75.3428 106.598C75.8729 108.307 76.9691 111.885 77.3912 113.625C78.6624 118.892 79.0021 120.724 78.4051 123.15C77.8956 125.259 76.6809 126.641 73.5929 128.187C70.5048 129.738 66.4079 125.965 66.1455 125.761C63.1449 123.386 60.8237 119.506 60.5663 117.623C60.2987 115.56 61.7604 114.321 62.5015 112.637C61.4464 112.939 60.2678 113.472 60.2678 113.472C60.2678 113.472 61.6729 112.023 63.4074 110.774C64.1279 110.303 64.5448 110.001 65.3014 109.377C64.2051 109.361 63.3147 109.387 63.3147 109.387C63.3147 109.387 65.1418 108.404 67.0359 107.693C65.6514 107.631 64.3235 107.683 64.3235 107.683C64.3235 107.683 68.3998 105.871 71.6165 104.54C73.8296 103.639 75.9913 103.905 77.2059 105.651C78.8014 107.939 80.4741 109.182 84.0254 109.955C86.2076 108.993 86.8664 108.502 89.6045 107.759C92.0132 105.123 93.9072 104.781 93.9072 104.781C93.9072 104.781 92.9705 105.635 92.7183 106.981C94.0873 105.912 95.5851 105.016 95.5851 105.016C95.5851 105.016 95.0035 105.727 94.4631 106.859L94.5866 107.043C96.1821 106.091 98.0555 105.344 98.0555 105.344C98.0555 105.344 97.5203 106.019 96.8923 106.889C98.0967 106.879 100.536 106.94 101.478 107.048C107.068 107.171 108.226 101.111 110.372 100.353C113.058 99.4012 114.258 98.8228 118.833 103.291C122.76 107.13 125.828 113.994 124.304 115.534C123.028 116.809 120.506 115.038 117.716 111.573C116.239 109.74 115.127 107.575 114.602 104.821C114.16 102.498 112.446 101.152 112.446 101.152C112.446 101.152 113.439 103.358 113.439 105.303C113.439 106.367 113.573 110.339 115.287 112.566C115.117 112.893 115.04 114.178 114.849 114.424C112.858 112.028 108.576 110.313 107.881 109.807C110.243 111.731 115.673 116.154 117.757 120.392C119.729 124.399 118.565 128.074 119.564 129.026C119.847 129.298 123.805 134.201 124.567 136.668C125.894 140.962 124.644 145.477 122.909 148.276L118.056 149.029C117.346 148.834 116.867 148.732 116.229 148.369C116.579 147.749 117.279 146.209 117.284 145.891L117.011 145.415C115.498 147.544 112.971 149.612 110.866 150.8C108.112 152.351 104.942 152.11 102.878 151.475C97.0159 149.679 91.4728 145.738 90.1398 144.704C90.1398 144.704 90.0986 145.528 90.3508 145.717C91.8279 147.376 95.2145 150.375 98.4878 152.463L91.514 153.226L94.813 178.761C93.3514 178.971 93.1249 179.074 91.5243 179.299C90.114 174.344 87.4171 171.104 84.468 169.221C81.8689 167.557 78.2816 167.184 74.8435 167.859L74.6222 168.115C77.0103 167.869 79.8308 168.212 82.7233 170.035C85.5643 171.821 87.8546 176.438 88.6987 179.217C89.7795 182.769 90.5258 186.567 87.6178 190.595C85.5488 193.456 79.5168 195.038 74.6377 191.619C75.9398 193.702 77.7 195.406 80.0675 195.724C83.5879 196.2 86.9282 195.591 89.2236 193.246C91.1846 191.24 92.2294 187.043 91.9514 182.626L95.0549 182.18L96.1769 190.109L147.583 183.951L143.394 143.266ZM112.117 121.727C111.972 122.055 111.746 122.265 112.086 123.324L112.106 123.386L112.158 123.524L112.297 123.841C112.909 125.08 113.578 126.252 114.695 126.851C114.983 126.805 115.287 126.769 115.596 126.754C116.646 126.708 117.31 126.871 117.732 127.102C117.768 126.892 117.778 126.59 117.752 126.139C117.67 124.568 118.066 121.896 115.03 120.489C113.882 119.962 112.276 120.12 111.741 120.786C111.839 120.796 111.926 120.816 111.993 120.842C112.811 121.118 112.266 121.395 112.117 121.727ZM120.629 136.392C120.233 136.171 118.37 136.258 117.063 136.412C114.572 136.704 111.88 137.564 111.288 138.019C110.217 138.843 110.701 140.282 111.494 140.87C113.717 142.518 115.663 143.629 117.716 143.358C118.977 143.194 120.089 141.208 120.876 139.401C121.422 138.163 121.422 136.827 120.629 136.392ZM98.5651 123.672C99.2702 123.007 95.0652 122.137 91.8022 124.348C89.3986 125.981 89.3214 129.482 91.622 131.463C91.8536 131.657 92.0441 131.8 92.2191 131.913C92.8933 131.596 93.6602 131.278 94.5403 130.997C96.0328 130.516 97.2681 130.265 98.2871 130.137C98.7761 129.594 99.3422 128.642 99.1981 126.917C99.0077 124.568 97.2217 124.942 98.5651 123.672Z" fill="#632CA6"/>
</g>
<defs>
<clipPath id="clip0_1_61">
<rect width="412" height="104" fill="white" transform="translate(50 92)"/>
</clipPath>
</defs>
</svg>
