<svg width="512" height="289" viewBox="0 0 512 289" fill="none" xmlns="http://www.w3.org/2000/svg">
<style>
@media (prefers-color-scheme: dark) {
    path { fill: white; }
}
</style>
<path d="M103.988 146.536C107.875 148.778 109.818 149.899 111.953 149.901C114.087 149.903 116.032 148.785 119.922 146.55L144.722 132.303C145.842 131.66 146.532 130.467 146.532 129.177C146.532 127.886 145.842 126.694 144.722 126.051L119.913 111.798C116.027 109.566 114.084 108.449 111.952 108.45C109.82 108.451 107.878 109.569 103.993 111.805L82.6656 124.079C82.5076 124.17 82.4286 124.215 82.3548 124.259C75.0697 128.521 70.5686 136.302 70.5084 144.739C70.5078 144.824 70.5078 144.915 70.5078 145.098C70.5078 145.28 70.5078 145.371 70.5084 145.456C70.5685 153.883 75.0595 161.657 82.3318 165.923C82.4052 165.966 82.4842 166.012 82.6419 166.103L96.0013 173.811C103.786 178.303 107.678 180.549 111.952 180.551C116.227 180.552 120.12 178.309 127.908 173.822L142.011 165.697C145.91 163.451 147.859 162.327 148.93 160.476C150.001 158.624 150.001 156.375 150.001 151.876V143.187C150.001 141.939 149.324 140.789 148.234 140.182C147.178 139.594 145.891 139.603 144.844 140.204L115.926 156.817C113.986 157.932 113.016 158.489 111.951 158.49C110.887 158.49 109.916 157.933 107.975 156.82L88.4034 145.592C87.423 145.029 86.9327 144.748 86.539 144.697C85.6413 144.581 84.7782 145.084 84.4362 145.922C84.2863 146.289 84.2894 146.854 84.2954 147.984C84.2999 148.815 84.3021 149.231 84.3799 149.614C84.5541 150.47 85.005 151.246 85.6634 151.821C85.9574 152.078 86.3178 152.286 87.0386 152.702L107.964 164.772C109.91 165.895 110.883 166.456 111.952 166.456C113.02 166.457 113.993 165.896 115.94 164.775L141.589 149.998C142.254 149.615 142.586 149.424 142.835 149.568C143.085 149.712 143.085 150.095 143.085 150.862V154.804C143.085 155.928 143.085 156.49 142.817 156.953C142.549 157.416 142.062 157.697 141.087 158.259L119.932 170.446C116.037 172.69 114.09 173.812 111.952 173.811C109.814 173.81 107.868 172.686 103.976 170.439L84.183 159.012C84.1202 158.976 84.0888 158.958 84.0594 158.941C79.9094 156.517 77.3487 152.083 77.3247 147.28C77.3245 147.246 77.3245 147.209 77.3245 147.137V143.519C77.3245 140.867 78.7377 138.416 81.0334 137.086C83.0619 135.911 85.564 135.909 87.5948 137.08L103.988 146.536Z" fill="#181C1F"/>
<path d="M202.835 163.146C190.034 163.146 182.312 155.532 182.312 144.5C182.312 133.623 190.086 125.854 202.887 125.854C214.495 125.854 220.767 131.447 221.285 138.802H213.77C213.407 135.85 210.816 132.173 203.302 132.173H202.473C194.698 132.173 189.516 136.679 189.516 144.5C189.516 152.321 194.802 156.827 202.473 156.827H203.302C210.868 156.827 214.962 153.305 214.962 150.352V149.938H203.042V143.619H216.879C220.041 143.619 221.804 145.432 221.804 148.591V162.628H214.962V158.588C213.563 160.349 209.884 163.146 202.835 163.146Z" fill="#181C1F"/>
<path d="M233.277 162.628H226.125V126.372H233.277V162.628Z" fill="#181C1F"/>
<path d="M258.641 162.628H251.49V132.691H236.875V126.372H273.256V132.691H258.641V162.628Z" fill="#181C1F"/>
<path d="M298.092 162.628H276.844V126.372H297.471C303.949 126.372 308.924 129.998 308.924 135.954C308.924 140.098 306.281 143.05 303.171 144.19C306.902 145.018 309.805 148.074 309.805 152.787C309.805 158.796 304.57 162.628 298.092 162.628ZM283.996 132.691V141.082H296.693C299.855 141.082 301.72 139.631 301.72 136.731C301.72 134.348 299.855 132.691 296.693 132.691H283.996ZM283.996 147.401V156.309H297.056C300.476 156.309 302.602 154.548 302.602 151.803C302.602 148.851 300.476 147.401 297.056 147.401H283.996Z" fill="#181C1F"/>
<path d="M333.451 163.146C321.686 163.146 312.875 156.102 312.875 144.5C312.875 132.898 321.686 125.854 333.451 125.854C345.214 125.854 353.973 132.898 353.973 144.5C353.973 156.102 345.214 163.146 333.451 163.146ZM333.036 156.827H333.864C340.861 156.827 346.769 152.321 346.769 144.5C346.769 136.679 340.861 132.173 333.864 132.173H333.036C326.039 132.173 320.079 136.679 320.079 144.5C320.079 152.321 326.039 156.827 333.036 156.827Z" fill="#181C1F"/>
<path d="M377.231 163.146C365.466 163.146 356.656 156.102 356.656 144.5C356.656 132.898 365.466 125.854 377.231 125.854C388.995 125.854 397.753 132.898 397.753 144.5C397.753 156.102 388.995 163.146 377.231 163.146ZM376.816 156.827H377.646C384.641 156.827 390.55 152.321 390.55 144.5C390.55 136.679 384.641 132.173 377.646 132.173H376.816C369.82 132.173 363.859 136.679 363.859 144.5C363.859 152.321 369.82 156.827 376.816 156.827Z" fill="#181C1F"/>
<path d="M438.018 162.628H428.586L413.763 146.261L408.581 150.664V162.628H401.43V126.372H408.581V142.377L427.29 126.372H437.188L419.05 141.807L438.018 162.628Z" fill="#181C1F"/>
</svg>
