<svg width="512" height="289" viewBox="0 0 512 289" fill="none" xmlns="http://www.w3.org/2000/svg">
<style>@media (prefers-color-scheme: dark) { path { fill: white; }}</style>
<path d="M135.587 105C113.136 105 95 123.088 95 145.479C95 163.392 106.621 178.583 122.733 183.939C124.758 184.29 125.55 183.061 125.55 182.007C125.55 181.041 125.462 177.88 125.462 174.456C115.249 176.3 112.608 171.997 111.816 169.714C111.376 168.573 109.351 164.972 107.678 164.007C106.269 163.216 104.244 161.372 107.59 161.284C110.759 161.197 113.048 164.182 113.841 165.411C117.538 171.558 123.349 169.802 125.638 168.748C125.99 166.114 127.047 164.358 128.191 163.304C119.123 162.25 109.703 158.826 109.703 143.284C109.703 138.894 111.287 135.206 113.841 132.396C113.4 131.342 111.992 127.215 114.281 121.683C114.281 121.683 117.714 120.63 125.462 125.81C128.719 124.932 132.153 124.405 135.587 124.405C139.02 124.405 142.454 124.844 145.711 125.81C153.459 120.542 156.892 121.683 156.892 121.683C159.093 127.215 157.685 131.43 157.333 132.396C159.886 135.206 161.471 138.806 161.471 143.284C161.471 158.826 151.962 162.25 142.894 163.304C144.391 164.533 145.623 166.992 145.623 170.768C145.623 176.212 145.535 180.514 145.535 181.919C145.535 182.973 146.328 184.29 148.352 183.851C164.376 178.495 175.997 163.304 175.997 145.391C176.261 123.088 158.037 105 135.587 105Z" fill="#1B1F24"/>
<path d="M289.818 164.689H289.73C289.818 164.689 289.818 164.689 289.818 164.689ZM289.818 164.689C289.378 164.689 288.235 164.956 287.004 164.956C283.136 164.956 281.817 163.178 281.817 160.867V145.312H289.642C290.081 145.312 290.433 144.956 290.433 144.334V135.89C290.433 135.445 290.081 135.09 289.642 135.09H281.817V124.69C281.817 124.334 281.554 124.068 281.114 124.068H270.564C270.124 124.068 269.861 124.334 269.861 124.69V135.445C269.861 135.445 264.498 136.778 264.146 136.867C263.794 136.956 263.531 137.312 263.531 137.667V144.423C263.531 144.956 263.882 145.401 264.322 145.401H269.773V161.667C269.773 173.756 278.125 175 283.839 175C286.477 175 289.554 174.2 290.081 173.933C290.345 173.844 290.521 173.489 290.521 173.133V165.667C290.609 165.134 290.257 164.778 289.818 164.689ZM406.043 153.845C406.043 144.867 402.439 143.712 398.658 144.067C395.757 144.245 393.383 145.756 393.383 145.756V163.178C393.383 163.178 395.757 164.867 399.362 164.956C404.461 165.134 406.043 163.267 406.043 153.845ZM418 153.045C418 170.022 412.549 174.911 403.054 174.911C395.054 174.911 390.658 170.822 390.658 170.822C390.658 170.822 390.482 173.133 390.218 173.4C390.043 173.667 389.867 173.756 389.515 173.756H382.218C381.691 173.756 381.251 173.4 381.251 172.956L381.339 117.845C381.339 117.401 381.691 117.046 382.13 117.046H392.592C393.032 117.046 393.383 117.401 393.383 117.845L393.295 136.423C393.295 136.423 397.34 133.756 403.23 133.756H403.318C409.296 133.756 418 135.978 418 153.045ZM375.185 135.09H364.898C364.371 135.09 364.107 135.445 364.107 136.067V163C364.107 163 361.382 164.956 357.689 164.956C353.997 164.956 352.942 163.267 352.942 159.534V135.978C352.942 135.534 352.59 135.179 352.151 135.179H341.688C341.249 135.179 340.897 135.534 340.897 135.978V161.311C340.897 172.244 346.963 174.911 355.228 174.911C362.085 174.911 367.624 171.089 367.624 171.089C367.624 171.089 367.888 173.044 367.976 173.311C368.063 173.578 368.415 173.756 368.767 173.756H375.361C375.888 173.756 376.152 173.4 376.152 172.956L376.24 135.89C376.152 135.534 375.712 135.09 375.185 135.09ZM258.959 135.09H248.497C248.057 135.09 247.706 135.534 247.706 136.067V172.422C247.706 173.4 248.321 173.756 249.2 173.756H258.607C259.574 173.756 259.838 173.311 259.838 172.422V135.89C259.838 135.445 259.399 135.09 258.959 135.09ZM253.86 118.29C250.079 118.29 247.09 121.312 247.09 125.134C247.09 128.956 250.079 131.979 253.86 131.979C257.552 131.979 260.542 128.956 260.542 125.134C260.542 121.312 257.552 118.29 253.86 118.29ZM334.743 117.046H324.369C323.929 117.046 323.578 117.401 323.578 117.845V138.112H307.313V117.934C307.313 117.49 306.961 117.134 306.522 117.134H296.06C295.62 117.134 295.269 117.49 295.269 117.934V173.044C295.269 173.489 295.708 173.844 296.06 173.844H306.522C306.961 173.844 307.313 173.489 307.313 173.044V149.4H323.578L323.49 172.956C323.49 173.4 323.841 173.756 324.281 173.756H334.743C335.183 173.756 335.534 173.4 335.534 172.956V117.845C335.534 117.49 335.183 117.046 334.743 117.046ZM242.167 141.49V169.933C242.167 170.111 242.079 170.467 241.903 170.556C241.903 170.556 235.749 175 225.639 175C213.418 175 199 171.089 199 145.667C199 120.157 211.66 114.912 223.968 115.001C234.694 115.001 239.002 117.401 239.617 117.845C239.793 118.112 239.881 118.29 239.881 118.557L237.859 127.356C237.859 127.801 237.42 128.334 236.892 128.156C235.134 127.623 232.496 126.556 226.254 126.556C219.045 126.556 211.308 128.601 211.308 145.045C211.308 161.489 218.693 163.356 223.968 163.356C228.452 163.356 230.122 162.822 230.122 162.822V151.445H222.913C222.386 151.445 221.946 151.089 221.946 150.645V141.49C221.946 141.045 222.298 140.69 222.913 140.69H241.288C241.815 140.601 242.167 141.045 242.167 141.49Z" fill="#1B1F24"/>
</svg>
