<svg width="512" height="290" viewBox="0 0 512 290" fill="none" xmlns="http://www.w3.org/2000/svg">
<style>
@media (prefers-color-scheme: dark) {
    path { fill: white; }
}
</style>
<path fill-rule="evenodd" clip-rule="evenodd" d="M80.8993 112.918C80.4048 113.472 80.4376 114.322 80.9571 114.851L145.162 180.291C145.681 180.82 146.515 180.854 147.058 180.35C156.473 171.618 162.382 159.03 162.382 145.035C162.382 118.672 141.414 97.3 115.548 97.3C101.817 97.3 89.4658 103.323 80.8993 112.918ZM72.8747 125.337C72.6375 125.871 72.7571 126.496 73.1633 126.91L133.331 188.234C133.737 188.648 134.35 188.77 134.873 188.529C136.263 187.886 137.617 187.176 138.93 186.403C139.711 185.944 139.831 184.858 139.193 184.209L77.1131 120.935C76.4757 120.285 75.4105 120.407 74.9598 121.202C74.2016 122.541 73.5052 123.921 72.8747 125.337ZM69.2246 142.897C68.9428 142.61 68.793 142.215 68.8195 141.809C68.9437 139.912 69.1767 138.045 69.5122 136.214C69.7134 135.117 71.0292 134.736 71.8038 135.525L124.878 189.62C125.653 190.41 125.279 191.751 124.202 191.956C122.406 192.298 120.574 192.535 118.712 192.662C118.315 192.689 117.927 192.536 117.645 192.249L69.2246 142.897ZM72.4816 156.218C71.5146 155.232 69.9541 156.082 70.3083 157.428C74.6229 173.83 87.2957 186.747 103.388 191.144C104.709 191.505 105.543 189.915 104.576 188.929L72.4816 156.218ZM257.499 123.568C260.857 123.568 263.578 120.785 263.578 117.351C263.578 113.917 260.857 111.133 257.499 111.133C254.143 111.133 251.422 113.917 251.422 117.351C251.422 120.785 254.143 123.568 257.499 123.568ZM205.438 177.793V111.137H216.24V168.041H245.363V177.793H205.438ZM282.318 150.594V177.793H271.866V130.552H282.186V138.649L282.318 138.56C283.367 136.025 285.058 133.907 287.391 132.207C289.722 130.478 292.696 129.613 296.312 129.613C299.518 129.613 302.433 130.343 305.058 131.805C307.681 133.236 309.78 135.339 311.354 138.112C312.928 140.886 313.716 144.286 313.716 148.312V177.793H303.264V149.789C303.264 146.21 302.331 143.496 300.466 141.647C298.629 139.768 296.166 138.828 293.075 138.828C291.093 138.828 289.285 139.246 287.653 140.081C286.02 140.916 284.723 142.198 283.761 143.928C282.799 145.658 282.318 147.88 282.318 150.594ZM376.952 176.988C379.342 178.032 382.083 178.554 385.173 178.554C387.709 178.554 389.881 178.226 391.688 177.57C393.497 176.884 394.983 175.974 396.149 174.841C397.344 173.707 398.292 172.47 398.992 171.128H399.167V177.793H409.181V145.27C409.181 142.974 408.743 140.871 407.869 138.963C406.995 137.054 405.726 135.399 404.064 133.997C402.432 132.595 400.449 131.521 398.117 130.776C395.785 130 393.161 129.613 390.246 129.613C386.252 129.613 382.797 130.314 379.881 131.715C376.995 133.087 374.736 134.936 373.103 137.263C371.471 139.589 370.581 142.213 370.435 145.136H380.538C380.654 143.764 381.121 142.541 381.937 141.468C382.753 140.394 383.861 139.559 385.261 138.963C386.66 138.336 388.277 138.023 390.115 138.023C391.951 138.023 393.511 138.336 394.794 138.963C396.105 139.589 397.111 140.439 397.811 141.512C398.511 142.586 398.861 143.839 398.861 145.27V145.628C398.861 146.702 398.496 147.492 397.768 147.999C397.067 148.506 395.872 148.879 394.182 149.118C392.519 149.356 390.246 149.639 387.359 149.968C384.998 150.236 382.724 150.639 380.538 151.175C378.351 151.712 376.398 152.503 374.677 153.546C372.987 154.59 371.646 155.977 370.654 157.707C369.663 159.437 369.168 161.659 369.168 164.372C369.168 167.504 369.867 170.129 371.267 172.246C372.666 174.334 374.561 175.914 376.952 176.988ZM393.876 169.07C392.184 169.994 390.1 170.457 387.622 170.457C385.115 170.457 383.117 169.92 381.631 168.846C380.144 167.743 379.4 166.237 379.4 164.328C379.4 162.837 379.808 161.629 380.625 160.704C381.471 159.78 382.578 159.049 383.948 158.512C385.319 157.975 386.805 157.603 388.408 157.394C389.575 157.215 390.712 157.036 391.82 156.857C392.927 156.648 393.963 156.454 394.925 156.275C395.887 156.067 396.703 155.858 397.373 155.649C398.074 155.44 398.584 155.217 398.904 154.978V160.257C398.904 162.106 398.482 163.806 397.636 165.357C396.819 166.878 395.566 168.115 393.876 169.07ZM418.3 177.793V130.552H428.357V138.336H428.489C429.334 135.652 430.66 133.609 432.468 132.207C434.304 130.776 436.71 130.06 439.683 130.06C440.413 130.06 441.069 130.09 441.651 130.15C442.264 130.179 442.774 130.209 443.182 130.239V139.857C442.803 139.798 442.132 139.723 441.171 139.634C440.209 139.544 439.188 139.499 438.109 139.499C436.389 139.499 434.815 139.902 433.386 140.707C431.958 141.512 430.82 142.75 429.975 144.42C429.159 146.061 428.751 148.133 428.751 150.639V177.793H418.3ZM252.252 177.793V130.552H262.704V177.793H252.252ZM331.099 175.691C334.452 177.808 338.432 178.867 343.038 178.867C346.595 178.867 349.83 178.211 352.746 176.899C355.691 175.557 358.139 173.722 360.093 171.396C362.046 169.04 363.314 166.326 363.897 163.254H354.058C353.62 164.656 352.906 165.894 351.915 166.967C350.953 168.011 349.743 168.831 348.286 169.428C346.828 170.024 345.137 170.322 343.213 170.322C340.618 170.322 338.388 169.726 336.522 168.533C334.686 167.34 333.286 165.685 332.324 163.567C331.451 161.618 330.974 159.411 330.893 156.946H364.51V154.083C364.51 150.445 363.984 147.134 362.935 144.152C361.886 141.14 360.399 138.545 358.474 136.368C356.551 134.161 354.233 132.461 351.522 131.268C348.839 130.075 345.851 129.479 342.557 129.479C338.272 129.479 334.482 130.537 331.187 132.655C327.892 134.772 325.313 137.695 323.446 141.423C321.581 145.151 320.648 149.416 320.648 154.217C320.648 158.989 321.552 163.239 323.359 166.967C325.167 170.665 327.747 173.573 331.099 175.691ZM353.096 144.42C352.134 142.392 350.763 140.827 348.985 139.723C347.207 138.62 345.108 138.068 342.688 138.068C340.297 138.068 338.213 138.62 336.434 139.723C334.686 140.827 333.315 142.392 332.324 144.42C331.617 145.889 331.169 147.559 330.982 149.431H354.437C354.25 147.559 353.803 145.889 353.096 144.42Z" fill="#222326"/>
</svg>
