<svg width="512" height="290" viewBox="0 0 512 290" fill="none" xmlns="http://www.w3.org/2000/svg">
<rect width="512" height="288.257" transform="translate(0 0.871315)" fill="white"/>
<g clip-path="url(#clip0_1_11)">
<path fill-rule="evenodd" clip-rule="evenodd" d="M61.4437 109.354C60.8943 109.969 60.9307 110.913 61.5079 111.502L132.846 184.212C133.424 184.8 134.35 184.837 134.954 184.277C145.414 174.576 151.98 160.589 151.98 145.038C151.98 115.746 128.682 92 99.9423 92C84.6854 92 70.962 98.6922 61.4437 109.354ZM52.5275 123.153C52.2639 123.745 52.3968 124.44 52.8481 124.9L119.701 193.038C120.152 193.498 120.834 193.634 121.415 193.365C122.959 192.651 124.463 191.862 125.923 191.004C126.79 190.493 126.923 189.287 126.215 188.565L57.2367 118.261C56.5285 117.539 55.345 117.674 54.8443 118.558C54.0017 120.046 53.228 121.579 52.5275 123.153ZM48.4718 142.664C48.1587 142.345 47.9922 141.905 48.0217 141.455C48.1597 139.346 48.4186 137.272 48.7913 135.238C49.0149 134.018 50.4769 133.595 51.3376 134.472L110.309 194.578C111.17 195.455 110.754 196.945 109.558 197.173C107.562 197.553 105.527 197.817 103.458 197.958C103.017 197.987 102.585 197.818 102.272 197.499L48.4718 142.664ZM52.0907 157.464C51.0162 156.369 49.2824 157.313 49.6759 158.809C54.4699 177.034 68.5508 191.385 86.4317 196.271C87.8993 196.673 88.8251 194.905 87.7507 193.81L52.0907 157.464ZM257.666 121.187C261.397 121.187 264.42 118.094 264.42 114.279C264.42 110.463 261.397 107.37 257.666 107.37C253.937 107.37 250.913 110.463 250.913 114.279C250.913 118.094 253.937 121.187 257.666 121.187ZM199.82 181.437V107.374H211.822V170.601H244.181V181.437H199.82ZM285.242 151.215V181.437H273.629V128.947H285.096V137.944L285.242 137.844C286.408 135.028 288.287 132.675 290.879 130.786C293.469 128.864 296.773 127.903 300.791 127.903C304.354 127.903 307.592 128.715 310.509 130.339C313.424 131.929 315.755 134.265 317.505 137.347C319.254 140.429 320.128 144.207 320.128 148.68V181.437H308.516V150.321C308.516 146.344 307.479 143.329 305.406 141.274C303.366 139.186 300.629 138.143 297.194 138.143C294.992 138.143 292.983 138.607 291.17 139.534C289.356 140.462 287.914 141.887 286.845 143.809C285.776 145.731 285.242 148.2 285.242 151.215ZM390.391 180.542C393.047 181.702 396.092 182.282 399.525 182.282C402.344 182.282 404.756 181.918 406.765 181.189C408.774 180.426 410.425 179.416 411.721 178.156C413.049 176.897 414.102 175.522 414.88 174.031H415.074V181.437H426.201V145.3C426.201 142.749 425.714 140.413 424.743 138.292C423.772 136.171 422.363 134.332 420.516 132.774C418.702 131.217 416.499 130.024 413.907 129.195C411.317 128.334 408.401 127.903 405.162 127.903C400.724 127.903 396.886 128.682 393.646 130.239C390.439 131.764 387.929 133.818 386.114 136.403C384.301 138.988 383.313 141.904 383.15 145.151H394.375C394.504 143.627 395.023 142.268 395.93 141.075C396.837 139.882 398.068 138.954 399.623 138.292C401.178 137.596 402.975 137.248 405.016 137.248C407.057 137.248 408.79 137.596 410.215 138.292C411.672 138.988 412.79 139.932 413.567 141.125C414.345 142.318 414.734 143.71 414.734 145.3V145.698C414.734 146.891 414.329 147.769 413.519 148.332C412.742 148.896 411.413 149.31 409.535 149.575C407.688 149.84 405.162 150.155 401.955 150.52C399.331 150.818 396.805 151.265 394.375 151.862C391.946 152.458 389.775 153.336 387.864 154.496C385.985 155.656 384.495 157.197 383.394 159.119C382.292 161.041 381.742 163.51 381.742 166.525C381.742 170.005 382.519 172.921 384.074 175.273C385.629 177.593 387.735 179.349 390.391 180.542ZM409.195 171.744C407.316 172.771 405 173.285 402.247 173.285C399.461 173.285 397.241 172.689 395.59 171.496C393.937 170.27 393.112 168.596 393.112 166.475C393.112 164.819 393.565 163.476 394.472 162.449C395.412 161.422 396.642 160.61 398.165 160.014C399.687 159.417 401.339 159.003 403.121 158.771C404.416 158.572 405.68 158.373 406.911 158.174C408.142 157.942 409.292 157.727 410.361 157.528C411.43 157.296 412.337 157.064 413.082 156.832C413.86 156.6 414.426 156.352 414.782 156.087V161.952C414.782 164.007 414.313 165.895 413.373 167.619C412.466 169.309 411.073 170.684 409.195 171.744ZM436.333 181.437V128.947H447.508V137.596H447.654C448.593 134.613 450.067 132.343 452.075 130.786C454.116 129.195 456.789 128.4 460.093 128.4C460.903 128.4 461.632 128.433 462.279 128.5C462.96 128.533 463.527 128.566 463.98 128.599V139.286C463.559 139.22 462.813 139.137 461.745 139.037C460.676 138.938 459.543 138.888 458.343 138.888C456.432 138.888 454.684 139.335 453.096 140.23C451.509 141.125 450.245 142.5 449.306 144.356C448.399 146.179 447.946 148.482 447.946 151.265V181.437H436.333ZM251.836 181.437V128.947H263.449V181.437H251.836ZM339.443 179.101C343.169 181.454 347.591 182.63 352.709 182.63C356.661 182.63 360.256 181.901 363.495 180.443C366.767 178.952 369.488 176.914 371.658 174.329C373.829 171.711 375.238 168.696 375.886 165.282H364.954C364.467 166.84 363.673 168.215 362.572 169.408C361.504 170.568 360.159 171.479 358.54 172.142C356.92 172.805 355.041 173.136 352.903 173.136C350.02 173.136 347.542 172.473 345.469 171.148C343.429 169.822 341.874 167.983 340.805 165.63C339.834 163.465 339.304 161.013 339.215 158.274H376.566V155.092C376.566 151.05 375.983 147.371 374.817 144.058C373.651 140.711 371.998 137.828 369.86 135.409C367.723 132.956 365.148 131.068 362.135 129.742C359.155 128.417 355.835 127.754 352.174 127.754C347.413 127.754 343.202 128.93 339.541 131.283C335.88 133.636 333.014 136.883 330.94 141.026C328.868 145.168 327.831 149.906 327.831 155.242C327.831 160.544 328.835 165.266 330.844 169.408C332.852 173.517 335.719 176.748 339.443 179.101ZM363.884 144.356C362.815 142.102 361.293 140.363 359.317 139.137C357.341 137.911 355.009 137.298 352.32 137.298C349.663 137.298 347.347 137.911 345.371 139.137C343.429 140.363 341.906 142.102 340.805 144.356C340.018 145.988 339.521 147.844 339.313 149.923H365.375C365.167 147.844 364.67 145.988 363.884 144.356Z" fill="#222326"/>
</g>
<defs>
<clipPath id="clip0_1_11">
<rect width="416" height="106" fill="white" transform="translate(48 92)"/>
</clipPath>
</defs>
</svg>
