<svg width="512" height="289" viewBox="0 0 512 289" fill="none" xmlns="http://www.w3.org/2000/svg">
<rect width="512" height="288.257" fill="white"/>
<g clip-path="url(#clip0_1_139)">
<path d="M50 170.465H74.7127V167.88H72.8612C69.2468 167.88 68.3821 166.909 68.3821 163.364V131.302C70.8988 127.102 74.2914 124.407 78.5598 124.407C83.9259 124.407 87.1965 128.28 87.1965 135.6V163.364C87.1965 166.92 86.3207 167.88 82.8172 167.88H80.8437V170.465H105.013V167.891H103.261C99.6471 167.891 98.7823 166.92 98.7823 163.375V134.411C98.7823 133.44 98.7823 132.469 98.6715 131.509C101.077 127.2 104.692 124.407 108.949 124.407C114.315 124.407 117.597 128.28 117.597 135.6V163.364C117.597 166.92 116.721 167.88 113.217 167.88H111.244V170.465H135.413V167.891H133.773C130.047 167.891 129.183 166.92 129.183 163.375V134.411C129.183 123.545 122.952 117.513 113.872 117.513C107.097 117.513 101.188 121.178 98.0173 128.487C96.1658 121.385 90.6889 117.513 83.4713 117.513C77.0188 117.513 71.4421 120.949 68.371 127.844V118.8H50V121.385H52.1841C55.9093 121.385 56.7741 122.356 56.7741 125.902V163.353C56.7741 166.909 55.8982 167.869 52.1841 167.869H50V170.465ZM149.971 110.204C153.906 110.204 157.188 106.975 157.188 103.102C157.188 99.2291 153.906 96 149.971 96C146.035 96 142.753 99.2291 142.753 103.102C142.753 106.975 146.035 110.204 149.971 110.204ZM137.72 170.465H162V167.88H160.359C156.745 167.88 155.88 166.909 155.88 163.364V118.811H137.498V121.396H139.682C143.407 121.396 144.272 122.367 144.272 125.913V163.364C144.272 166.92 143.396 167.88 139.682 167.88H137.708L137.72 170.465ZM179.717 140.127H186.712C184.961 139.047 184.307 137.542 183.431 134.749L180.803 125.171C179.606 120.862 178.619 118.822 173.807 118.822H163.752V121.407H165.182C168.131 121.407 168.463 122.487 169.339 125.716L171.634 134.116C172.832 138.196 174.705 140.127 179.717 140.127ZM195.915 140.127H202.91C207.944 140.127 209.685 138.185 210.893 134.105L213.188 125.705C214.064 122.476 214.496 121.396 217.346 121.396H218.776V118.811H208.82C203.897 118.811 202.91 120.753 201.813 125.16L199.185 134.738C198.32 137.64 197.655 139.047 195.915 140.127ZM186.724 149.16H195.915V140.116H186.724V149.16ZM163.752 170.476H173.807C178.619 170.476 179.606 168.425 180.803 164.127L183.431 154.549C184.307 151.756 184.961 150.24 186.712 149.171H179.717C174.683 149.171 172.821 151.113 171.623 155.193L169.328 163.593C168.452 166.822 168.131 167.902 165.171 167.902H163.74L163.752 170.476ZM208.809 170.476H218.765V167.891H217.334C214.496 167.891 214.053 166.811 213.177 163.582L210.882 155.182C209.685 151.091 207.933 149.16 202.899 149.16H195.915C197.666 150.24 198.298 151.636 199.174 154.538L201.802 164.116C202.899 168.535 203.886 170.476 208.809 170.476ZM220.184 192H245.551V189.415H242.923C239.431 189.415 238.544 188.444 238.544 184.898V164.345C241.715 168.971 247.081 171.775 253.422 171.775C265.341 171.775 274.853 161.444 274.853 143.585C274.853 127.44 265.884 117.545 254.287 117.545C247.513 117.545 241.814 121.418 238.533 128.302V118.833H220.151V121.418H222.335C225.949 121.418 226.925 122.389 226.925 125.935V184.898C226.925 188.455 225.938 189.415 222.335 189.415H220.151V192H220.184ZM250.163 124.2C257.269 124.2 263.068 130.767 263.068 143.782C263.068 157.985 257.702 165.742 250.385 165.742C245.673 165.742 241.526 163.265 238.566 158.956V132.262C241.404 126.993 245.462 124.189 250.163 124.2ZM292.16 171.556C299.267 171.556 304.954 168.218 309.223 160.691V161.869C309.223 168.327 313.38 171.12 320.265 171.12C322.35 171.12 324.977 170.913 326.718 170.367V167.673C325.842 167.88 325.188 168 324.534 168C321.795 168 320.919 166.385 320.919 163.8V136.255C320.919 123.556 313.702 117.524 301.562 117.524C293.468 117.524 285.596 121.189 280.563 125.062L282.315 128.084C287.57 124.527 292.703 122.487 298.28 122.487C305.497 122.487 309.212 126.36 309.212 135.404V137.771L295.752 142.942C283.501 147.895 279.011 152.52 279.011 159.513C279.022 166.495 284.055 171.556 292.16 171.556ZM290.519 156.698C290.519 151.32 293.69 147.447 300.142 144.644L309.223 140.771V157.56C305.83 162.185 301.894 164.88 297.626 164.88C293.368 164.88 290.53 161.978 290.519 156.698ZM328.902 170.476H353.847V167.891H351.763C348.149 167.891 347.284 166.92 347.284 163.375V131.411C349.801 127.102 353.515 124.418 357.894 124.418C363.582 124.418 367.196 128.291 367.196 135.611V163.375C367.196 166.931 366.32 167.891 362.817 167.891H360.732V170.476H385.556V167.891H383.372C379.647 167.891 378.782 166.92 378.782 163.375V134.411C378.782 123.545 372.218 117.513 362.928 117.513C356.153 117.513 350.455 120.949 347.284 127.844V118.8H328.902V121.385H331.086C334.811 121.385 335.676 122.356 335.676 125.902V163.353C335.676 166.909 334.8 167.869 331.086 167.869H328.902V170.476ZM413.994 171.764C421.211 171.764 427.997 168.535 432.919 164.662L431.278 162.295C426.899 165.415 421.976 166.811 417.386 166.811C406.233 166.811 399.67 159.065 399.67 144V142.058H434.227C434.017 127.527 424.925 117.633 411.699 117.633C398.472 117.633 387.851 129.36 387.851 144.862C387.862 161.88 397.707 171.775 413.994 171.764ZM411.81 120.316C418.373 120.316 422.42 127.309 423.074 139.145H399.891C400.878 127.211 405.468 120.316 411.81 120.316ZM436.633 170.465H462V167.88H459.483C455.869 167.88 455.004 166.909 455.004 163.364V97.2873H436.622V99.8727H438.806C442.421 99.8727 443.396 100.844 443.396 104.389V163.364C443.396 166.92 442.409 167.88 438.806 167.88H436.622L436.633 170.465Z" fill="#7856FF"/>
</g>
<defs>
<clipPath id="clip0_1_139">
<rect width="412" height="96" fill="white" transform="translate(50 96)"/>
</clipPath>
</defs>
</svg>
