<svg width="512" height="289" viewBox="0 0 512 289" fill="none" xmlns="http://www.w3.org/2000/svg">
<style>
@media (prefers-color-scheme: dark) {
    path { fill: white; }
}
</style>
<path d="M70.6 167.819H92.8414V165.492H91.1751C87.9222 165.492 87.1439 164.618 87.1439 161.427V132.572C89.4089 128.792 92.4622 126.367 96.3039 126.367C101.133 126.367 104.077 129.852 104.077 136.44V161.427C104.077 164.628 103.289 165.492 100.135 165.492H98.3594V167.819H120.112V165.502H118.535C115.282 165.502 114.504 164.628 114.504 161.437V135.37C114.504 134.496 114.504 133.622 114.404 132.758C116.57 128.88 119.822 126.367 123.654 126.367C128.484 126.367 131.437 129.852 131.437 136.44V161.427C131.437 164.628 130.649 165.492 127.496 165.492H125.72V167.819H147.472V165.502H145.995C142.643 165.502 141.864 164.628 141.864 161.437V135.37C141.864 125.591 136.257 120.161 128.084 120.161C121.988 120.161 116.669 123.46 113.816 130.039C112.149 123.647 107.22 120.161 100.724 120.161C94.9169 120.161 89.8978 123.254 87.1339 129.459V121.32H70.6V123.647H72.5657C75.9184 123.647 76.6967 124.521 76.6967 127.712V161.417C76.6967 164.618 75.9084 165.482 72.5657 165.482H70.6V167.819ZM160.573 113.583C164.116 113.583 167.069 110.677 167.069 107.192C167.069 103.706 164.116 100.8 160.573 100.8C157.031 100.8 154.078 103.706 154.078 107.192C154.078 110.677 157.031 113.583 160.573 113.583ZM149.548 167.819H171.4V165.492H169.923C166.67 165.492 165.892 164.618 165.892 161.427V121.33H149.348V123.657H151.314C154.666 123.657 155.445 124.531 155.445 127.721V161.427C155.445 164.628 154.656 165.492 151.314 165.492H149.538L149.548 167.819ZM187.345 140.515H193.641C192.065 139.543 191.476 138.188 190.688 135.674L188.323 127.054C187.245 123.176 186.357 121.34 182.027 121.34H172.976V123.667H174.264C176.918 123.667 177.217 124.639 178.005 127.545L180.071 135.105C181.149 138.777 182.835 140.515 187.345 140.515ZM201.923 140.515H208.219C212.749 140.515 214.316 138.767 215.404 135.095L217.469 127.535C218.257 124.629 218.647 123.657 221.211 123.657H222.498V121.33H213.538C209.107 121.33 208.219 123.077 207.232 127.044L204.867 135.664C204.088 138.276 203.49 139.543 201.923 140.515ZM193.651 148.644H201.923V140.505H193.651V148.644ZM172.976 167.829H182.027C186.357 167.829 187.245 165.983 188.323 162.115L190.688 153.494C191.476 150.981 192.065 149.616 193.641 148.654H187.345C182.815 148.654 181.139 150.401 180.061 154.073L177.995 161.633C177.207 164.54 176.918 165.512 174.254 165.512H172.966L172.976 167.829ZM213.528 167.829H222.488V165.502H221.201C218.647 165.502 218.247 164.53 217.459 161.624L215.394 154.064C214.316 150.382 212.74 148.644 208.209 148.644H201.923C203.5 149.616 204.068 150.873 204.857 153.484L207.222 162.105C208.209 166.081 209.097 167.829 213.528 167.829ZM223.765 187.2H246.596V184.873H244.231C241.088 184.873 240.289 183.999 240.289 180.808V162.311C243.143 166.474 247.973 168.997 253.68 168.997C264.407 168.997 272.968 159.699 272.968 143.627C272.968 129.096 264.896 120.191 254.458 120.191C248.362 120.191 243.233 123.676 240.279 129.872V121.349H223.735V123.676H225.701C228.954 123.676 229.832 124.55 229.832 127.741V180.808C229.832 184.009 228.944 184.873 225.701 184.873H223.735V187.2H223.765ZM250.746 126.18C257.143 126.18 262.361 132.091 262.361 143.804C262.361 156.587 257.532 163.568 250.946 163.568C246.705 163.568 242.973 161.339 240.309 157.461V133.436C242.864 128.693 246.516 126.17 250.746 126.18ZM288.544 168.801C294.94 168.801 300.059 165.796 303.9 159.022V160.082C303.9 165.895 307.642 168.408 313.839 168.408C315.715 168.408 318.079 168.221 319.646 167.731V165.305C318.858 165.492 318.269 165.6 317.68 165.6C315.216 165.6 314.427 164.147 314.427 161.82V137.029C314.427 125.601 307.932 120.171 297.005 120.171C289.721 120.171 282.637 123.47 278.107 126.956L279.683 129.675C284.413 126.475 289.033 124.639 294.052 124.639C300.548 124.639 303.89 128.124 303.89 136.263V138.394L291.777 143.048C280.751 147.505 276.71 151.668 276.71 157.961C276.72 164.245 281.25 168.801 288.544 168.801ZM287.067 155.428C287.067 150.588 289.921 147.103 295.728 144.579L303.9 141.094V156.204C300.847 160.367 297.305 162.792 293.463 162.792C289.632 162.792 287.077 160.18 287.067 155.428ZM321.612 167.829H344.063V165.502H342.187C338.934 165.502 338.156 164.628 338.156 161.437V132.67C340.421 128.792 343.763 126.376 347.705 126.376C352.823 126.376 356.076 129.862 356.076 136.45V161.437C356.076 164.638 355.288 165.502 352.135 165.502H350.259V167.829H372.6V165.502H370.635C367.282 165.502 366.504 164.628 366.504 161.437V135.37C366.504 125.591 360.597 120.161 352.235 120.161C346.138 120.161 341.009 123.254 338.156 129.459V121.32H321.612V123.647H323.577C326.93 123.647 327.708 124.521 327.708 127.712V161.417C327.708 164.618 326.92 165.482 323.577 165.482H321.612V167.829ZM398.194 168.987C404.69 168.987 410.797 166.081 415.227 162.596L413.75 160.465C409.809 163.273 405.379 164.53 401.248 164.53C391.21 164.53 385.303 157.559 385.303 144V142.252H416.405C416.215 129.175 408.033 120.269 396.129 120.269C384.225 120.269 374.666 130.824 374.666 144.776C374.676 160.092 383.536 168.997 398.194 168.987ZM396.229 122.685C402.136 122.685 405.778 128.978 406.367 139.631H385.502C386.39 128.89 390.521 122.685 396.229 122.685ZM418.57 167.819H441.4V165.492H439.135C435.882 165.492 435.104 164.618 435.104 161.427V101.959H418.56V104.285H420.526C423.779 104.285 424.657 105.159 424.657 108.35V161.427C424.657 164.628 423.769 165.492 420.526 165.492H418.56L418.57 167.819Z" fill="#7856FF"/>
</svg>
