<svg width="512" height="289" viewBox="0 0 512 289" fill="none" xmlns="http://www.w3.org/2000/svg">
<rect width="512" height="288.257" fill="white"/>
<g clip-path="url(#clip0_1_274)">
<path d="M308.067 112.026H363.109V122.16H341.274V175.471H330.356V122.16H308.067V112.026Z" fill="black"/>
<path d="M217.544 112.026V122.16H173.425V138.462H208.906V148.595H173.425V165.338H217.544V175.471H162.507V122.16H162.503V112.026H217.544Z" fill="black"/>
<path d="M245.028 112.053H230.741L281.915 175.498H296.244L270.654 143.797L296.203 112.101L281.915 112.123L263.5 134.936L245.028 112.053Z" fill="black"/>
<path d="M259.689 157.372L252.534 148.498L230.7 175.546H245.028L259.689 157.372Z" fill="black"/>
<path fill-rule="evenodd" clip-rule="evenodd" d="M162.89 175.471L111.647 112H98V175.445H108.917V125.561L149.175 175.471H162.89Z" fill="black"/>
<path d="M365.563 175.084C364.763 175.084 364.083 174.807 363.514 174.255C362.944 173.702 362.663 173.033 362.67 172.241C362.663 171.47 362.944 170.808 363.514 170.256C364.083 169.703 364.763 169.427 365.563 169.427C366.332 169.427 367.005 169.703 367.574 170.256C368.152 170.808 368.44 171.47 368.448 172.241C368.44 172.764 368.307 173.244 368.04 173.673C367.767 174.109 367.42 174.451 366.983 174.698C366.554 174.953 366.08 175.084 365.563 175.084Z" fill="black"/>
<path d="M384.197 148.356H389.034V166.948C389.027 168.656 388.657 170.118 387.932 171.347C387.2 172.575 386.186 173.513 384.885 174.175C383.59 174.829 382.074 175.164 380.35 175.164C378.774 175.164 377.362 174.88 376.104 174.328C374.847 173.775 373.848 172.946 373.116 171.855C372.375 170.765 372.013 169.405 372.013 167.777H376.859C376.866 168.489 377.029 169.107 377.339 169.623C377.65 170.14 378.079 170.532 378.626 170.808C379.181 171.085 379.817 171.223 380.535 171.223C381.312 171.223 381.977 171.063 382.517 170.736C383.057 170.416 383.472 169.936 383.76 169.296C384.041 168.664 384.189 167.878 384.197 166.948V148.356Z" fill="black"/>
<path d="M408.94 155.627C408.822 154.5 408.304 153.62 407.402 152.995C406.491 152.362 405.315 152.05 403.873 152.05C402.86 152.05 401.987 152.203 401.262 152.501C400.537 152.806 399.975 153.213 399.59 153.729C399.206 154.246 399.013 154.835 398.998 155.496C398.998 156.049 399.131 156.529 399.39 156.929C399.649 157.336 399.996 157.677 400.448 157.954C400.891 158.237 401.387 158.47 401.928 158.659C402.475 158.848 403.022 159.008 403.569 159.139L406.092 159.757C407.106 159.99 408.09 160.302 409.029 160.702C409.968 161.095 410.819 161.596 411.566 162.2C412.313 162.803 412.905 163.53 413.341 164.381C413.778 165.232 414 166.228 414 167.377C414 168.925 413.6 170.285 412.794 171.463C411.988 172.633 410.826 173.55 409.302 174.211C407.786 174.866 405.952 175.2 403.792 175.2C401.706 175.2 399.886 174.88 398.355 174.24C396.816 173.608 395.617 172.677 394.752 171.456C393.887 170.234 393.421 168.744 393.354 166.991H398.148C398.214 167.907 398.51 168.671 399.013 169.289C399.523 169.9 400.189 170.35 401.003 170.656C401.824 170.954 402.741 171.107 403.755 171.107C404.813 171.107 405.745 170.947 406.551 170.634C407.349 170.321 407.978 169.885 408.43 169.318C408.889 168.758 409.118 168.096 409.125 167.34C409.118 166.65 408.91 166.075 408.511 165.624C408.104 165.174 407.542 164.796 406.824 164.49C406.1 164.185 405.256 163.908 404.294 163.669L401.232 162.898C399.02 162.338 397.267 161.487 395.987 160.346C394.701 159.204 394.064 157.692 394.064 155.794C394.064 154.238 394.493 152.872 395.359 151.701C396.216 150.53 397.393 149.621 398.88 148.974C400.374 148.32 402.061 148 403.939 148C405.848 148 407.519 148.32 408.962 148.974C410.404 149.621 411.537 150.523 412.357 151.672C413.179 152.821 413.608 154.137 413.63 155.627H408.94Z" fill="black"/>
</g>
<defs>
<clipPath id="clip0_1_274">
<rect width="316" height="64" fill="white" transform="translate(98 112)"/>
</clipPath>
</defs>
</svg>
