<svg width="512" height="290" viewBox="0 0 512 290" fill="none" xmlns="http://www.w3.org/2000/svg">
<style>
@media (prefers-color-scheme: dark) {
    path { fill: white; }
}
</style>
<path d="M374.467 190.537C373.657 190.537 372.902 190.319 372.201 189.938L365.025 185.64C363.946 185.041 364.486 184.824 364.81 184.715C366.266 184.225 366.535 184.116 368.046 183.246C368.208 183.137 368.424 183.191 368.586 183.3L374.088 186.619C374.304 186.728 374.574 186.728 374.735 186.619L396.262 174.05C396.477 173.941 396.587 173.724 396.587 173.452V148.368C396.587 148.096 396.477 147.879 396.262 147.77L374.735 135.255C374.52 135.146 374.25 135.146 374.088 135.255L352.563 147.77C352.347 147.879 352.239 148.151 352.239 148.368V173.452C352.239 173.669 352.347 173.941 352.563 174.05L358.443 177.478C361.626 179.11 363.622 177.206 363.622 175.302V150.545C363.622 150.218 363.892 149.892 364.27 149.892H367.022C367.345 149.892 367.669 150.164 367.669 150.545V175.302C367.669 179.6 365.349 182.103 361.302 182.103C360.062 182.103 359.091 182.103 356.339 180.743L350.674 177.478C349.272 176.662 348.408 175.139 348.408 173.506V148.423C348.408 146.79 349.272 145.267 350.674 144.451L372.201 131.882C373.549 131.12 375.384 131.12 376.732 131.882L398.258 144.451C399.66 145.267 400.523 146.79 400.523 148.423V173.506C400.523 175.139 399.66 176.662 398.258 177.478L376.732 190.047C376.085 190.319 375.276 190.537 374.467 190.537Z" fill="#5FA04E"/>
<path d="M381.157 173.288C371.714 173.288 369.772 168.935 369.772 165.235C369.772 164.909 370.042 164.582 370.419 164.582H373.224C373.549 164.582 373.819 164.8 373.819 165.126C374.25 168.01 375.49 169.425 381.21 169.425C385.742 169.425 387.684 168.391 387.684 165.943C387.684 164.528 387.143 163.494 380.076 162.787C374.196 162.188 370.527 160.882 370.527 156.149C370.527 151.741 374.196 149.13 380.346 149.13C387.253 149.13 390.652 151.524 391.083 156.747C391.083 156.911 391.029 157.074 390.922 157.237C390.812 157.346 390.652 157.455 390.487 157.455H387.628C387.361 157.455 387.09 157.237 387.036 156.965C386.388 153.972 384.715 152.993 380.292 152.993C375.329 152.993 374.735 154.734 374.735 156.04C374.735 157.618 375.436 158.107 382.127 158.978C388.762 159.848 391.892 161.1 391.892 165.779C391.892 170.567 387.953 173.288 381.157 173.288Z" fill="#5FA04E"/>
<path d="M412.234 146.953C412.234 149.238 410.345 151.143 408.077 151.143C405.813 151.143 403.924 149.293 403.924 146.953C403.924 144.559 405.867 142.764 408.077 142.764C410.291 142.764 412.234 144.613 412.234 146.953ZM404.572 146.953C404.572 148.912 406.137 150.49 408.024 150.49C409.967 150.49 411.532 148.857 411.532 146.953C411.532 144.994 409.967 143.471 408.024 143.471C406.191 143.471 404.572 144.994 404.572 146.953ZM406.515 144.613H408.134C408.673 144.613 409.753 144.613 409.753 145.865C409.753 146.735 409.211 146.899 408.886 147.007C409.536 147.062 409.589 147.497 409.643 148.096C409.696 148.477 409.753 149.13 409.859 149.347H408.886C408.886 149.13 408.726 147.933 408.726 147.878C408.673 147.606 408.565 147.497 408.242 147.497H407.432V149.401H406.515V144.613ZM407.378 146.681H408.077C408.673 146.681 408.78 146.246 408.78 146.028C408.78 145.375 408.348 145.375 408.077 145.375H407.325V146.681H407.378Z" fill="#5FA04E"/>
<path fill-rule="evenodd" clip-rule="evenodd" d="M150.198 147.296C150.198 146.316 149.659 145.392 148.795 144.902L125.975 131.571C125.597 131.354 125.166 131.245 124.734 131.19C124.68 131.19 124.518 131.19 124.518 131.19C124.087 131.19 123.655 131.354 123.277 131.571L100.403 144.847C99.5395 145.337 99 146.262 99 147.296L99.0539 182.99C99.0539 183.479 99.3237 183.969 99.7553 184.186C100.187 184.459 100.726 184.459 101.104 184.186L114.699 176.351C115.563 175.862 116.102 174.937 116.102 173.957V157.253C116.102 156.274 116.641 155.349 117.505 154.859L123.277 151.486C123.709 151.213 124.194 151.105 124.68 151.105C125.166 151.105 125.651 151.213 126.029 151.486L131.801 154.859C132.664 155.349 133.204 156.274 133.204 157.253V173.957C133.204 174.937 133.744 175.862 134.607 176.351L148.094 184.186C148.526 184.459 149.065 184.459 149.497 184.186C149.928 183.969 150.198 183.479 150.198 182.99V147.296Z" fill="#333333"/>
<path fill-rule="evenodd" clip-rule="evenodd" d="M260.148 98.1632C259.716 97.9456 259.176 97.9456 258.799 98.1632C258.367 98.4353 258.098 98.8706 258.098 99.3603V134.727C258.098 135.054 257.936 135.38 257.611 135.598C257.288 135.761 256.964 135.761 256.641 135.598L250.922 132.279C250.059 131.789 249.034 131.789 248.171 132.279L225.296 145.61C224.433 146.099 223.894 147.024 223.894 148.004V174.61C223.894 175.59 224.433 176.515 225.296 177.005L248.171 190.335C249.034 190.825 250.059 190.825 250.922 190.335L273.797 177.005C274.66 176.515 275.199 175.59 275.199 174.61V108.284C275.199 107.25 274.66 106.325 273.797 105.835L260.148 98.1632ZM258.044 165.85C258.044 166.122 257.936 166.34 257.72 166.449L249.896 171.02C249.681 171.128 249.411 171.128 249.195 171.02L241.373 166.449C241.157 166.34 241.049 166.068 241.049 165.85V156.71C241.049 156.437 241.157 156.22 241.373 156.111L249.195 151.54C249.411 151.432 249.681 151.432 249.896 151.54L257.72 156.111C257.936 156.22 258.044 156.492 258.044 156.71V165.85Z" fill="#333333"/>
<path fill-rule="evenodd" clip-rule="evenodd" d="M336.268 156.492C337.132 156.002 337.617 155.077 337.617 154.097V147.622C337.617 146.643 337.078 145.718 336.268 145.229L313.555 131.952C312.692 131.463 311.668 131.463 310.804 131.952L287.93 145.283C287.066 145.773 286.527 146.698 286.527 147.677V174.284C286.527 175.263 287.066 176.188 287.93 176.678L310.642 189.737C311.506 190.226 312.53 190.226 313.339 189.737L327.097 182.01C327.529 181.793 327.798 181.303 327.798 180.813C327.798 180.324 327.529 179.834 327.097 179.616L304.115 166.285C303.683 166.014 303.414 165.578 303.414 165.089V156.764C303.414 156.274 303.683 155.784 304.115 155.567L311.29 151.431C311.722 151.159 312.261 151.159 312.692 151.431L319.868 155.567C320.299 155.839 320.569 156.274 320.569 156.764V163.293C320.569 163.783 320.838 164.272 321.271 164.49C321.702 164.762 322.242 164.762 322.673 164.49L336.268 156.492Z" fill="#333333"/>
<path fill-rule="evenodd" clip-rule="evenodd" d="M311.829 155.241C311.991 155.132 312.208 155.132 312.37 155.241L316.739 157.798C316.901 157.907 317.009 158.07 317.009 158.288V163.402C317.009 163.62 316.901 163.783 316.739 163.892L312.37 166.449C312.208 166.558 311.991 166.558 311.829 166.449L307.46 163.892C307.299 163.783 307.191 163.62 307.191 163.402V158.288C307.191 158.07 307.299 157.907 307.46 157.798L311.829 155.241Z" fill="#5FA04E"/>
<path d="M188.447 132.061C187.583 131.572 186.558 131.572 185.695 132.061L162.982 145.283C162.119 145.773 161.634 146.698 161.634 147.677V174.175C161.634 175.155 162.173 176.08 162.982 176.569L185.695 189.791C186.558 190.281 187.583 190.281 188.447 189.791L211.159 176.569C212.023 176.08 212.508 175.155 212.508 174.175V147.677C212.508 146.698 211.969 145.773 211.159 145.283L188.447 132.061Z" fill="url(#paint0_linear_1_258)"/>
<path d="M211.213 145.283L188.393 132.061C188.177 131.952 187.907 131.844 187.691 131.789L162.119 175.916C162.335 176.188 162.605 176.406 162.875 176.569L185.695 189.791C186.343 190.172 187.098 190.281 187.799 190.063L211.807 145.773C211.645 145.555 211.429 145.392 211.213 145.283Z" fill="url(#paint1_linear_1_258)"/>
<path d="M211.214 176.569C211.861 176.188 212.347 175.535 212.563 174.827L187.584 131.734C186.937 131.625 186.235 131.679 185.642 132.06L162.983 145.228L187.422 190.171C187.746 190.117 188.124 190.008 188.447 189.845L211.214 176.569Z" fill="url(#paint2_linear_1_258)"/>
<defs>
<linearGradient id="paint0_linear_1_258" x1="196.321" y1="141.908" x2="175.502" y2="184.02" gradientUnits="userSpaceOnUse">
<stop stop-color="#3F873F"/>
<stop offset="0.3296" stop-color="#3F8B3D"/>
<stop offset="0.6367" stop-color="#3E9638"/>
<stop offset="0.9341" stop-color="#3DA92E"/>
<stop offset="1" stop-color="#3DAE2B"/>
</linearGradient>
<linearGradient id="paint1_linear_1_258" x1="183.619" y1="164.02" x2="241.587" y2="121.554" gradientUnits="userSpaceOnUse">
<stop offset="0.1376" stop-color="#3F873F"/>
<stop offset="0.4016" stop-color="#52A044"/>
<stop offset="0.7129" stop-color="#64B749"/>
<stop offset="0.9081" stop-color="#6ABF4B"/>
</linearGradient>
<linearGradient id="paint2_linear_1_258" x1="160.802" y1="160.917" x2="213.358" y2="160.917" gradientUnits="userSpaceOnUse">
<stop offset="0.0919165" stop-color="#6ABF4B"/>
<stop offset="0.2871" stop-color="#64B749"/>
<stop offset="0.5984" stop-color="#52A044"/>
<stop offset="0.8624" stop-color="#3F873F"/>
</linearGradient>
</defs>
</svg>
