<svg width="512" height="289" viewBox="0 0 512 289" fill="none" xmlns="http://www.w3.org/2000/svg">
<style>
@media (prefers-color-scheme: dark) {
    path { fill: white; }
}
</style>
<path d="M115.743 124H92.6085C87.1424 124 81.9022 126.132 78.0393 129.943C74.1765 133.743 72.0029 138.9 72.0029 144.283C72.0029 149.666 74.1765 154.823 78.0393 158.624C81.9022 162.424 87.1424 164.567 92.6085 164.567H115.743C121.209 164.567 126.449 162.435 130.312 158.624C134.175 154.823 136.348 149.666 136.348 144.283C136.348 138.9 134.175 133.743 130.312 129.943C126.449 126.142 121.209 124 115.743 124ZM115.829 159.216C112.827 159.216 109.889 158.344 107.404 156.697C104.907 155.06 102.96 152.724 101.819 149.989C100.668 147.255 100.367 144.251 100.958 141.355C101.539 138.459 102.992 135.8 105.112 133.711C107.231 131.622 109.932 130.201 112.88 129.62C115.829 129.039 118.874 129.34 121.65 130.47C124.426 131.601 126.793 133.517 128.461 135.972C130.129 138.427 131.022 141.312 131.022 144.273C131.022 146.243 130.635 148.181 129.871 150C129.107 151.82 127.988 153.467 126.578 154.856C125.169 156.245 123.49 157.343 121.639 158.096C119.799 158.85 117.819 159.227 115.818 159.227H115.85L115.829 159.216ZM152.51 134.594C154.651 133.388 157.083 132.785 159.547 132.839C162.172 132.807 164.766 133.485 167.025 134.788C169.274 136.09 171.104 137.985 172.308 140.268C173.632 142.798 174.299 145.618 174.234 148.471C174.289 151.335 173.632 154.167 172.308 156.707C171.125 159.033 169.295 160.971 167.036 162.327C164.776 163.684 162.184 164.373 159.547 164.33C157.104 164.384 154.694 163.77 152.575 162.575C150.691 161.52 149.099 160.023 147.969 158.204V178.283H142.826V133.345H147.969V138.965C149.067 137.135 150.638 135.627 152.521 134.594H152.51ZM167.563 142.453C166.692 140.827 165.368 139.471 163.744 138.556C162.129 137.662 160.311 137.21 158.46 137.221C156.631 137.21 154.824 137.684 153.242 138.588C151.617 139.525 150.282 140.892 149.4 142.528C148.442 144.402 147.947 146.458 147.947 148.558C147.947 150.657 148.442 152.713 149.4 154.587C150.282 156.223 151.617 157.59 153.242 158.527C154.824 159.431 156.631 159.905 158.46 159.894C160.311 159.905 162.129 159.442 163.744 158.527C165.368 157.59 166.692 156.223 167.563 154.587C168.542 152.702 169.027 150.614 168.973 148.504C169.027 146.404 168.542 144.326 167.563 142.464V142.453ZM206.87 150.463H182.132C182.132 151.744 182.401 153.015 182.907 154.199C183.413 155.383 184.166 156.449 185.102 157.343C186.038 158.236 187.147 158.936 188.373 159.399C189.589 159.862 190.891 160.077 192.193 160.034C194.162 160.099 196.11 159.571 197.756 158.505C199.219 157.515 200.317 156.083 200.887 154.414H206.418C205.632 157.289 203.878 159.808 201.447 161.563C198.757 163.458 195.496 164.427 192.182 164.319C189.417 164.362 186.684 163.673 184.274 162.338C181.96 161.046 180.067 159.13 178.818 156.815C177.462 154.253 176.785 151.389 176.849 148.504C176.785 145.629 177.441 142.776 178.764 140.214C179.981 137.91 181.853 136.004 184.155 134.734C186.609 133.42 189.363 132.764 192.15 132.817C194.872 132.764 197.563 133.42 199.94 134.712C202.146 135.918 203.964 137.727 205.17 139.912C206.418 142.216 207.053 144.789 207.01 147.395C207.01 148.428 206.977 149.462 206.87 150.485V150.463ZM200.435 141.377C199.585 140.009 198.37 138.911 196.906 138.201C195.367 137.468 193.678 137.092 191.967 137.113C189.524 137.049 187.147 137.91 185.339 139.525C183.445 141.301 182.315 143.734 182.208 146.307H201.748C201.791 144.574 201.339 142.862 200.446 141.366L200.435 141.377ZM235.847 136.144C238.182 138.394 239.344 141.624 239.344 145.844V163.802H234.265V146.566C234.265 143.53 233.501 141.204 231.952 139.589C231.134 138.771 230.144 138.136 229.047 137.716C227.959 137.296 226.787 137.113 225.625 137.178C224.43 137.124 223.236 137.318 222.117 137.748C220.998 138.179 219.997 138.836 219.158 139.686C217.522 141.355 216.726 143.788 216.748 146.975V163.845H211.604V133.345H216.748V137.684C217.77 136.123 219.201 134.874 220.901 134.066C222.709 133.205 224.688 132.764 226.69 132.785C228.368 132.71 230.036 132.979 231.607 133.55C233.178 134.131 234.62 135.003 235.836 136.144H235.847ZM267.804 125.055V129.179H250.674V142.259H264.544V146.383H250.674V163.835H245.531V125.055H267.804ZM299.88 150.463H275.132C275.132 151.744 275.401 153.015 275.907 154.199C276.423 155.383 277.166 156.449 278.102 157.343C279.037 158.236 280.146 158.936 281.373 159.399C282.588 159.862 283.89 160.077 285.193 160.034C287.162 160.099 289.109 159.571 290.756 158.505C292.219 157.515 293.317 156.083 293.887 154.414H299.417C298.632 157.289 296.889 159.808 294.446 161.563C291.756 163.458 288.496 164.427 285.193 164.319C282.438 164.362 279.716 163.695 277.316 162.37C275.003 161.079 273.109 159.162 271.871 156.847C270.526 154.285 269.849 151.421 269.924 148.536C269.859 145.661 270.516 142.808 271.839 140.246C273.055 137.942 274.928 136.037 277.23 134.766C279.683 133.453 282.438 132.796 285.225 132.85C287.947 132.796 290.637 133.453 293.015 134.745C295.221 135.961 297.04 137.759 298.244 139.945C299.482 142.249 300.117 144.822 300.074 147.427C300.074 148.45 299.998 149.473 299.88 150.485V150.463ZM293.435 141.377C292.585 140.02 291.369 138.933 289.905 138.233C288.367 137.501 286.677 137.124 284.966 137.145C282.524 137.081 280.146 137.942 278.338 139.557C276.445 141.333 275.315 143.767 275.196 146.34H294.779C294.822 144.596 294.349 142.873 293.446 141.366L293.435 141.377ZM304.615 140.268C305.819 137.996 307.649 136.09 309.898 134.788C312.168 133.474 314.761 132.807 317.386 132.839C319.851 132.785 322.293 133.377 324.445 134.562C326.307 135.574 327.856 137.081 328.911 138.9V133.345H334.108V163.813H328.911V158.139C327.824 159.991 326.253 161.52 324.37 162.564C322.229 163.759 319.797 164.362 317.333 164.319C314.718 164.351 312.146 163.662 309.898 162.338C307.659 160.971 305.841 159.033 304.647 156.718C303.334 154.177 302.678 151.346 302.732 148.493C302.656 145.64 303.312 142.819 304.625 140.278L304.615 140.268ZM327.458 142.518C326.586 140.881 325.263 139.525 323.649 138.599C322.035 137.716 320.228 137.253 318.388 137.253C316.548 137.253 314.729 137.716 313.126 138.599C311.512 139.514 310.199 140.871 309.339 142.496C308.359 144.348 307.875 146.415 307.929 148.504C307.875 150.614 308.359 152.713 309.339 154.587C310.199 156.223 311.512 157.59 313.126 158.527C314.718 159.442 316.526 159.916 318.377 159.894C320.228 159.905 322.057 159.442 323.66 158.527C325.285 157.59 326.608 156.223 327.469 154.587C328.438 152.724 328.933 150.646 328.878 148.558C328.943 146.458 328.469 144.38 327.501 142.518H327.469H327.458ZM346.859 137.511V155.469C346.805 156.029 346.859 156.6 347.02 157.138C347.181 157.676 347.461 158.182 347.817 158.613C348.451 159.227 349.57 159.528 351.152 159.528H354.929V163.813H350.302C347.439 163.813 345.288 163.167 343.857 161.864C342.426 160.562 341.715 158.43 341.715 155.437V137.511H337.712V133.345H341.704V125.658H346.848V133.334H354.929V137.501H346.859V137.511ZM386.391 133.345V163.813H381.248V159.313C380.258 160.885 378.848 162.144 377.169 162.952C375.372 163.835 373.393 164.276 371.381 164.265C369.11 164.308 366.873 163.802 364.849 162.79C362.913 161.8 361.331 160.26 360.298 158.376C359.136 156.158 358.577 153.693 358.663 151.206V133.345H363.719V150.528C363.719 153.531 364.494 155.835 366.033 157.45C366.851 158.269 367.841 158.904 368.928 159.324C370.014 159.744 371.187 159.927 372.35 159.862C373.554 159.927 374.76 159.733 375.889 159.302C377.019 158.871 378.031 158.204 378.88 157.353C380.452 155.695 381.248 153.262 381.248 150.065V133.345H386.369H386.391ZM401.896 134.217C403.769 133.205 405.889 132.699 408.019 132.774V137.996H406.663C400.896 137.996 398.012 141.075 398.012 147.223V163.792H392.868V133.345H397.98V138.297C398.84 136.596 400.197 135.175 401.875 134.228L401.896 134.217ZM439.815 150.463H415.078C415.078 151.744 415.336 153.015 415.853 154.199C416.358 155.383 417.111 156.449 418.047 157.343C418.983 158.236 420.092 158.936 421.318 159.399C422.534 159.862 423.836 160.077 425.139 160.034C427.108 160.11 429.055 159.571 430.701 158.505C432.176 157.515 433.273 156.083 433.832 154.414H439.374C438.589 157.278 436.835 159.797 434.403 161.563C431.702 163.458 428.453 164.427 425.139 164.319C422.384 164.362 419.672 163.695 417.262 162.37C414.948 161.079 413.055 159.162 411.817 156.847C410.45 154.285 409.773 151.421 409.837 148.536C409.773 145.661 410.44 142.808 411.764 140.246C412.979 137.942 414.852 136.037 417.154 134.766C419.597 133.453 422.351 132.796 425.139 132.85C427.86 132.796 430.551 133.453 432.939 134.745C435.145 135.95 436.953 137.759 438.158 139.945C439.406 142.249 440.041 144.822 439.998 147.427C439.998 148.45 439.933 149.473 439.826 150.485L439.815 150.463ZM433.38 141.377C432.53 140.009 431.282 138.922 429.819 138.233C428.291 137.501 426.623 137.135 424.923 137.145C422.481 137.081 420.102 137.942 418.284 139.557C416.391 141.333 415.26 143.767 415.153 146.34H434.736C434.768 144.596 434.306 142.873 433.391 141.366L433.38 141.377Z" fill="black"/>
</svg>
