<svg width="512" height="289" viewBox="0 0 512 289" fill="none" xmlns="http://www.w3.org/2000/svg">
<rect width="512" height="288.257" fill="white"/>
<g clip-path="url(#clip0_1_104)">
<path d="M97.8208 146.418C96.9606 148.153 94.5059 148.153 93.6457 146.418L91.5885 142.27C91.4265 141.943 91.3421 141.583 91.3421 141.217C91.3421 140.852 91.4265 140.492 91.5885 140.165L93.6457 136.016C94.5059 134.281 96.9606 134.281 97.8208 136.016L99.878 140.165C100.04 140.492 100.124 140.852 100.124 141.217C100.124 141.583 100.04 141.943 99.878 142.27L97.8208 146.418ZM97.8208 169.948C96.9606 171.683 94.5059 171.683 93.6457 169.948L91.5885 165.799C91.4265 165.472 91.3421 165.112 91.3421 164.747C91.3421 164.381 91.4265 164.021 91.5885 163.694L93.6457 159.545C94.5059 157.81 96.9606 157.81 97.8208 159.545L99.878 163.694C100.04 164.021 100.124 164.381 100.124 164.747C100.124 165.112 100.04 165.472 99.878 165.799L97.8208 169.948Z" fill="#1D4AFF"/>
<path d="M72.4 161.017C72.4 158.92 74.914 157.869 76.3841 159.352L87.0821 170.14C88.5527 171.623 87.5112 174.158 85.432 174.158H74.734C74.1152 174.158 73.5217 173.91 73.084 173.469C72.6463 173.028 72.4003 172.429 72.4 171.805V161.017ZM72.4 149.654C72.4 150.279 72.646 150.877 73.0839 151.318L95.0498 173.469C95.4875 173.91 96.081 174.158 96.6999 174.158H108.765C110.844 174.158 111.886 171.623 110.415 170.14L76.3846 135.823C74.914 134.341 72.4 135.391 72.4 137.487V149.654V149.654ZM72.4 126.125C72.4 126.749 72.646 127.348 73.0839 127.789L118.383 173.469C118.82 173.91 119.414 174.158 120.033 174.158H132.098C134.177 174.158 135.219 171.623 133.749 170.14L76.3846 112.294C74.914 110.811 72.4 111.861 72.4 113.958V126.125ZM95.7333 126.125C95.7333 126.749 95.9793 127.348 96.4172 127.789L138.416 170.14C139.886 171.623 142.4 170.573 142.4 168.476V156.31C142.4 155.685 142.154 155.087 141.716 154.645L99.7174 112.294C98.2472 110.811 95.7333 111.861 95.7333 113.958V126.125ZM123.051 112.294C121.58 110.811 119.067 111.861 119.067 113.958V126.125C119.067 126.749 119.313 127.348 119.75 127.789L138.415 146.611C139.886 148.094 142.399 147.044 142.399 144.946V132.78C142.399 132.156 142.154 131.557 141.716 131.116L123.051 112.294Z" fill="#F9BD2B"/>
<path d="M171.654 161.305L149.685 139.152C148.214 137.669 145.7 138.719 145.7 140.816V171.805C145.7 172.429 145.946 173.028 146.384 173.469C146.821 173.91 147.415 174.158 148.034 174.158H182.065C182.684 174.158 183.278 173.91 183.716 173.469C184.153 173.028 184.399 172.429 184.399 171.805V168.983C184.399 167.683 183.35 166.644 182.072 166.477C178.129 165.959 174.466 164.141 171.654 161.305H171.654ZM156.9 166.629C155.91 166.629 154.96 166.232 154.26 165.526C153.56 164.82 153.167 163.863 153.167 162.864C153.167 161.866 153.56 160.909 154.26 160.203C154.96 159.497 155.91 159.1 156.9 159.099C157.89 159.1 158.839 159.496 159.539 160.202C160.239 160.908 160.633 161.866 160.633 162.864C160.633 163.863 160.239 164.82 159.539 165.526C158.839 166.232 157.89 166.629 156.9 166.629Z" fill="black"/>
<path d="M72.4 171.805C72.4 172.429 72.6459 173.028 73.0836 173.469C73.5214 173.91 74.115 174.158 74.734 174.158H85.432C87.5112 174.158 88.5527 171.623 87.0821 170.14L76.3846 159.352C74.914 157.87 72.4 158.92 72.4 161.017V171.805ZM95.7333 131.806L76.3841 112.294C74.914 110.811 72.4 111.861 72.4 113.958V126.125C72.4 126.749 72.646 127.348 73.0839 127.789L95.7333 150.629V131.806ZM76.3841 135.823C74.914 134.341 72.4 135.391 72.4 137.488V149.654C72.4 150.278 72.646 150.877 73.0839 151.318L95.7333 174.158V155.335L76.3841 135.823Z" fill="#1D4AFF"/>
<path d="M119.067 132.78C119.067 132.471 119.006 132.165 118.889 131.88C118.771 131.594 118.599 131.334 118.383 131.116L99.7179 112.294C98.2472 110.811 95.7333 111.862 95.7333 113.958V126.125C95.7333 126.749 95.9793 127.348 96.4172 127.789L119.067 150.629V132.78ZM95.7333 174.158H108.765C110.844 174.158 111.886 171.623 110.415 170.14L95.7333 155.335V174.158ZM95.7333 131.806V149.654C95.7333 150.278 95.9793 150.877 96.4172 151.318L119.067 174.158V156.31C119.067 156.001 119.006 155.694 118.889 155.409C118.771 155.123 118.599 154.864 118.383 154.645L95.7333 131.806Z" fill="#F54E00"/>
<path d="M211.624 164.764H221.211V148.73H229.222C238.021 148.73 243.665 143.468 243.665 135.329C243.665 127.19 238.021 121.927 229.222 121.927H211.624V164.763V164.764ZM221.211 140.469V130.188H228.251C231.892 130.188 234.077 132.146 234.077 135.328C234.077 138.511 231.892 140.469 228.251 140.469H221.211V140.469ZM261.011 165.253C270.357 165.253 277.153 158.522 277.153 149.342C277.153 140.163 270.357 133.432 261.011 133.432C251.544 133.432 244.869 140.163 244.869 149.342C244.869 158.522 251.544 165.253 261.011 165.253ZM253.729 149.342C253.729 144.447 256.642 141.081 261.011 141.081C265.319 141.081 268.233 144.447 268.233 149.342C268.233 154.238 265.319 157.604 261.011 157.604C256.642 157.604 253.729 154.238 253.729 149.342ZM292.497 165.253C299.658 165.253 304.513 160.724 304.513 155.401C304.513 142.917 288.067 146.956 288.067 142.06C288.067 140.714 289.462 139.857 291.466 139.857C293.529 139.857 296.017 141.142 296.806 143.957L303.966 140.959C302.571 136.492 297.412 133.432 291.162 133.432C284.426 133.432 280.239 137.47 280.239 142.305C280.239 153.993 296.442 150.75 296.442 155.584C296.442 157.298 294.864 158.461 292.497 158.461C289.099 158.461 286.732 156.074 286.004 153.198L278.843 156.013C280.421 160.663 285.033 165.253 292.497 165.253ZM327.578 164.458L326.972 156.686C325.94 157.237 324.605 157.42 323.513 157.42C321.328 157.42 319.872 155.829 319.872 153.075V141.387H327.275V133.921H319.872V124.987H310.951V133.921H306.096V141.387H310.951V154.238C310.951 161.704 315.988 165.253 322.602 165.253C324.423 165.253 326.122 164.948 327.579 164.458H327.578ZM358.682 121.927V138.572H341.811V121.928H332.223V164.763H341.811V146.834H358.682V164.763H368.331V121.927H358.682ZM389.612 165.253C398.957 165.253 405.754 158.522 405.754 149.342C405.754 140.163 398.958 133.432 389.612 133.432C380.145 133.432 373.47 140.163 373.47 149.342C373.47 158.522 380.145 165.253 389.612 165.253ZM382.331 149.342C382.331 144.447 385.243 141.081 389.613 141.081C393.921 141.081 396.834 144.447 396.834 149.342C396.834 154.238 393.921 157.604 389.613 157.604C385.243 157.604 382.331 154.238 382.331 149.342ZM422.973 163.784C426.311 163.784 429.284 162.622 430.862 160.602V163.54C430.862 166.967 428.131 169.353 423.944 169.353C420.97 169.353 418.361 167.884 417.936 165.375L409.804 166.661C410.897 172.474 416.783 176.391 423.944 176.391C433.35 176.391 439.6 170.822 439.6 162.561V133.921H430.801V136.553C429.163 134.656 426.371 133.432 422.791 133.432C414.295 133.432 408.955 139.307 408.955 148.608C408.955 157.91 414.295 163.784 422.973 163.784ZM417.632 148.608C417.632 144.019 420.302 141.081 424.429 141.081C428.616 141.081 431.286 144.019 431.286 148.608C431.286 153.198 428.616 156.135 424.429 156.135C420.302 156.135 417.632 153.198 417.632 148.608Z" fill="black"/>
</g>
<defs>
<clipPath id="clip0_1_104">
<rect width="367.2" height="64.8" fill="white" transform="translate(72.4 111.6)"/>
</clipPath>
</defs>
</svg>
