<svg width="512" height="289" viewBox="0 0 512 289" fill="none" xmlns="http://www.w3.org/2000/svg">
<rect width="512" height="288.257" fill="white"/>
<g clip-path="url(#clip0_1_104)">
<path d="M80.2453 146.687C79.2896 148.615 76.5621 148.615 75.6063 146.687L73.3205 142.078C73.1405 141.714 73.0468 141.314 73.0468 140.908C73.0468 140.502 73.1405 140.102 73.3205 139.739L75.6063 135.129C76.5621 133.201 79.2896 133.201 80.2453 135.129L82.5311 139.739C82.7112 140.102 82.8049 140.502 82.8049 140.908C82.8049 141.314 82.7112 141.715 82.5311 142.078L80.2453 146.687ZM80.2453 172.831C79.2896 174.758 76.5621 174.758 75.6063 172.831L73.3205 168.221C73.1405 167.858 73.0468 167.458 73.0468 167.052C73.0468 166.646 73.1405 166.245 73.3205 165.882L75.6063 161.272C76.5621 159.345 79.2896 159.345 80.2453 161.272L82.5311 165.882C82.7112 166.245 82.8049 166.646 82.8049 167.052C82.8049 167.458 82.7112 167.858 82.5311 168.221L80.2453 172.831Z" fill="#1D4AFF"/>
<path d="M52 162.908C52 160.578 54.7933 159.41 56.4268 161.058L68.3134 173.045C69.9474 174.692 68.7902 177.509 66.4799 177.509H54.5934C53.9057 177.509 53.2463 177.233 52.7599 176.743C52.2736 176.253 52.0003 175.588 52 174.895V162.908ZM52 150.282C52 150.976 52.2734 151.641 52.7599 152.131L77.1665 176.743C77.6527 177.233 78.3122 177.509 78.9999 177.509H92.4058C94.7161 177.509 95.8733 174.692 94.2392 173.045L56.4273 134.915C54.7933 133.267 52 134.434 52 136.764V150.282V150.282ZM52 124.139C52 124.832 52.2734 125.497 52.7599 125.988L103.092 176.743C103.578 177.233 104.238 177.509 104.926 177.509H118.331C120.641 177.509 121.799 174.692 120.165 173.045L56.4273 108.771C54.7933 107.124 52 108.29 52 110.62V124.139ZM77.9259 124.139C77.9259 124.832 78.1992 125.497 78.6858 125.988L125.351 173.045C126.984 174.692 129.778 173.526 129.778 171.195V157.677C129.777 156.984 129.504 156.318 129.018 155.828L82.3527 108.771C80.7191 107.124 77.9259 108.29 77.9259 110.62V124.139ZM108.279 108.771C106.645 107.124 103.852 108.29 103.852 110.62V124.139C103.852 124.832 104.125 125.497 104.612 125.988L125.35 146.901C126.984 148.549 129.777 147.382 129.777 145.052V131.534C129.777 130.84 129.504 130.175 129.018 129.684L108.279 108.771Z" fill="#F9BD2B"/>
<path d="M162.282 163.228L137.872 138.613C136.238 136.965 133.444 138.132 133.444 140.462V174.894C133.444 175.588 133.718 176.253 134.204 176.743C134.69 177.234 135.35 177.509 136.038 177.509H173.85C174.538 177.509 175.198 177.234 175.684 176.743C176.17 176.253 176.444 175.588 176.444 174.894V171.759C176.444 170.314 175.278 169.16 173.858 168.974C169.476 168.399 165.406 166.379 162.282 163.228H162.282ZM145.888 169.143C144.788 169.143 143.734 168.702 142.956 167.918C142.178 167.133 141.741 166.069 141.741 164.96C141.741 163.851 142.178 162.787 142.956 162.003C143.734 161.218 144.788 160.778 145.888 160.777C146.989 160.777 148.043 161.218 148.821 162.003C149.599 162.787 150.036 163.851 150.037 164.96C150.036 166.07 149.599 167.133 148.821 167.918C148.043 168.702 146.989 169.143 145.888 169.143Z" fill="black"/>
<path d="M52 174.894C52 175.588 52.2732 176.253 52.7596 176.743C53.2459 177.234 53.9056 177.509 54.5933 177.509H66.4799C68.7902 177.509 69.9474 174.693 68.3134 173.045L56.4273 161.058C54.7933 159.411 52 160.578 52 162.908V174.894ZM77.9258 130.451L56.4268 108.771C54.7933 107.124 52 108.291 52 110.62V124.139C52 124.832 52.2734 125.498 52.7599 125.988L77.9258 151.366V130.451ZM56.4268 134.915C54.7933 133.267 52 134.434 52 136.764V150.282C52 150.976 52.2734 151.641 52.7599 152.131L77.9258 177.509V156.594L56.4268 134.915Z" fill="#1D4AFF"/>
<path d="M103.852 131.534C103.852 131.19 103.785 130.85 103.654 130.533C103.524 130.215 103.333 129.927 103.092 129.684L82.3532 108.771C80.7191 107.124 77.9258 108.291 77.9258 110.62V124.139C77.9258 124.832 78.1992 125.498 78.6857 125.988L103.852 151.366V131.534ZM77.9258 177.509H92.4058C94.7161 177.509 95.8733 174.693 94.2392 173.045L77.9258 156.594V177.509ZM77.9258 130.451V150.283C77.9258 150.976 78.1992 151.641 78.6857 152.131L103.852 177.509V157.677C103.852 157.334 103.785 156.994 103.654 156.677C103.524 156.359 103.333 156.071 103.092 155.828L77.9258 130.451Z" fill="#F54E00"/>
<path d="M206.693 167.071H217.346V149.256H226.247C236.023 149.256 242.294 143.409 242.294 134.365C242.294 125.322 236.024 119.475 226.247 119.475H206.693V167.07V167.071ZM217.346 140.077V128.654H225.168C229.213 128.654 231.641 130.829 231.641 134.365C231.641 137.901 229.213 140.077 225.168 140.077H217.346V140.077ZM261.568 167.614C271.952 167.614 279.503 160.135 279.503 149.936C279.503 139.737 271.952 132.258 261.568 132.258C251.049 132.258 243.632 139.737 243.632 149.936C243.632 160.135 251.049 167.614 261.568 167.614ZM253.476 149.936C253.476 144.496 256.713 140.757 261.568 140.757C266.355 140.757 269.592 144.496 269.592 149.936C269.592 155.376 266.355 159.115 261.568 159.115C256.713 159.115 253.476 155.376 253.476 149.936ZM296.552 167.614C304.509 167.614 309.903 162.583 309.903 156.667C309.903 142.797 291.63 147.284 291.63 141.845C291.63 140.349 293.181 139.397 295.406 139.397C297.699 139.397 300.463 140.825 301.339 143.953L309.296 140.621C307.746 135.658 302.014 132.258 295.069 132.258C287.584 132.258 282.932 136.745 282.932 142.117C282.932 155.103 300.935 151.5 300.935 156.872C300.935 158.775 299.182 160.067 296.552 160.067C292.777 160.067 290.147 157.416 289.338 154.22L281.381 157.347C283.135 162.515 288.259 167.614 296.552 167.614ZM335.531 166.731L334.858 158.096C333.711 158.708 332.228 158.911 331.014 158.911C328.587 158.911 326.969 157.144 326.969 154.084V141.097H335.195V132.801H326.969V122.875H317.057V132.801H311.662V141.097H317.057V155.376C317.057 163.671 322.653 167.614 330.003 167.614C332.026 167.614 333.914 167.275 335.532 166.731H335.531ZM370.091 119.475V137.969H351.346V119.475H340.692V167.07H351.346V147.148H370.091V167.07H380.812V119.475H370.091ZM404.458 167.614C414.842 167.614 422.394 160.135 422.394 149.936C422.394 139.737 414.842 132.258 404.458 132.258C393.939 132.258 386.522 139.737 386.522 149.936C386.522 160.135 393.939 167.614 404.458 167.614ZM396.367 149.936C396.367 144.496 399.604 140.757 404.458 140.757C409.246 140.757 412.482 144.496 412.482 149.936C412.482 155.376 409.246 159.115 404.458 159.115C399.604 159.115 396.367 155.376 396.367 149.936ZM441.525 165.983C445.234 165.983 448.538 164.691 450.291 162.447V165.711C450.291 169.518 447.257 172.17 442.604 172.17C439.3 172.17 436.401 170.538 435.928 167.75L426.894 169.178C428.108 175.638 434.648 179.99 442.604 179.99C453.055 179.99 460 173.802 460 164.623V132.801H450.224V135.725C448.403 133.618 445.301 132.258 441.323 132.258C431.883 132.258 425.95 138.785 425.95 149.12C425.95 159.455 431.883 165.983 441.525 165.983ZM435.591 149.12C435.591 144.021 438.558 140.757 443.143 140.757C447.796 140.757 450.762 144.021 450.762 149.12C450.762 154.22 447.796 157.484 443.143 157.484C438.558 157.484 435.591 154.22 435.591 149.12Z" fill="black"/>
</g>
<defs>
<clipPath id="clip0_1_104">
<rect width="408" height="72" fill="white" transform="translate(52 108)"/>
</clipPath>
</defs>
</svg>
