<svg width="513" height="290" viewBox="0 0 513 290" fill="none" xmlns="http://www.w3.org/2000/svg">
<rect width="512" height="288.257" transform="translate(0.5 0.871315)" fill="white"/>
<path d="M145 154.404C149.838 154.404 153.759 150.417 153.759 145.499C153.759 140.581 149.838 136.595 145 136.595C140.163 136.595 136.241 140.581 136.241 145.499C136.241 150.417 140.163 154.404 145 154.404Z" fill="#61DAFB"/>
<path fill-rule="evenodd" clip-rule="evenodd" d="M103.358 140.274C101.287 142.175 100.484 143.945 100.484 145.501C100.484 147.056 101.287 148.827 103.358 150.728C105.429 152.628 108.565 154.455 112.652 156.042C120.809 159.208 132.245 161.219 145 161.219C157.755 161.219 169.191 159.208 177.348 156.042C181.435 154.455 184.571 152.628 186.642 150.728C188.713 148.827 189.516 147.056 189.516 145.501C189.516 143.945 188.713 142.175 186.642 140.274C184.571 138.373 181.435 136.546 177.348 134.96C169.191 131.794 157.755 129.783 145 129.783C132.245 129.783 120.809 131.794 112.652 134.96C108.565 136.546 105.429 138.373 103.358 140.274ZM110.88 130.242C119.734 126.805 131.798 124.733 145 124.733C158.202 124.733 170.266 126.805 179.12 130.242C183.538 131.957 187.285 134.061 189.971 136.525C192.656 138.99 194.484 142.019 194.484 145.501C194.484 148.983 192.656 152.012 189.971 154.476C187.285 156.941 183.538 159.044 179.12 160.76C170.266 164.196 158.202 166.269 145 166.269C131.798 166.269 119.734 164.196 110.88 160.76C106.462 159.044 102.715 156.941 100.029 154.476C97.3438 152.012 95.5162 148.983 95.5162 145.501C95.5162 142.019 97.3438 138.99 100.029 136.525C102.715 134.061 106.462 131.957 110.88 130.242Z" fill="#61DAFB"/>
<path fill-rule="evenodd" clip-rule="evenodd" d="M128.631 106.225C125.976 105.352 124.066 105.531 122.741 106.308C121.416 107.086 120.309 108.678 119.725 111.452C119.142 114.226 119.153 117.9 119.845 122.292C121.227 131.056 125.231 142.129 131.609 153.359C137.987 164.589 145.418 173.651 152.193 179.249C155.588 182.054 158.713 183.902 161.368 184.775C164.022 185.648 165.932 185.469 167.257 184.692C168.582 183.914 169.689 182.322 170.273 179.548C170.856 176.774 170.845 173.1 170.153 168.708C168.772 159.944 164.767 148.871 158.389 137.641C152.012 126.411 144.58 117.349 137.805 111.751C134.41 108.946 131.285 107.098 128.631 106.225ZM140.938 107.832C148.293 113.908 156.09 123.493 162.691 135.116C169.292 146.739 173.559 158.396 175.058 167.91C175.806 172.657 175.887 177.008 175.131 180.604C174.374 184.201 172.708 187.324 169.741 189.065C166.775 190.806 163.281 190.712 159.838 189.58C156.396 188.447 152.731 186.201 149.06 183.168C141.706 177.092 133.908 167.507 127.307 155.884C120.706 144.261 116.44 132.604 114.94 123.09C114.192 118.343 114.111 113.992 114.868 110.396C115.624 106.799 117.291 103.676 120.257 101.935C123.224 100.194 126.718 100.288 130.16 101.42C133.602 102.552 137.268 104.799 140.938 107.832Z" fill="#61DAFB"/>
<path fill-rule="evenodd" clip-rule="evenodd" d="M170.278 111.451C169.695 108.677 168.588 107.085 167.263 106.308C165.938 105.53 164.028 105.351 161.373 106.224C158.718 107.097 155.594 108.945 152.199 111.75C145.423 117.348 137.992 126.41 131.614 137.64C125.237 148.87 121.232 159.944 119.851 168.708C119.159 173.099 119.147 176.774 119.731 179.547C120.314 182.321 121.421 183.913 122.746 184.691C124.072 185.469 125.981 185.647 128.636 184.774C131.291 183.901 134.416 182.054 137.81 179.249C144.586 173.651 152.017 164.588 158.395 153.358C164.772 142.129 168.777 131.055 170.158 122.291C170.85 117.9 170.862 114.225 170.278 111.451ZM175.063 123.09C173.564 132.603 169.298 144.26 162.697 155.883C156.096 167.506 148.298 177.091 140.943 183.168C137.273 186.2 133.608 188.447 130.165 189.579C126.723 190.711 123.229 190.805 120.263 189.064C117.296 187.323 115.63 184.2 114.873 180.603C114.116 177.007 114.198 172.656 114.946 167.909C116.445 158.395 120.711 146.738 127.312 135.115C133.913 123.492 141.711 113.908 149.066 107.831C152.736 104.798 156.402 102.552 159.844 101.42C163.286 100.288 166.78 100.193 169.746 101.934C172.713 103.675 174.379 106.799 175.136 110.395C175.893 113.992 175.812 118.342 175.063 123.09Z" fill="#61DAFB"/>
<path d="M218.725 174V121.85H239.063C243.633 121.85 247.532 122.57 250.76 124.01C253.988 125.451 256.472 127.537 258.21 130.268C259.948 133 260.817 136.253 260.817 140.028C260.817 143.803 259.948 147.056 258.21 149.787C256.472 152.469 253.988 154.531 250.76 155.971C247.532 157.411 243.633 158.131 239.063 158.131H222.822L226.175 154.704V174H218.725ZM253.591 174L240.33 155.077H248.301L261.711 174H253.591ZM226.175 155.449L222.822 151.799H238.84C243.608 151.799 247.209 150.781 249.642 148.744C252.126 146.658 253.367 143.753 253.367 140.028C253.367 136.303 252.126 133.422 249.642 131.386C247.209 129.35 243.608 128.331 238.84 128.331H222.822L226.175 124.606V155.449ZM289.393 174.447C285.171 174.447 281.446 173.578 278.218 171.839C275.039 170.101 272.556 167.717 270.768 164.688C269.029 161.658 268.16 158.181 268.16 154.257C268.16 150.334 269.005 146.857 270.693 143.827C272.432 140.798 274.791 138.439 277.771 136.75C280.8 135.012 284.203 134.142 287.977 134.142C291.802 134.142 295.179 134.987 298.109 136.675C301.04 138.364 303.324 140.748 304.963 143.827C306.652 146.857 307.496 150.408 307.496 154.481C307.496 154.779 307.471 155.127 307.422 155.524C307.422 155.921 307.397 156.294 307.347 156.641H273.748V151.501H303.622L300.717 153.289C300.766 150.756 300.245 148.496 299.152 146.509C298.06 144.523 296.545 142.983 294.608 141.89C292.72 140.748 290.51 140.177 287.977 140.177C285.494 140.177 283.284 140.748 281.347 141.89C279.41 142.983 277.895 144.548 276.802 146.584C275.71 148.571 275.163 150.855 275.163 153.438V154.63C275.163 157.262 275.759 159.621 276.951 161.707C278.193 163.744 279.906 165.333 282.092 166.475C284.277 167.618 286.785 168.189 289.616 168.189C291.951 168.189 294.061 167.792 295.949 166.997C297.886 166.202 299.574 165.01 301.015 163.421L304.963 168.04C303.175 170.126 300.94 171.715 298.258 172.808C295.626 173.901 292.671 174.447 289.393 174.447ZM340.847 174V165.656L340.474 164.091V149.862C340.474 146.832 339.58 144.498 337.792 142.859C336.054 141.17 333.421 140.326 329.895 140.326C327.561 140.326 325.276 140.723 323.041 141.518C320.806 142.263 318.919 143.281 317.379 144.572L314.399 139.208C316.435 137.569 318.869 136.328 321.7 135.483C324.581 134.589 327.586 134.142 330.715 134.142C336.128 134.142 340.3 135.459 343.231 138.091C346.161 140.723 347.626 144.746 347.626 150.16V174H340.847ZM327.884 174.447C324.953 174.447 322.371 173.95 320.136 172.957C317.95 171.964 316.262 170.598 315.07 168.859C313.878 167.071 313.282 165.06 313.282 162.825C313.282 160.689 313.778 158.752 314.772 157.014C315.815 155.276 317.478 153.885 319.763 152.842C322.097 151.799 325.226 151.277 329.15 151.277H341.666V156.418H329.448C325.872 156.418 323.463 157.014 322.222 158.206C320.98 159.398 320.359 160.838 320.359 162.527C320.359 164.464 321.129 166.028 322.669 167.22C324.208 168.363 326.344 168.934 329.076 168.934C331.758 168.934 334.092 168.338 336.079 167.146C338.115 165.954 339.58 164.216 340.474 161.931L341.89 166.848C340.946 169.182 339.282 171.045 336.898 172.435C334.514 173.776 331.509 174.447 327.884 174.447ZM378.071 174.447C374.048 174.447 370.447 173.578 367.269 171.839C364.14 170.101 361.681 167.717 359.893 164.688C358.105 161.658 357.211 158.181 357.211 154.257C357.211 150.334 358.105 146.857 359.893 143.827C361.681 140.798 364.14 138.439 367.269 136.75C370.447 135.012 374.048 134.142 378.071 134.142C381.647 134.142 384.826 134.863 387.607 136.303C390.438 137.694 392.623 139.78 394.163 142.561L388.725 146.062C387.433 144.125 385.844 142.71 383.957 141.816C382.119 140.872 380.132 140.4 377.997 140.4C375.414 140.4 373.104 140.972 371.068 142.114C369.032 143.256 367.418 144.87 366.226 146.956C365.034 148.993 364.438 151.426 364.438 154.257C364.438 157.088 365.034 159.547 366.226 161.633C367.418 163.719 369.032 165.333 371.068 166.475C373.104 167.618 375.414 168.189 377.997 168.189C380.132 168.189 382.119 167.742 383.957 166.848C385.844 165.904 387.433 164.464 388.725 162.527L394.163 165.954C392.623 168.686 390.438 170.796 387.607 172.286C384.826 173.727 381.647 174.447 378.071 174.447ZM417.491 174.447C413.518 174.447 410.438 173.379 408.253 171.243C406.068 169.108 404.975 166.053 404.975 162.08V125.873H412.127V161.782C412.127 163.918 412.648 165.557 413.691 166.699C414.784 167.841 416.324 168.412 418.31 168.412C420.545 168.412 422.408 167.792 423.898 166.55L426.133 171.69C425.04 172.634 423.724 173.329 422.184 173.776C420.694 174.224 419.13 174.447 417.491 174.447ZM398.27 140.4V134.515H423.451V140.4H398.27Z" fill="black"/>
</svg>
