<svg width="512" height="290" viewBox="0 0 512 290" fill="none" xmlns="http://www.w3.org/2000/svg">
<rect width="512" height="288.257" transform="translate(0 0.871315)" fill="white"/>
<g clip-path="url(#clip0_1_40)">
<path d="M149.125 138.981H107.839C106.262 138.981 104.974 137.703 104.974 136.191V131.366C104.974 129.828 106.288 128.576 107.839 128.576H149.387C150.964 128.576 152.252 129.854 152.252 131.366V136.191C151.989 137.729 150.675 138.981 149.125 138.981Z" fill="#6ADDB2"/>
<path d="M76.3029 159.842C74.7261 159.842 73.4121 158.538 73.4121 156.974V152.019C73.4121 150.715 74.7261 149.412 76.3029 149.412H117.983C119.56 149.412 120.874 150.715 120.874 152.28V157.235C120.611 158.538 119.297 159.842 117.72 159.842H76.3029Z" fill="#6ADDB2"/>
<path d="M89.0486 178.096C91.9394 178.096 94.3046 175.749 94.3046 172.881C94.3046 170.012 91.9394 167.665 89.0486 167.665C86.1578 167.665 83.7926 170.012 83.7926 172.881C83.7926 175.749 86.1578 178.096 89.0486 178.096Z" fill="#6ADDB2"/>
<path d="M136.353 120.727C139.243 120.727 141.609 118.38 141.609 115.512C141.609 112.643 139.243 110.296 136.353 110.296C133.462 110.296 131.097 112.643 131.097 115.512C131.097 118.38 133.462 120.727 136.353 120.727Z" fill="#6ADDB2"/>
<path d="M112.701 175.488C109.81 175.488 106.919 174.967 104.291 174.185C102.977 173.924 101.663 174.445 101.137 175.749L99.2978 180.704C98.7722 182.008 99.5606 183.572 101.137 184.094C104.817 185.398 108.759 185.919 112.701 185.919C129.783 185.919 144.499 175.749 151.069 161.146C151.595 159.842 151.069 158.017 149.493 157.495L144.499 155.67C143.185 155.148 141.871 155.67 141.346 156.974C136.353 167.926 125.578 175.488 112.701 175.488Z" fill="#6ADDB2"/>
<path d="M112.701 112.904C115.591 112.904 118.482 113.425 121.11 114.208C122.424 114.468 123.738 113.947 124.264 112.643L126.103 107.688C126.629 106.385 125.841 104.82 124.264 104.298C120.585 102.995 116.643 102.473 112.701 102.473C95.6187 102.473 80.9019 112.643 74.3319 127.246C73.8063 128.55 74.3319 130.375 75.9087 130.897L80.9019 132.722C82.2159 133.244 83.5299 132.722 84.0555 131.418C89.0487 120.466 99.8235 112.904 112.701 112.904Z" fill="#6ADDB2"/>
<path d="M185.128 178.122V172.568C189.438 176.792 194.405 179.009 199.714 179.009C204.208 179.009 206.783 176.871 206.783 173.507C206.783 169.282 202.683 168.813 197.979 168.291C191.909 167.587 184.603 166.674 184.603 158.799C184.603 152.202 190.043 148.368 197.217 148.368C204.391 148.368 208.596 150.741 211.461 152.932V158.434C207.782 154.601 202.946 152.697 197.401 152.645C192.382 152.645 189.937 154.966 189.937 158.33C189.937 162.215 194.195 162.789 198.925 163.311C205.048 164.015 212.249 165.058 212.249 173.089C212.249 179.296 207.466 183.39 199.976 183.39C192.487 183.39 188.597 181.069 185.155 178.122H185.128Z" fill="#121C2D"/>
<path d="M216.717 165.501C216.717 154.888 223.366 148.342 232.59 148.342C241.289 148.342 247.543 153.61 247.543 164.614V167.222H222.209C222.682 175.567 228.333 178.878 236.059 178.878C241.21 178.878 244.521 177.027 246.86 175.123V180C244.994 181.46 241.551 183.416 235.113 183.416C223.681 183.416 216.717 177.157 216.717 166.335V165.501ZM222.262 163.18H242.051C241.709 156.113 238.188 152.645 232.537 152.645C226.887 152.645 223.024 156.061 222.262 163.18Z" fill="#121C2D"/>
<path d="M250.828 189.022C250.828 185.267 253.745 182.529 260.578 182.06C260.631 182.06 260.683 182.008 260.683 181.956C260.683 181.903 260.631 181.851 260.578 181.851C254.56 181.851 252.352 180.391 252.352 177.496C252.352 174.837 255.164 172.333 261.997 172.281C262.05 172.281 262.102 172.229 262.102 172.177C262.102 172.125 262.05 172.072 261.997 172.072C256.032 171.212 252.536 167.04 252.536 160.729C252.536 153.323 258.265 148.395 266.675 148.395C270.591 148.395 272.457 148.968 274.953 148.968H283.994V153.375H277.056C279.263 154.94 280.682 157.939 280.682 161.25C280.682 167.744 275.61 172.959 266.964 172.959H264.862C260.184 172.959 257.74 173.95 257.74 175.671C257.74 177.522 259.369 177.809 265.571 177.809H271.826C279.815 177.809 283.862 179.843 283.862 185.632C283.862 191.421 278.843 196.011 266.228 196.011H265.414C254.271 196.011 250.881 193.221 250.881 189.048L250.828 189.022ZM278.501 186.415C278.501 183.285 275.926 182.477 270.67 182.477H265.125C258.476 182.477 256.189 184.85 256.189 187.588C256.189 190.092 258.712 191.813 265.887 191.813H266.517C275.269 191.813 278.475 189.726 278.475 186.415H278.501ZM275.4 160.859C275.4 155.983 272.299 152.176 266.649 152.176C260.999 152.176 257.845 155.54 257.845 160.859C257.845 165.501 260.946 169.021 266.649 169.021C272.352 169.021 275.4 165.501 275.4 160.859Z" fill="#121C2D"/>
<path d="M288.566 148.942H293.927V160.416C294.926 152.071 298.71 148.368 305.307 148.368C312.718 148.368 316.581 152.645 317.212 159.999C318.21 152.228 322.047 148.368 328.643 148.368C336.711 148.368 340.732 153.688 340.732 162.606V182.816H335.292V163.65C335.292 157.156 332.717 152.802 326.541 152.802C321.232 152.802 317.317 156.87 317.369 164.093V182.816H311.929V163.232C311.929 157.026 309.301 152.802 303.178 152.802C297.975 152.802 293.954 156.87 293.954 164.745V182.816H288.514V148.916L288.566 148.942Z" fill="#121C2D"/>
<path d="M346.303 165.501C346.303 154.888 352.952 148.342 362.177 148.342C370.875 148.342 377.13 153.61 377.13 164.614V167.222H351.796C352.269 175.567 357.919 178.878 365.646 178.878C370.796 178.878 374.108 177.027 376.447 175.123V180C374.581 181.46 371.138 183.416 364.699 183.416C353.268 183.416 346.303 177.157 346.303 166.335V165.501ZM351.849 163.18H371.637C371.296 156.113 367.774 152.645 362.124 152.645C356.474 152.645 352.611 156.061 351.849 163.18Z" fill="#121C2D"/>
<path d="M388.246 148.942V160.364C389.403 151.785 393.792 148.368 400.283 148.368C409.034 148.368 413.239 153.766 413.239 162.972V182.842H407.799V164.067C407.799 157.182 405.066 152.828 398.285 152.828C392.609 152.828 388.299 157.104 388.299 165.345V182.842H382.859V148.942H388.246Z" fill="#121C2D"/>
<path d="M422.41 172.568V153.323H416.235V149.438L418.101 149.385C421.648 149.203 422.778 147.873 423.067 143.596L423.251 141.093H427.85V148.916H439.466V153.323H427.85V172.385C427.85 176.792 429.9 178.748 433.921 178.748C436.023 178.748 438.126 178.279 439.466 177.418V181.643C438.126 182.503 435.734 183.259 432.397 183.259C425.511 183.259 422.41 179.948 422.41 172.542V172.568Z" fill="#121C2D"/>
<path d="M213.484 133.087L206.126 107.193V114.051C206.126 114.416 205.889 114.651 205.522 114.651H200.686V121.874C200.686 124.456 201.343 125.212 203.419 125.212C204.208 125.212 204.97 125.16 205.653 124.847C206.179 124.586 206.573 124.795 206.573 125.212V132.488C206.573 132.905 206.415 133.166 206.021 133.348C204.681 133.974 202.131 134.365 199.03 134.365C191.015 134.365 188.387 130.61 188.387 123.987V114.625H184.419C184.051 114.625 183.788 114.364 183.788 113.999V106.306C183.788 105.941 184.051 105.681 184.419 105.681H187.073C188.15 105.681 188.729 105.211 188.729 104.142V99.8133C188.729 99.4482 188.939 99.1353 189.307 99.031L199.582 95.7453C200.108 95.5888 200.423 95.7974 200.423 96.2668V105.42H216.769C217.137 105.42 217.348 105.576 217.453 105.994L219.844 118.432L222.236 105.994C222.288 105.628 222.551 105.42 222.919 105.42H233.878C234.246 105.42 234.508 105.628 234.561 105.994L237.031 118.432L239.475 105.994C239.58 105.576 239.791 105.42 240.159 105.42H261.734C262.102 105.42 262.365 105.681 262.365 106.046V132.957C262.365 133.322 262.102 133.583 261.734 133.583H250.644C250.276 133.583 250.014 133.322 250.014 132.957V107.193L242.971 133.087C242.865 133.452 242.603 133.609 242.182 133.609H232.117C231.749 133.609 231.591 133.452 231.486 133.087L228.254 120.857L224.916 133.087C224.811 133.452 224.653 133.609 224.285 133.609H214.22C213.8 133.609 213.537 133.452 213.432 133.087H213.484ZM250.014 102.395C250.014 102.76 250.276 103.021 250.644 103.021H261.734C262.102 103.021 262.365 102.76 262.365 102.395V96.319C262.365 95.9539 262.102 95.6931 261.734 95.6931H250.644C250.276 95.6931 250.014 95.9539 250.014 96.319V102.421V102.395ZM264.809 132.983C264.809 133.348 265.072 133.609 265.44 133.609H276.53C276.898 133.609 277.161 133.348 277.161 132.983V96.319C277.161 95.9539 276.898 95.6931 276.53 95.6931H265.44C265.072 95.6931 264.809 95.9539 264.809 96.319V133.009V132.983ZM279.605 132.983C279.605 133.348 279.868 133.609 280.236 133.609H291.299C291.667 133.609 291.93 133.348 291.93 132.983V106.098C291.93 105.733 291.667 105.472 291.299 105.472H280.236C279.868 105.472 279.605 105.733 279.605 106.098V133.009V132.983ZM279.605 102.395C279.605 102.76 279.868 103.021 280.236 103.021H291.299C291.667 103.021 291.93 102.76 291.93 102.395V96.319C291.93 95.9539 291.667 95.6931 291.299 95.6931H280.236C279.868 95.6931 279.605 95.9539 279.605 96.319V102.421V102.395ZM325.7 119.11V119.788C325.7 128.159 319.288 134.469 309.801 134.469C300.313 134.469 293.849 128.159 293.849 119.788V119.11C293.849 110.74 300.34 104.611 309.801 104.611C319.261 104.611 325.7 110.74 325.7 119.11ZM313.874 119.293C313.874 115.433 312.087 113.921 309.801 113.921C307.514 113.921 305.727 115.433 305.727 119.293V119.788C305.727 123.595 307.514 125.186 309.801 125.186C312.087 125.186 313.874 123.595 313.874 119.788V119.293Z" fill="#121C2D"/>
</g>
<defs>
<clipPath id="clip0_1_40">
<rect width="394.2" height="101.7" fill="white" transform="translate(62.9 94.65)"/>
</clipPath>
</defs>
</svg>
