<svg width="512" height="290" viewBox="0 0 512 290" fill="none" xmlns="http://www.w3.org/2000/svg">
<rect width="512" height="288.257" transform="translate(0 0.871315)" fill="white"/>
<path d="M136.805 138.256H90.9319C89.1799 138.256 87.7491 136.837 87.7491 135.156V129.796C87.7491 128.086 89.2091 126.696 90.9319 126.696H137.097C138.849 126.696 140.28 128.115 140.28 129.796V135.156C139.988 136.866 138.528 138.256 136.805 138.256Z" fill="#6ADDB2"/>
<path d="M55.8921 161.436C54.1401 161.436 52.6801 159.987 52.6801 158.249V152.744C52.6801 151.295 54.1401 149.846 55.8921 149.846H102.203C103.955 149.846 105.415 151.295 105.415 153.033V158.538C105.123 159.987 103.663 161.436 101.911 161.436H55.8921Z" fill="#6ADDB2"/>
<path d="M70.054 181.718C73.266 181.718 75.894 179.11 75.894 175.923C75.894 172.736 73.266 170.128 70.054 170.128C66.842 170.128 64.214 172.736 64.214 175.923C64.214 179.11 66.842 181.718 70.054 181.718Z" fill="#6ADDB2"/>
<path d="M122.614 117.974C125.826 117.974 128.454 115.367 128.454 112.179C128.454 108.992 125.826 106.385 122.614 106.385C119.402 106.385 116.774 108.992 116.774 112.179C116.774 115.367 119.402 117.974 122.614 117.974Z" fill="#6ADDB2"/>
<path d="M96.334 178.821C93.122 178.821 89.91 178.241 86.99 177.372C85.53 177.082 84.07 177.662 83.486 179.11L81.442 184.615C80.858 186.064 81.734 187.803 83.486 188.382C87.574 189.831 91.954 190.41 96.334 190.41C115.314 190.41 131.666 179.11 138.966 162.885C139.55 161.436 138.966 159.408 137.214 158.828L131.666 156.8C130.206 156.221 128.746 156.8 128.162 158.249C122.614 170.418 110.642 178.821 96.334 178.821Z" fill="#6ADDB2"/>
<path d="M96.334 109.282C99.546 109.282 102.758 109.862 105.678 110.731C107.138 111.021 108.598 110.441 109.182 108.992L111.226 103.487C111.81 102.038 110.934 100.3 109.182 99.7205C105.094 98.2718 100.714 97.6923 96.334 97.6923C77.354 97.6923 61.002 108.992 53.702 125.218C53.118 126.667 53.702 128.695 55.454 129.274L61.002 131.303C62.462 131.882 63.922 131.303 64.506 129.854C70.054 117.685 82.026 109.282 96.334 109.282Z" fill="#6ADDB2"/>
<path d="M176.809 181.747V175.575C181.598 180.269 187.117 182.732 193.015 182.732C198.008 182.732 200.87 180.356 200.87 176.618C200.87 171.925 196.315 171.403 191.088 170.824C184.343 170.041 176.225 169.027 176.225 160.277C176.225 152.946 182.27 148.687 190.241 148.687C198.213 148.687 202.885 151.324 206.068 153.758V159.871C201.98 155.612 196.607 153.497 190.446 153.439C184.868 153.439 182.153 156.018 182.153 159.755C182.153 164.073 186.883 164.71 192.139 165.289C198.943 166.072 206.944 167.231 206.944 176.155C206.944 183.051 201.629 187.6 193.307 187.6C184.985 187.6 180.664 185.021 176.838 181.747H176.809Z" fill="#121C2D"/>
<path d="M211.908 167.723C211.908 155.931 219.295 148.658 229.544 148.658C239.21 148.658 246.159 154.511 246.159 166.738V169.636H218.01C218.536 178.907 224.814 182.587 233.399 182.587C239.122 182.587 242.801 180.53 245.4 178.415V183.833C243.327 185.456 239.502 187.629 232.348 187.629C219.646 187.629 211.908 180.675 211.908 168.651V167.723ZM218.069 165.145H240.056C239.677 157.293 235.764 153.439 229.486 153.439C223.208 153.439 218.916 157.235 218.069 165.145Z" fill="#121C2D"/>
<path d="M249.809 193.858C249.809 189.686 253.05 186.644 260.642 186.122C260.701 186.122 260.759 186.064 260.759 186.006C260.759 185.948 260.701 185.89 260.642 185.89C253.956 185.89 251.503 184.268 251.503 181.052C251.503 178.096 254.627 175.315 262.219 175.257C262.278 175.257 262.336 175.199 262.336 175.141C262.336 175.083 262.278 175.025 262.219 175.025C255.591 174.069 251.707 169.433 251.707 162.421C251.707 154.192 258.073 148.716 267.417 148.716C271.768 148.716 273.841 149.354 276.615 149.354H286.66V154.25H278.951C281.404 155.989 282.98 159.321 282.98 163.001C282.98 170.215 277.345 176.01 267.738 176.01H265.402C260.204 176.01 257.489 177.111 257.489 179.023C257.489 181.081 259.299 181.399 266.19 181.399H273.14C282.017 181.399 286.514 183.659 286.514 190.092C286.514 196.524 280.936 201.623 266.92 201.623H266.015C253.634 201.623 249.868 198.523 249.868 193.887L249.809 193.858ZM280.557 190.961C280.557 187.484 277.695 186.586 271.855 186.586H265.694C258.306 186.586 255.766 189.222 255.766 192.265C255.766 195.046 258.569 196.958 266.541 196.958H267.242C276.965 196.958 280.528 194.641 280.528 190.961H280.557ZM277.111 162.566C277.111 157.148 273.666 152.917 267.388 152.917C261.11 152.917 257.606 156.655 257.606 162.566C257.606 167.723 261.051 171.635 267.388 171.635C273.724 171.635 277.111 167.723 277.111 162.566Z" fill="#121C2D"/>
<path d="M291.74 149.325H297.697V162.073C298.807 152.802 303.012 148.687 310.341 148.687C318.575 148.687 322.868 153.439 323.568 161.61C324.678 152.975 328.941 148.687 336.27 148.687C345.235 148.687 349.702 154.598 349.702 164.507V186.962H343.658V165.666C343.658 158.452 340.796 153.613 333.934 153.613C328.036 153.613 323.685 158.133 323.744 166.159V186.962H317.699V165.203C317.699 158.307 314.779 153.613 307.976 153.613C302.194 153.613 297.726 158.133 297.726 166.883V186.962H291.682V149.296L291.74 149.325Z" fill="#121C2D"/>
<path d="M355.893 167.723C355.893 155.931 363.28 148.658 373.53 148.658C383.195 148.658 390.144 154.511 390.144 166.738V169.636H361.996C362.521 178.907 368.799 182.587 377.384 182.587C383.107 182.587 386.786 180.53 389.385 178.415V183.833C387.312 185.456 383.487 187.629 376.333 187.629C363.631 187.629 355.893 180.675 355.893 168.651V167.723ZM362.054 165.145H384.042C383.662 157.293 379.749 153.439 373.471 153.439C367.193 153.439 362.901 157.235 362.054 165.145Z" fill="#121C2D"/>
<path d="M402.496 149.325V162.015C403.781 152.483 408.657 148.687 415.87 148.687C425.593 148.687 430.265 154.685 430.265 164.913V186.991H424.221V166.13C424.221 158.481 421.184 153.642 413.65 153.642C407.343 153.642 402.554 158.394 402.554 167.549V186.991H396.51V149.325H402.496Z" fill="#121C2D"/>
<path d="M440.456 175.575V154.192H433.594V149.875L435.667 149.817C439.609 149.614 440.865 148.137 441.186 143.385L441.39 140.603H446.5V149.296H459.407V154.192H446.5V175.373C446.5 180.269 448.778 182.442 453.246 182.442C455.582 182.442 457.918 181.921 459.407 180.965V185.658C457.918 186.615 455.26 187.455 451.552 187.455C443.902 187.455 440.456 183.775 440.456 175.546V175.575Z" fill="#121C2D"/>
<path d="M208.316 131.708L200.14 102.937V110.557C200.14 110.963 199.877 111.223 199.468 111.223H194.096V119.249C194.096 122.118 194.826 122.958 197.132 122.958C198.008 122.958 198.855 122.9 199.614 122.552C200.198 122.263 200.636 122.494 200.636 122.958V131.042C200.636 131.505 200.461 131.795 200.023 131.998C198.534 132.693 195.702 133.128 192.256 133.128C183.35 133.128 180.43 128.956 180.43 121.596V111.194H176.021C175.612 111.194 175.32 110.905 175.32 110.499V101.952C175.32 101.546 175.612 101.256 176.021 101.256H178.97C180.167 101.256 180.81 100.735 180.81 99.5467V94.737C180.81 94.3313 181.043 93.9836 181.452 93.8677L192.869 90.217C193.453 90.0431 193.804 90.2749 193.804 90.7965V100.966H211.966C212.375 100.966 212.608 101.14 212.725 101.604L215.382 115.425L218.04 101.604C218.098 101.198 218.39 100.966 218.799 100.966H230.975C231.384 100.966 231.676 101.198 231.734 101.604L234.479 115.425L237.195 101.604C237.312 101.14 237.545 100.966 237.954 100.966H261.927C262.336 100.966 262.628 101.256 262.628 101.662V131.563C262.628 131.969 262.336 132.259 261.927 132.259H249.605C249.196 132.259 248.904 131.969 248.904 131.563V102.937L241.078 131.708C240.962 132.114 240.67 132.288 240.202 132.288H229.019C228.61 132.288 228.435 132.114 228.318 131.708L224.726 118.119L221.018 131.708C220.901 132.114 220.726 132.288 220.317 132.288H209.134C208.666 132.288 208.374 132.114 208.258 131.708H208.316ZM248.904 97.6054C248.904 98.0111 249.196 98.3008 249.605 98.3008H261.927C262.336 98.3008 262.628 98.0111 262.628 97.6054V90.8544C262.628 90.4488 262.336 90.159 261.927 90.159H249.605C249.196 90.159 248.904 90.4488 248.904 90.8544V97.6344V97.6054ZM265.344 131.592C265.344 131.998 265.636 132.288 266.044 132.288H278.367C278.776 132.288 279.068 131.998 279.068 131.592V90.8544C279.068 90.4488 278.776 90.159 278.367 90.159H266.044C265.636 90.159 265.344 90.4488 265.344 90.8544V131.621V131.592ZM281.783 131.592C281.783 131.998 282.075 132.288 282.484 132.288H294.777C295.186 132.288 295.478 131.998 295.478 131.592V101.72C295.478 101.314 295.186 101.024 294.777 101.024H282.484C282.075 101.024 281.783 101.314 281.783 101.72V131.621V131.592ZM281.783 97.6054C281.783 98.0111 282.075 98.3008 282.484 98.3008H294.777C295.186 98.3008 295.478 98.0111 295.478 97.6054V90.8544C295.478 90.4488 295.186 90.159 294.777 90.159H282.484C282.075 90.159 281.783 90.4488 281.783 90.8544V97.6344V97.6054ZM333 116.178V116.931C333 126.232 325.875 133.244 315.334 133.244C304.793 133.244 297.61 126.232 297.61 116.931V116.178C297.61 106.877 304.822 100.068 315.334 100.068C325.846 100.068 333 106.877 333 116.178ZM319.86 116.381C319.86 112.093 317.874 110.412 315.334 110.412C312.794 110.412 310.808 112.093 310.808 116.381V116.931C310.808 121.162 312.794 122.929 315.334 122.929C317.874 122.929 319.86 121.162 319.86 116.931V116.381Z" fill="#121C2D"/>
</svg>
