<svg width="513" height="290" viewBox="0 0 513 290" fill="none" xmlns="http://www.w3.org/2000/svg">
<rect width="512" height="288.257" transform="translate(0.5 0.871315)" fill="white"/>
<path d="M191.044 170.731L195.325 160.725C200.012 164.196 206.126 166.033 212.241 166.033C216.725 166.033 219.578 164.298 219.578 161.644C219.476 154.292 192.573 160.01 192.369 141.527C192.266 132.134 200.623 124.885 212.446 124.885C219.476 124.885 226.509 126.621 231.502 130.604L227.501 140.823C222.908 137.869 217.234 135.81 211.834 135.81C208.165 135.81 205.718 137.545 205.718 139.792C205.821 147.042 232.93 143.059 233.235 160.725C233.235 170.323 225.081 177.062 213.463 177.062C204.904 177.062 197.057 175.02 191.043 170.731H191.044ZM361.503 157.102C360.422 159.022 358.85 160.62 356.948 161.732C355.047 162.844 352.883 163.43 350.68 163.43C343.813 163.43 338.248 157.853 338.248 150.973C338.248 144.094 343.813 138.516 350.68 138.516C352.883 138.517 355.047 139.103 356.948 140.215C358.85 141.327 360.422 142.925 361.503 144.845L373.404 138.239C368.946 130.272 360.443 124.885 350.68 124.885C336.3 124.885 324.642 136.564 324.642 150.973C324.642 165.381 336.3 177.062 350.68 177.062C360.443 177.062 368.946 171.675 373.404 163.708L361.503 157.102ZM240.958 176.04H255.837V103.167H240.959L240.958 176.04ZM380.918 103.167V176.04H395.797V154.208L413.427 176.04H432.445L410.025 150.104L430.814 125.902H412.612L395.797 146.023V103.167H380.918ZM301.675 125.905V131.828C299.23 127.743 293.217 124.885 286.899 124.885C273.855 124.885 263.562 136.423 263.562 150.922C263.562 165.421 273.855 177.062 286.899 177.062C293.217 177.062 299.23 174.203 301.675 170.118V176.04H316.554V125.905H301.675ZM301.675 157.202C299.536 160.776 295.052 163.429 290.059 163.429C283.191 163.429 277.625 157.853 277.625 150.973C277.625 144.094 283.191 138.516 290.059 138.516C295.052 138.516 299.536 141.273 301.675 144.947V157.202Z" fill="black"/>
<path d="M112.469 101.558C107.648 101.558 103.739 105.475 103.739 110.305C103.738 111.453 103.963 112.589 104.401 113.65C104.839 114.71 105.482 115.674 106.293 116.487C107.103 117.299 108.066 117.944 109.126 118.384C110.186 118.824 111.322 119.051 112.469 119.052H121.201V110.305C121.203 107.987 120.284 105.764 118.646 104.123C117.009 102.483 114.787 101.56 112.469 101.558V101.558ZM112.469 124.884H89.1881C84.3664 124.884 80.4582 128.801 80.4582 133.633C80.4582 138.463 84.3664 142.38 89.1881 142.38H112.471C117.291 142.38 121.201 138.463 121.201 133.633C121.201 128.801 117.291 124.884 112.469 124.884" fill="#36C5F0"/>
<path d="M167.763 133.633C167.763 128.801 163.853 124.884 159.031 124.884C154.209 124.884 150.301 128.801 150.301 133.633V142.38H159.031C161.349 142.378 163.571 141.455 165.208 139.815C166.846 138.174 167.764 135.951 167.763 133.633V133.633ZM144.481 133.633V110.305C144.483 107.987 143.565 105.764 141.927 104.123C140.29 102.483 138.068 101.56 135.75 101.558C130.928 101.558 127.02 105.475 127.02 110.305V133.631C127.02 138.465 130.928 142.382 135.75 142.382C138.068 142.379 140.29 141.457 141.927 139.816C143.565 138.176 144.483 135.952 144.481 133.634" fill="#2EB67D"/>
<path d="M135.75 189.035C138.068 189.032 140.29 188.109 141.927 186.469C143.565 184.828 144.483 182.605 144.481 180.287C144.483 177.969 143.565 175.746 141.927 174.105C140.29 172.465 138.068 171.542 135.75 171.54H127.02V180.287C127.02 185.118 130.928 189.035 135.75 189.035ZM135.75 165.708H159.033C163.853 165.708 167.763 161.791 167.763 156.959C167.764 154.641 166.846 152.418 165.208 150.777C163.571 149.137 161.349 148.214 159.031 148.212H135.75C130.928 148.212 127.02 152.129 127.02 156.959C127.019 158.107 127.244 159.243 127.682 160.304C128.12 161.365 128.763 162.329 129.573 163.141C130.384 163.953 131.347 164.598 132.407 165.038C133.466 165.478 134.602 165.705 135.75 165.707" fill="#ECB22E"/>
<path d="M80.4577 156.96C80.4565 158.107 80.6814 159.244 81.1195 160.304C81.5576 161.365 82.2003 162.329 83.011 163.141C83.8216 163.954 84.7843 164.598 85.8441 165.039C86.9039 165.479 88.04 165.706 89.1876 165.707C91.5053 165.705 93.7273 164.782 95.3647 163.142C97.0021 161.501 97.9208 159.277 97.9189 156.96V148.212H89.1876C84.3659 148.212 80.4577 152.129 80.4577 156.96V156.96ZM103.739 156.96V180.286C103.739 185.118 107.647 189.035 112.469 189.035C114.786 189.033 117.008 188.11 118.646 186.469C120.283 184.829 121.202 182.605 121.2 180.288V156.96C121.201 155.812 120.976 154.675 120.538 153.615C120.1 152.554 119.457 151.59 118.646 150.777C117.835 149.965 116.873 149.321 115.813 148.88C114.753 148.44 113.616 148.213 112.469 148.212C107.647 148.212 103.739 152.129 103.739 156.96Z" fill="#E01E5A"/>
</svg>
