<svg width="513" height="290" viewBox="0 0 513 290" fill="none" xmlns="http://www.w3.org/2000/svg">
<rect width="512" height="288.257" transform="translate(0.5 0.871315)" fill="white"/>
<path d="M183.777 173.557L188.533 162.439C193.742 166.296 200.534 168.337 207.329 168.337C212.311 168.337 215.481 166.41 215.481 163.461C215.368 155.292 185.476 161.645 185.248 141.108C185.135 130.671 194.42 122.617 207.556 122.617C215.368 122.617 223.182 124.546 228.73 128.971L224.285 140.326C219.181 137.044 212.877 134.756 206.876 134.756C202.8 134.756 200.081 136.683 200.081 139.181C200.195 147.236 230.316 142.81 230.656 162.439C230.656 173.104 221.596 180.592 208.687 180.592C199.177 180.592 190.458 178.323 183.775 173.557H183.777ZM373.175 158.413C371.974 160.547 370.228 162.322 368.115 163.558C366.002 164.793 363.598 165.445 361.15 165.445C353.52 165.445 347.336 159.248 347.336 151.604C347.336 143.96 353.52 137.763 361.15 137.763C363.598 137.763 366.002 138.415 368.115 139.65C370.228 140.886 371.974 142.662 373.175 144.795L386.399 137.455C381.446 128.602 371.998 122.617 361.15 122.617C345.172 122.617 332.219 135.594 332.219 151.604C332.219 167.613 345.172 180.592 361.15 180.592C371.998 180.592 381.446 174.606 386.399 165.754L373.175 158.413ZM239.236 179.456H255.768V98.4862H239.238L239.236 179.456ZM394.748 98.4862V179.456H411.279V155.198L430.869 179.456H452L427.089 150.638L450.188 123.747H429.963L411.279 146.104V98.4862H394.748ZM306.7 123.75V130.332C303.983 125.793 297.302 122.617 290.282 122.617C275.788 122.617 264.352 135.438 264.352 151.547C264.352 167.657 275.788 180.592 290.282 180.592C297.302 180.592 303.983 177.415 306.7 172.876V179.456H323.232V123.75H306.7ZM306.7 158.525C304.323 162.496 299.341 165.443 293.793 165.443C286.162 165.443 279.978 159.248 279.978 151.604C279.978 143.96 286.162 137.763 293.793 137.763C299.341 137.763 304.323 140.826 306.7 144.909V158.525Z" fill="black"/>
<path d="M96.4712 96.6978C91.1137 96.6978 86.7713 101.05 86.7713 106.417C86.77 107.692 87.0199 108.955 87.5067 110.134C87.9934 111.312 88.7076 112.383 89.6083 113.286C90.509 114.188 91.5787 114.904 92.7562 115.394C93.9337 115.883 95.1961 116.135 96.4712 116.136H106.173V106.417C106.175 103.842 105.154 101.371 103.335 99.5484C101.515 97.7258 99.0464 96.7004 96.4712 96.6978V96.6978ZM96.4712 122.616H70.6032C65.2458 122.616 60.9034 126.968 60.9034 132.337C60.9034 137.704 65.2458 142.056 70.6032 142.056H96.4728C101.829 142.056 106.173 137.704 106.173 132.337C106.173 126.968 101.829 122.616 96.4712 122.616" fill="#36C5F0"/>
<path d="M157.908 132.337C157.908 126.968 153.564 122.616 148.207 122.616C142.849 122.616 138.507 126.968 138.507 132.337V142.056H148.207C150.782 142.054 153.251 141.028 155.07 139.206C156.889 137.383 157.91 134.912 157.908 132.337V132.337ZM132.04 132.337V106.417C132.042 103.842 131.022 101.371 129.202 99.5484C127.383 97.7258 124.914 96.7004 122.339 96.6978C116.981 96.6978 112.639 101.05 112.639 106.417V132.335C112.639 137.706 116.981 142.058 122.339 142.058C124.914 142.055 127.383 141.03 129.202 139.207C131.022 137.385 132.042 134.914 132.04 132.339" fill="#2EB67D"/>
<path d="M122.339 193.894C124.914 193.892 127.383 192.866 129.202 191.044C131.022 189.221 132.042 186.75 132.04 184.175C132.042 181.6 131.022 179.129 129.202 177.306C127.383 175.484 124.914 174.458 122.339 174.456H112.639V184.175C112.639 189.542 116.981 193.894 122.339 193.894ZM122.339 167.976H148.208C153.564 167.976 157.908 163.624 157.908 158.255C157.91 155.68 156.889 153.209 155.07 151.386C153.251 149.564 150.782 148.538 148.207 148.536H122.339C116.981 148.536 112.639 152.888 112.639 158.255C112.638 159.53 112.888 160.793 113.374 161.972C113.861 163.15 114.575 164.221 115.476 165.124C116.377 166.026 117.446 166.742 118.624 167.232C119.801 167.721 121.064 167.973 122.339 167.974" fill="#ECB22E"/>
<path d="M60.9028 158.256C60.9016 159.531 61.1514 160.794 61.6382 161.972C62.125 163.151 62.8391 164.222 63.7398 165.124C64.6405 166.027 65.7102 166.743 66.8877 167.232C68.0653 167.721 69.3276 167.974 70.6027 167.975C73.178 167.972 75.6468 166.947 77.4661 165.124C79.2855 163.302 80.3063 160.831 80.3042 158.256V148.536H70.6027C65.2453 148.536 60.9028 152.888 60.9028 158.256V158.256ZM86.7708 158.256V184.174C86.7708 189.543 91.1132 193.895 96.4706 193.895C99.0459 193.892 101.515 192.867 103.334 191.044C105.153 189.222 106.174 186.751 106.172 184.176V158.256C106.173 156.98 105.923 155.717 105.437 154.539C104.95 153.36 104.235 152.289 103.335 151.386C102.434 150.484 101.364 149.768 100.186 149.279C99.0084 148.79 97.7458 148.537 96.4706 148.536C91.1132 148.536 86.7708 152.888 86.7708 158.256Z" fill="#E01E5A"/>
</svg>
