<svg width="512" height="290" viewBox="0 0 512 290" fill="none" xmlns="http://www.w3.org/2000/svg">
<rect width="512" height="288.257" transform="translate(0 0.871315)" fill="white"/>
<rect x="132" y="92" width="105" height="105" rx="14" fill="#3178C6"/>
<path d="M213.343 153.954C213.178 152.3 212.474 151.015 211.23 150.099C209.986 149.183 208.298 148.725 206.165 148.725C204.716 148.725 203.492 148.93 202.494 149.34C201.496 149.736 200.73 150.29 200.197 151.001C199.677 151.712 199.418 152.519 199.418 153.421C199.39 154.173 199.548 154.829 199.889 155.39C200.245 155.95 200.73 156.436 201.345 156.846C201.961 157.242 202.672 157.591 203.478 157.892C204.285 158.179 205.146 158.425 206.062 158.63L209.836 159.532C211.668 159.942 213.349 160.489 214.881 161.173C216.412 161.856 217.738 162.697 218.859 163.695C219.98 164.693 220.848 165.869 221.464 167.223C222.093 168.576 222.414 170.128 222.427 171.878C222.414 174.448 221.758 176.677 220.459 178.563C219.174 180.437 217.314 181.893 214.881 182.932C212.461 183.957 209.542 184.47 206.124 184.47C202.733 184.47 199.78 183.95 197.264 182.911C194.762 181.872 192.807 180.334 191.399 178.297C190.005 176.246 189.273 173.71 189.205 170.688H197.798C197.893 172.097 198.297 173.272 199.008 174.216C199.732 175.146 200.696 175.85 201.899 176.328C203.116 176.793 204.49 177.025 206.021 177.025C207.525 177.025 208.831 176.807 209.938 176.369C211.059 175.932 211.927 175.323 212.543 174.544C213.158 173.765 213.466 172.869 213.466 171.857C213.466 170.914 213.185 170.121 212.625 169.479C212.078 168.836 211.271 168.289 210.205 167.838C209.152 167.387 207.86 166.977 206.329 166.607L201.756 165.459C198.215 164.598 195.419 163.251 193.368 161.419C191.317 159.587 190.299 157.119 190.312 154.016C190.299 151.473 190.975 149.251 192.343 147.351C193.723 145.45 195.617 143.967 198.023 142.9C200.429 141.834 203.164 141.301 206.226 141.301C209.344 141.301 212.064 141.834 214.388 142.9C216.726 143.967 218.545 145.45 219.844 147.351C221.142 149.251 221.812 151.452 221.853 153.954H213.343Z" fill="white"/>
<path d="M150.384 149.196V141.875H184.878V149.196H172.02V183.875H163.242V149.196H150.384Z" fill="white"/>
<rect x="276" y="92" width="105" height="105" rx="14" fill="#FFDF00"/>
<path d="M359.093 153.954C358.928 152.3 358.224 151.015 356.98 150.099C355.736 149.183 354.048 148.725 351.915 148.725C350.466 148.725 349.242 148.93 348.244 149.34C347.246 149.736 346.48 150.29 345.947 151.001C345.427 151.712 345.168 152.519 345.168 153.421C345.14 154.173 345.298 154.829 345.639 155.39C345.995 155.95 346.48 156.436 347.095 156.846C347.711 157.242 348.422 157.591 349.228 157.892C350.035 158.179 350.896 158.425 351.812 158.63L355.586 159.532C357.418 159.942 359.099 160.489 360.631 161.173C362.162 161.856 363.488 162.697 364.609 163.695C365.73 164.693 366.598 165.869 367.214 167.223C367.843 168.576 368.164 170.128 368.177 171.878C368.164 174.448 367.508 176.677 366.209 178.563C364.924 180.437 363.064 181.893 360.631 182.932C358.211 183.957 355.292 184.47 351.874 184.47C348.483 184.47 345.53 183.95 343.014 182.911C340.512 181.872 338.557 180.334 337.149 178.297C335.755 176.246 335.023 173.71 334.955 170.688H343.548C343.643 172.097 344.047 173.272 344.758 174.216C345.482 175.146 346.446 175.85 347.649 176.328C348.866 176.793 350.24 177.025 351.771 177.025C353.275 177.025 354.581 176.807 355.688 176.369C356.809 175.932 357.677 175.323 358.293 174.544C358.908 173.765 359.216 172.869 359.216 171.857C359.216 170.914 358.935 170.121 358.375 169.479C357.828 168.836 357.021 168.289 355.955 167.838C354.902 167.387 353.61 166.977 352.079 166.607L347.506 165.459C343.965 164.598 341.169 163.251 339.118 161.419C337.067 159.587 336.049 157.119 336.062 154.016C336.049 151.473 336.725 149.251 338.093 147.351C339.473 145.45 341.367 143.967 343.773 142.9C346.179 141.834 348.914 141.301 351.976 141.301C355.094 141.301 357.814 141.834 360.138 142.9C362.476 143.967 364.295 145.45 365.594 147.351C366.892 149.251 367.562 151.452 367.603 153.954H359.093Z" fill="black"/>
<path d="M320.189 141.875H328.967V171.16C328.967 173.867 328.358 176.219 327.142 178.215C325.938 180.211 324.264 181.749 322.117 182.829C319.971 183.909 317.476 184.449 314.632 184.449C312.103 184.449 309.806 184.005 307.741 183.116C305.69 182.214 304.063 180.847 302.86 179.015C301.657 177.169 301.062 174.852 301.076 172.062H309.915C309.942 173.17 310.168 174.12 310.592 174.913C311.029 175.692 311.624 176.294 312.376 176.718C313.142 177.128 314.044 177.333 315.083 177.333C316.177 177.333 317.1 177.101 317.852 176.636C318.617 176.157 319.198 175.46 319.595 174.544C319.991 173.628 320.189 172.5 320.189 171.16V141.875Z" fill="black"/>
</svg>
