<svg width="512" height="290" viewBox="0 0 512 290" fill="none" xmlns="http://www.w3.org/2000/svg">
<style>
@media (prefers-color-scheme: dark) {
    path { fill: white; }
    .text { display: none }
}
</style>
<path fill-rule="evenodd" clip-rule="evenodd" d="M126 105C126 97.8203 131.82 92 139 92H218C225.18 92 231 97.8203 231 105V184C231 191.18 225.18 197 218 197H139C131.82 197 126 191.18 126 184V105ZM211.959 156.653C211.795 154.999 211.091 153.714 209.846 152.798C208.602 151.882 206.914 151.424 204.781 151.424C203.332 151.424 202.108 151.629 201.11 152.039C200.112 152.436 199.346 152.989 198.813 153.7C198.294 154.411 198.034 155.218 198.034 156.12C198.007 156.872 198.164 157.528 198.506 158.089C198.861 158.649 199.346 159.135 199.962 159.545C200.577 159.941 201.288 160.29 202.094 160.591C202.901 160.878 203.762 161.124 204.678 161.329L208.452 162.231C210.284 162.642 211.966 163.188 213.497 163.872C215.028 164.556 216.354 165.396 217.475 166.395C218.596 167.393 219.465 168.568 220.08 169.922C220.709 171.275 221.03 172.827 221.044 174.577C221.03 177.147 220.374 179.376 219.075 181.263C217.79 183.136 215.93 184.592 213.497 185.631C211.077 186.656 208.158 187.169 204.74 187.169C201.349 187.169 198.396 186.649 195.881 185.61C193.379 184.571 191.424 183.033 190.015 180.996C188.621 178.945 187.889 176.409 187.821 173.388H196.414C196.51 174.796 196.913 175.972 197.624 176.915C198.348 177.845 199.312 178.549 200.515 179.027C201.732 179.492 203.106 179.725 204.637 179.725C206.141 179.725 207.447 179.506 208.554 179.068C209.676 178.631 210.544 178.022 211.159 177.243C211.774 176.464 212.082 175.568 212.082 174.557C212.082 173.613 211.802 172.82 211.241 172.178C210.694 171.535 209.887 170.988 208.821 170.537C207.768 170.086 206.476 169.676 204.945 169.307L200.372 168.158C196.831 167.297 194.035 165.95 191.984 164.118C189.933 162.286 188.915 159.818 188.928 156.715C188.915 154.172 189.592 151.95 190.959 150.05C192.34 148.149 194.233 146.666 196.639 145.6C199.046 144.533 201.78 144 204.843 144C207.96 144 210.68 144.533 213.005 145.6C215.343 146.666 217.161 148.149 218.46 150.05C219.759 151.95 220.428 154.151 220.469 156.653H211.959ZM149 144.574V151.896H161.858V186.574H170.636V151.896H183.494V144.574H149Z" fill="#3178C6"/>
<path fill-rule="evenodd" clip-rule="evenodd" d="M269 105C269 97.8203 274.82 92 282 92H361C368.18 92 374 97.8203 374 105V184C374 191.18 368.18 197 361 197H282C274.82 197 269 191.18 269 184V105ZM355.017 156.653C354.853 154.999 354.148 153.714 352.904 152.798C351.66 151.882 349.972 151.424 347.839 151.424C346.39 151.424 345.166 151.629 344.168 152.039C343.17 152.436 342.404 152.989 341.871 153.7C341.352 154.411 341.092 155.218 341.092 156.12C341.064 156.872 341.222 157.528 341.563 158.089C341.919 158.649 342.404 159.135 343.02 159.545C343.635 159.941 344.346 160.29 345.152 160.591C345.959 160.878 346.82 161.124 347.736 161.329L351.51 162.231C353.342 162.642 355.023 163.188 356.555 163.872C358.086 164.556 359.412 165.396 360.533 166.395C361.654 167.393 362.522 168.568 363.138 169.922C363.767 171.275 364.088 172.827 364.102 174.577C364.088 177.147 363.432 179.376 362.133 181.263C360.848 183.136 358.988 184.592 356.555 185.631C354.135 186.656 351.216 187.169 347.798 187.169C344.407 187.169 341.454 186.649 338.938 185.61C336.437 184.571 334.481 183.033 333.073 180.996C331.679 178.945 330.947 176.409 330.879 173.388H339.472C339.567 174.796 339.971 175.972 340.682 176.915C341.406 177.845 342.37 178.549 343.573 179.027C344.79 179.492 346.164 179.725 347.695 179.725C349.199 179.725 350.505 179.506 351.612 179.068C352.733 178.631 353.602 178.022 354.217 177.243C354.832 176.464 355.14 175.568 355.14 174.557C355.14 173.613 354.859 172.82 354.299 172.178C353.752 171.535 352.945 170.988 351.879 170.537C350.826 170.086 349.534 169.676 348.003 169.307L343.43 168.158C339.889 167.297 337.093 165.95 335.042 164.118C332.991 162.286 331.973 159.818 331.986 156.715C331.973 154.172 332.649 151.95 334.017 150.05C335.397 148.149 337.291 146.666 339.697 145.6C342.104 144.533 344.838 144 347.9 144C351.018 144 353.738 144.533 356.062 145.6C358.4 146.666 360.219 148.149 361.518 150.05C362.816 151.95 363.486 154.151 363.527 156.653H355.017ZM324.891 144.574H316.114V173.859C316.114 175.199 315.915 176.327 315.519 177.243C315.122 178.159 314.541 178.856 313.776 179.335C313.024 179.8 312.101 180.032 311.007 180.032C309.968 180.032 309.066 179.827 308.3 179.417C307.548 178.993 306.953 178.392 306.516 177.612C306.092 176.819 305.866 175.869 305.839 174.762H297C296.987 177.551 297.581 179.868 298.784 181.714C299.988 183.546 301.615 184.913 303.665 185.815C305.73 186.704 308.027 187.148 310.556 187.148C313.4 187.148 315.895 186.608 318.041 185.528C320.188 184.448 321.863 182.91 323.066 180.914C324.282 178.918 324.891 176.566 324.891 173.859V144.574Z" fill="#FFDF00"/>
<path class="text" d="M355.017 156.653C354.853 154.999 354.148 153.714 352.904 152.798C351.66 151.882 349.972 151.424 347.839 151.424C346.39 151.424 345.166 151.629 344.168 152.039C343.17 152.436 342.404 152.989 341.871 153.7C341.352 154.411 341.092 155.218 341.092 156.12C341.064 156.872 341.222 157.528 341.563 158.089C341.919 158.649 342.404 159.135 343.02 159.545C343.635 159.941 344.346 160.29 345.152 160.591C345.959 160.878 346.82 161.124 347.736 161.329L351.51 162.231C353.342 162.642 355.023 163.188 356.555 163.872C358.086 164.556 359.412 165.396 360.533 166.395C361.654 167.393 362.522 168.568 363.138 169.922C363.767 171.275 364.088 172.827 364.102 174.577C364.088 177.147 363.432 179.376 362.133 181.263C360.848 183.136 358.988 184.592 356.555 185.631C354.135 186.656 351.216 187.169 347.798 187.169C344.407 187.169 341.454 186.649 338.938 185.61C336.437 184.571 334.481 183.033 333.073 180.996C331.679 178.945 330.947 176.409 330.879 173.388H339.472C339.567 174.796 339.971 175.972 340.682 176.915C341.406 177.845 342.37 178.549 343.573 179.027C344.79 179.492 346.164 179.725 347.695 179.725C349.199 179.725 350.505 179.506 351.612 179.068C352.733 178.631 353.602 178.022 354.217 177.243C354.832 176.464 355.14 175.568 355.14 174.557C355.14 173.613 354.859 172.82 354.299 172.178C353.752 171.535 352.945 170.988 351.879 170.537C350.826 170.086 349.534 169.676 348.003 169.307L343.43 168.158C339.889 167.297 337.093 165.95 335.042 164.118C332.991 162.286 331.973 159.818 331.986 156.715C331.973 154.172 332.649 151.95 334.017 150.05C335.397 148.149 337.291 146.666 339.697 145.6C342.104 144.533 344.838 144 347.9 144C351.018 144 353.738 144.533 356.062 145.6C358.4 146.666 360.219 148.149 361.518 150.05C362.816 151.95 363.486 154.151 363.527 156.653H355.017Z" fill="black"/>
<path class="text" d="M316.114 144.574H324.891V173.859C324.891 176.566 324.282 178.918 323.066 180.914C321.863 182.91 320.188 184.448 318.041 185.528C315.895 186.608 313.4 187.148 310.556 187.148C308.027 187.148 305.73 186.704 303.665 185.815C301.614 184.913 299.988 183.546 298.784 181.714C297.581 179.868 296.987 177.551 297 174.762H305.839C305.866 175.869 306.092 176.819 306.516 177.612C306.953 178.392 307.548 178.993 308.3 179.417C309.066 179.827 309.968 180.032 311.007 180.032C312.101 180.032 313.024 179.8 313.776 179.335C314.541 178.856 315.122 178.159 315.519 177.243C315.915 176.327 316.114 175.199 316.114 173.859V144.574Z" fill="black"/>
</svg>
