<svg width="512" height="289" viewBox="0 0 512 289" fill="none" xmlns="http://www.w3.org/2000/svg">
<path fill-rule="evenodd" clip-rule="evenodd" d="M169.53 176L132.765 112L96 176H169.53ZM206.612 173.087L237.337 114.909H224.047L202.853 157.16L181.658 114.909H168.368L199.093 173.087H206.612ZM416 114.909V173.087H404.998V114.909H416ZM354.758 151.372C354.758 146.838 355.703 142.851 357.594 139.409C359.485 135.968 362.121 133.318 365.501 131.461C368.882 129.604 372.836 128.675 377.364 128.675C381.375 128.675 384.985 129.549 388.194 131.297C391.403 133.045 393.953 135.64 395.843 139.081C397.734 142.523 398.709 146.729 398.766 151.7V154.24H366.362C366.59 157.846 367.65 160.686 369.541 162.762C371.49 164.783 374.098 165.794 377.364 165.794C379.426 165.794 381.318 165.248 383.036 164.155C384.755 163.062 386.045 161.588 386.904 159.73L398.165 160.55C396.789 164.647 394.211 167.924 390.429 170.382C386.646 172.841 382.292 174.07 377.364 174.07C372.836 174.07 368.882 173.141 365.501 171.284C362.121 169.427 359.485 166.777 357.594 163.336C355.703 159.894 354.758 155.906 354.758 151.372ZM387.42 147.275C387.019 143.725 385.902 141.13 384.068 139.491C382.234 137.798 380 136.951 377.364 136.951C374.326 136.951 371.863 137.852 369.972 139.655C368.08 141.458 366.906 143.998 366.447 147.275H387.42ZM336.193 139.491C338.027 140.966 339.172 143.014 339.632 145.636L350.976 145.063C350.575 141.731 349.402 138.836 347.453 136.377C345.504 133.919 342.984 132.035 339.888 130.723C336.852 129.358 333.5 128.675 329.832 128.675C325.305 128.675 321.352 129.604 317.97 131.461C314.589 133.318 311.953 135.968 310.062 139.409C308.171 142.851 307.226 146.838 307.226 151.372C307.226 155.906 308.171 159.894 310.062 163.336C311.953 166.777 314.589 169.427 317.97 171.284C321.352 173.141 325.305 174.07 329.832 174.07C333.613 174.07 337.052 173.387 340.146 172.021C343.242 170.601 345.762 168.607 347.711 166.04C349.66 163.472 350.833 160.468 351.234 157.026L339.803 156.535C339.402 159.43 338.284 161.67 336.451 163.254C334.617 164.783 332.41 165.548 329.832 165.548C326.28 165.548 323.529 164.319 321.58 161.861C319.632 159.403 318.659 155.906 318.659 151.372C318.659 146.838 319.632 143.342 321.58 140.884C323.529 138.426 326.28 137.197 329.832 137.197C332.297 137.197 334.416 137.961 336.193 139.491ZM280.381 129.656H290.62L290.915 138.015C291.642 135.649 292.652 133.812 293.947 132.503C295.823 130.605 298.441 129.656 301.796 129.656H305.977V138.603H301.711C299.322 138.603 297.36 138.928 295.823 139.579C294.345 140.229 293.207 141.259 292.411 142.669C291.672 144.079 291.302 145.868 291.302 148.037V173.087H280.381V129.656ZM233.155 139.409C231.264 142.851 230.319 146.838 230.319 151.372C230.319 155.906 231.264 159.894 233.155 163.336C235.046 166.777 237.682 169.427 241.063 171.284C244.444 173.141 248.398 174.07 252.925 174.07C257.852 174.07 262.208 172.841 265.989 170.382C269.773 167.924 272.351 164.647 273.726 160.55L262.466 159.73C261.607 161.588 260.317 163.062 258.598 164.155C256.879 165.248 254.988 165.794 252.925 165.794C249.659 165.794 247.051 164.783 245.103 162.762C243.212 160.686 242.152 157.846 241.923 154.24H274.328V151.7C274.27 146.729 273.296 142.523 271.405 139.081C269.515 135.64 266.965 133.045 263.756 131.297C260.547 129.549 256.937 128.675 252.925 128.675C248.398 128.675 244.444 129.604 241.063 131.461C237.682 133.318 235.046 135.968 233.155 139.409ZM259.63 139.491C261.462 141.13 262.581 143.725 262.982 147.275H242.008C242.467 143.998 243.642 141.458 245.533 139.655C247.424 137.852 249.888 136.951 252.925 136.951C255.56 136.951 257.796 137.798 259.63 139.491Z" fill="white"/>
</svg>
