<svg width="512" height="289" viewBox="0 0 512 289" fill="none" xmlns="http://www.w3.org/2000/svg">
<style>
@media (prefers-color-scheme: dark) {
    path { fill: white; stroke: white; }
}
</style>
<g clip-path="url(#clip0_1066_1580)">
<path fill-rule="evenodd" clip-rule="evenodd" d="M214 94.5996H230.7L173 194L115 94.5996H136L173 159.699L214 94.5996Z" fill="black"/>
<path fill-rule="evenodd" clip-rule="evenodd" d="M187.664 95.9648H211L173 155.699L139 95.9648H161.064L174.364 119.065L187.664 95.9648Z" fill="black" stroke="black" stroke-width="2" stroke-miterlimit="10"/>
<path fill-rule="evenodd" clip-rule="evenodd" d="M244.398 114.199C244.398 113.499 244.798 112.899 245.598 112.399C246.398 111.899 247.298 111.699 248.198 111.699C249.398 111.699 250.198 112.199 250.498 113.099L263.498 156.699L276.498 113.099C276.798 112.199 277.598 111.699 278.698 111.699C279.598 111.699 280.498 111.999 281.298 112.499C282.098 112.999 282.498 113.599 282.498 114.299C282.498 114.299 282.498 114.399 282.498 114.499C282.498 114.599 282.498 114.699 282.498 114.799L267.498 163.599C266.998 164.999 265.598 165.699 263.598 165.699C261.498 165.699 260.298 164.999 259.798 163.599L244.598 114.799C244.398 114.499 244.398 114.299 244.398 114.199ZM283.098 151.799V132.699C283.098 132.099 283.398 131.599 283.998 131.199C284.598 130.799 285.298 130.499 286.198 130.499C286.998 130.499 287.698 130.699 288.298 131.199C288.898 131.699 289.198 132.199 289.198 132.699V151.799C289.198 153.999 289.998 155.999 291.698 157.699C293.398 159.399 295.398 160.299 297.698 160.299C299.998 160.299 301.898 159.399 303.598 157.699C305.298 155.999 306.098 153.999 306.098 151.699V132.599C306.098 132.099 306.398 131.599 306.998 131.099C307.598 130.699 308.298 130.399 309.198 130.399C310.098 130.399 310.798 130.599 311.398 130.999C311.998 131.399 312.298 131.899 312.298 132.499V151.599C312.298 155.399 310.898 158.699 307.998 161.499C305.098 164.299 301.698 165.699 297.698 165.699C293.698 165.699 290.298 164.299 287.398 161.499C284.498 158.799 283.098 155.499 283.098 151.799ZM317.298 151.599V143.899C317.298 140.099 318.698 136.899 321.598 134.099C324.498 131.399 327.998 129.999 331.998 129.999C335.798 129.999 339.198 131.299 341.998 133.799C344.798 136.399 346.198 139.599 346.198 143.399C346.198 144.799 345.998 145.999 345.698 146.799C345.398 147.699 344.798 148.299 344.098 148.599C343.398 148.999 342.698 149.199 342.098 149.299C341.498 149.399 340.698 149.399 339.598 149.399H323.398V151.599C323.398 154.299 324.398 156.399 326.298 158.099C328.198 159.699 330.798 160.499 333.898 160.499C335.498 160.499 336.898 160.299 338.198 159.799C339.398 159.299 340.398 158.799 341.098 158.399C341.798 157.899 342.398 157.699 342.898 157.699C343.598 157.699 344.198 157.999 344.698 158.599C345.198 159.199 345.398 159.799 345.398 160.499C345.398 161.599 344.298 162.799 341.998 163.899C339.798 165.099 336.998 165.699 333.698 165.699C328.898 165.699 324.898 164.399 321.898 161.799C318.798 159.299 317.298 155.899 317.298 151.599ZM323.498 145.499H337.198C338.498 145.499 339.298 145.299 339.798 144.999C340.198 144.699 340.498 144.099 340.498 143.099C340.498 140.899 339.698 138.999 338.098 137.299C336.498 135.599 334.498 134.799 332.098 134.799C329.798 134.799 327.798 135.599 326.098 137.099C324.398 138.599 323.598 140.499 323.598 142.799L323.498 145.499ZM349.398 161.899C349.398 160.799 349.798 159.899 350.498 159.199C351.198 158.399 352.198 158.099 353.198 158.099C354.198 158.099 355.098 158.499 355.898 159.199C356.598 159.999 356.998 160.899 356.998 161.899C356.998 162.899 356.598 163.799 355.898 164.599C355.198 165.399 354.298 165.699 353.198 165.699C352.098 165.699 351.198 165.299 350.498 164.599C349.698 163.799 349.398 162.899 349.398 161.899ZM354.798 179.399C354.798 178.599 354.998 177.999 355.498 177.499C355.998 176.999 356.598 176.699 357.298 176.699C359.198 176.699 360.498 175.999 361.098 174.599C361.698 173.199 361.998 171.099 361.998 168.199V132.599C361.998 131.999 362.298 131.499 362.898 131.099C363.498 130.699 364.198 130.499 365.098 130.499C365.998 130.499 366.698 130.699 367.298 131.099C367.898 131.499 368.198 131.999 368.198 132.599V168.199C368.198 172.499 367.398 175.799 365.698 178.299C363.998 180.799 361.498 181.999 358.098 181.999C355.898 181.999 354.798 181.199 354.798 179.399ZM361.198 117.399C361.198 116.499 361.598 115.699 362.298 114.999C362.998 114.299 363.998 113.999 364.998 113.999C365.998 113.999 366.898 114.299 367.698 114.999C368.398 115.699 368.798 116.499 368.798 117.399C368.798 118.299 368.398 119.099 367.698 119.899C366.998 120.599 366.098 120.999 364.998 120.999C363.898 120.999 363.098 120.599 362.298 119.899C361.598 119.199 361.198 118.399 361.198 117.399ZM372.698 160.299C372.698 159.699 372.898 158.999 373.298 158.399C373.698 157.799 374.198 157.499 374.798 157.499C375.198 157.499 375.798 157.799 376.498 158.399C377.198 158.999 378.298 159.599 379.698 160.099C381.098 160.699 382.698 160.899 384.598 160.899C387.098 160.899 388.898 160.499 389.998 159.599C391.098 158.699 391.698 157.599 391.698 156.299C391.698 154.699 391.098 153.399 389.798 152.499C388.598 151.499 387.098 150.799 385.298 150.299C383.498 149.799 381.698 149.299 379.998 148.699C378.198 148.099 376.698 147.099 375.498 145.799C374.298 144.399 373.598 142.599 373.598 140.399C373.598 137.599 374.598 135.199 376.598 133.199C378.598 131.199 381.598 130.199 385.698 130.199C388.298 130.199 390.698 130.599 392.898 131.399C395.098 132.199 396.198 133.099 396.198 134.099C396.198 134.699 395.998 135.299 395.498 136.099C394.998 136.799 394.498 137.199 393.798 137.199C393.598 137.199 392.698 136.799 390.998 136.099C389.298 135.399 387.598 134.999 385.898 134.999C383.598 134.999 381.898 135.499 380.798 136.599C379.698 137.699 379.098 138.799 379.098 140.199C379.098 141.599 379.698 142.599 380.998 143.399C382.198 144.199 383.798 144.799 385.598 145.199C387.398 145.599 389.198 146.199 390.998 146.799C392.798 147.399 394.298 148.499 395.498 150.099C396.698 151.599 397.398 153.599 397.398 156.099C397.398 159.099 396.298 161.499 394.098 163.299C391.898 165.099 388.898 165.899 384.998 165.899C381.598 165.899 378.798 165.299 376.398 164.099C373.898 162.799 372.698 161.599 372.698 160.299Z" fill="black"/>
</g>
<defs>
<clipPath id="clip0_1066_1580">
<rect width="282" height="99" fill="black" transform="translate(115 95)"/>
</clipPath>
</defs>
</svg>
